<?xml version="1.0" encoding="UTF-8" standalone="no"?>
<!-- Created with Inkscape (http://www.inkscape.org/) -->

<svg
   width="40.108967mm"
   height="31.538321mm"
   viewBox="0 0 40.108967 31.538321"
   version="1.1"
   id="svg1"
   inkscape:version="1.4.3 (1:1.4.3+202512261035+0d15f75042)"
   sodipodi:docname="faraday.svg"
   xmlns:inkscape="http://www.inkscape.org/namespaces/inkscape"
   xmlns:sodipodi="http://sodipodi.sourceforge.net/DTD/sodipodi-0.dtd"
   xmlns="http://www.w3.org/2000/svg"
   xmlns:svg="http://www.w3.org/2000/svg">
  <sodipodi:namedview
     id="namedview1"
     pagecolor="#ffffff"
     bordercolor="#000000"
     borderopacity="0.25"
     inkscape:showpageshadow="2"
     inkscape:pageopacity="0.0"
     inkscape:pagecheckerboard="0"
     inkscape:deskcolor="#d1d1d1"
     inkscape:document-units="mm"
     inkscape:zoom="4.4397338"
     inkscape:cx="80.635465"
     inkscape:cy="66.332806"
     inkscape:window-width="1920"
     inkscape:window-height="1043"
     inkscape:window-x="0"
     inkscape:window-y="0"
     inkscape:window-maximized="1"
     inkscape:current-layer="layer1" />
  <defs
     id="defs1">
    <marker
       style="overflow:visible"
       id="Triangle"
       refX="0"
       refY="0"
       orient="auto-start-reverse"
       inkscape:stockid="Triangle arrow"
       markerWidth="1.61800003"
       markerHeight="1"
       viewBox="0 0 1 1"
       inkscape:isstock="true"
       inkscape:collect="always"
       preserveAspectRatio="none">
      <path
         transform="scale(0.5)"
         style="fill:context-stroke;fill-rule:evenodd;stroke:context-stroke;stroke-width:1pt"
         d="M 5.77,0 -2.88,5 V -5 Z"
         id="path135" />
    </marker>
    <g
       id="g8957">
      <g
         id="g2853">
        <path
           d="M 1.34375,-5.71875 V -0.4375 H 0.375 V 0 H 4.640625 C 6.171875,0 6.9375,-0.796875 6.9375,-1.671875 c 0,-0.78125 -0.65625,-1.40625 -1.859375,-1.546875 1,-0.171875 1.5625,-0.734375 1.5625,-1.390625 0,-0.828125 -0.796875,-1.546875 -2.28125,-1.546875 H 0.375 v 0.4375 z M 2.53125,-3.375 V -5.71875 H 4.25 c 1.0625,0 1.09375,0.921875 1.09375,1.109375 0,0.65625 -0.4375,1.234375 -1.328125,1.234375 z m 0,2.9375 v -2.578125 h 1.8125 c 0.15625,0 0.625,0 0.9375,0.359375 0.25,0.3125 0.3125,0.6875 0.3125,0.96875 0,0.625 -0.359375,1.25 -1.328125,1.25 z m 0,0"
           id="path7128" />
      </g>
    </g>
    <g
       id="g2945">
      <g
         id="g7544">
        <path
           d="m 3.484375,-1.078125 c 0,0.15625 0,0.1875 -0.125,0.375 C 3.078125,-0.296875 2.65625,-0.125 2.3125,-0.125 c -0.390625,0 -0.75,-0.21875 -0.984375,-0.59375 -0.234375,-0.390625 -0.25,-0.90625 -0.25,-1.203125 0,-0.421875 0.046875,-0.890625 0.28125,-1.25 0.203125,-0.296875 0.5625,-0.5625 1.046875,-0.5625 0.375,0 0.734375,0.1875 0.96875,0.53125 0.109375,0.140625 0.109375,0.140625 0.109375,0.3125 z M 3.515625,-3.4375 C 3.46875,-3.484375 3.0625,-3.96875 2.375,-3.96875 c -1.109375,0 -2.0625,0.890625 -2.0625,2.046875 0,1.109375 0.890625,2.015625 1.953125,2.015625 0.65625,0 1.0625,-0.375 1.21875,-0.5625 v 0.5625 L 4.84375,0 v -0.28125 c -0.609375,0 -0.6875,-0.0625 -0.6875,-0.5 v -5.4375 L 2.828125,-6.125 v 0.28125 c 0.609375,0 0.6875,0.0625 0.6875,0.5 z m 0,0"
           id="path2580" />
      </g>
      <g
         id="g678">
        <path
           d="m 0.875,-1.25 c 0.109375,0.828125 0.4375,1.359375 1.046875,1.359375 0.546875,0 1.09375,-0.484375 1.421875,-0.78125 0.015625,-0.015625 0.03125,-0.03125 0.03125,-0.09375 0,-0.046875 -0.0625,-0.125 -0.125,-0.125 -0.03125,0 -0.046875,0 -0.125,0.078125 -0.578125,0.546875 -0.890625,0.703125 -1.1875,0.703125 -0.125,0 -0.328125,0 -0.453125,-0.40625 C 1.4375,-0.65625 1.375,-0.96875 1.375,-1.296875 c 0,-0.140625 0,-0.3125 0.046875,-0.46875 0,0 0,-0.015625 0.171875,-0.1875 C 1.984375,-2.359375 2.5,-2.9375 2.859375,-3.484375 3.5625,-4.5625 3.625,-5.359375 3.625,-5.609375 c 0,-0.3125 -0.078125,-0.71875 -0.546875,-0.71875 -0.40625,0 -0.703125,0.375 -0.828125,0.53125 -0.828125,1.03125 -1.40625,2.921875 -1.40625,4.078125 0,0.046875 0,0.109375 0.015625,0.15625 -0.21875,0.1875 -0.421875,0.375 -0.625,0.578125 C 0.21875,-0.96875 0.15625,-0.90625 0.125,-0.890625 c -0.015625,0.03125 -0.03125,0.0625 -0.03125,0.09375 0,0.03125 0.03125,0.140625 0.109375,0.140625 C 0.28125,-0.65625 0.625,-1 0.71875,-1.109375 Z m 0.59375,-0.9375 c 0.0625,-0.359375 0.375,-1.734375 0.671875,-2.53125 C 2.25,-5 2.65625,-6.09375 3.09375,-6.09375 c 0.25,0 0.296875,0.234375 0.296875,0.453125 C 3.390625,-5.5 3.359375,-4.9375 3,-4.203125 2.46875,-3.15625 1.484375,-2.1875 1.46875,-2.1875 Z m 0,0"
           id="path4499" />
      </g>
    </g>
    <g
       id="g6586">
      <g
         id="g477">
        <path
           d="m 3.484375,-1.078125 c 0,0.15625 0,0.1875 -0.125,0.375 C 3.078125,-0.296875 2.65625,-0.125 2.3125,-0.125 c -0.390625,0 -0.75,-0.21875 -0.984375,-0.59375 -0.234375,-0.390625 -0.25,-0.90625 -0.25,-1.203125 0,-0.421875 0.046875,-0.890625 0.28125,-1.25 0.203125,-0.296875 0.5625,-0.5625 1.046875,-0.5625 0.375,0 0.734375,0.1875 0.96875,0.53125 0.109375,0.140625 0.109375,0.140625 0.109375,0.3125 z M 3.515625,-3.4375 C 3.46875,-3.484375 3.0625,-3.96875 2.375,-3.96875 c -1.109375,0 -2.0625,0.890625 -2.0625,2.046875 0,1.109375 0.890625,2.015625 1.953125,2.015625 0.65625,0 1.0625,-0.375 1.21875,-0.5625 v 0.5625 L 4.84375,0 v -0.28125 c -0.609375,0 -0.6875,-0.0625 -0.6875,-0.5 v -5.4375 L 2.828125,-6.125 v 0.28125 c 0.609375,0 0.6875,0.0625 0.6875,0.5 z m 0,0"
           id="path3203" />
      </g>
      <g
         id="g8260">
        <path
           d="m 2.078125,-6.21875 -1.609375,0.0625 v 0.4375 c 0.53125,0 0.609375,0 0.609375,0.359375 V -0.4375 H 0.46875 V 0 c 0.609375,-0.03125 0.71875,-0.03125 1.09375,-0.03125 0.40625,0 0.640625,0.015625 1.125,0.03125 V -0.4375 H 2.078125 Z m 0,0"
           id="path672" />
      </g>
    </g>
    <g
       id="g3491">
      <g
         id="g3454">
        <path
           d="M 2.515625,-0.765625 C 2.5625,-1.125 2.625,-1.90625 2.625,-2.65625 c 0,-0.640625 0,-3.46875 -1.6875,-3.46875 -0.328125,0 -0.625,0.28125 -0.625,0.390625 0,0.0625 0.03125,0.0625 0.09375,0.0625 0.28125,0.03125 0.90625,0.078125 1.265625,1.171875 0.21875,0.6875 0.265625,1.515625 0.265625,2.171875 0,0.78125 -0.078125,1.828125 -0.203125,2.484375 0,0.046875 -0.015625,0.078125 -0.015625,0.125 0,0.015625 0.015625,0.125 0.078125,0.125 0.0625,0 2.53125,-1.75 3.703125,-3.75 0.265625,-0.453125 0.578125,-1.1875 0.578125,-1.734375 C 6.078125,-5.78125 5.59375,-6.125 5.1875,-6.125 c -0.265625,0 -0.390625,0.578125 -0.390625,0.703125 0,0.125 0.03125,0.125 0.125,0.140625 0.640625,0.078125 0.75,0.5625 0.75,0.765625 0,0.578125 -1.171875,2.203125 -3.15625,3.75 z m 0,0"
           id="path6650" />
      </g>
    </g>
    <g
       id="g7874">
      <g
         id="g826">
        <path
           d="m 3.484375,-1.078125 c 0,0.15625 0,0.1875 -0.125,0.375 C 3.078125,-0.296875 2.65625,-0.125 2.3125,-0.125 c -0.390625,0 -0.75,-0.21875 -0.984375,-0.59375 -0.234375,-0.390625 -0.25,-0.90625 -0.25,-1.203125 0,-0.421875 0.046875,-0.890625 0.28125,-1.25 0.203125,-0.296875 0.5625,-0.5625 1.046875,-0.5625 0.375,0 0.734375,0.1875 0.96875,0.53125 0.109375,0.140625 0.109375,0.140625 0.109375,0.3125 z M 3.515625,-3.4375 C 3.46875,-3.484375 3.0625,-3.96875 2.375,-3.96875 c -1.109375,0 -2.0625,0.890625 -2.0625,2.046875 0,1.109375 0.890625,2.015625 1.953125,2.015625 0.65625,0 1.0625,-0.375 1.21875,-0.5625 v 0.5625 L 4.84375,0 v -0.28125 c -0.609375,0 -0.6875,-0.0625 -0.6875,-0.5 v -5.4375 L 2.828125,-6.125 v 0.28125 c 0.609375,0 0.6875,0.0625 0.6875,0.5 z m 0,0"
           id="path4882" />
      </g>
      <g
         id="g105">
        <path
           d="m 0.640625,0.5 c 0,0.421875 -0.0625,0.984375 -0.15625,1.296875 H 1.15625 c 0.09375,-0.1875 0.125,-0.40625 0.125,-1.03125 V -0.34375 c 0.421875,0.328125 0.78125,0.453125 1.25,0.453125 0.953125,0 1.625,-0.71875 1.625,-1.75 0,-0.859375 -0.4375,-1.46875 -1.3125,-1.84375 0.609375,-0.34375 0.890625,-0.703125 0.890625,-1.171875 0,-0.71875 -0.703125,-1.3125 -1.578125,-1.3125 -0.859375,0 -1.515625,0.578125 -1.515625,1.34375 z M 1.28125,-4.703125 c 0,-0.5625 0.34375,-0.96875 0.8125,-0.96875 0.515625,0 0.875,0.46875 0.875,1.109375 0,0.4375 -0.234375,0.890625 -0.4375,0.890625 -0.03125,0 -0.046875,0 -0.171875,-0.03125 -0.125,-0.015625 -0.1875,-0.03125 -0.25,-0.03125 -0.203125,0 -0.359375,0.125 -0.359375,0.28125 0,0.15625 0.15625,0.25 0.359375,0.25 0.046875,0 0.09375,0 0.171875,-0.015625 C 2.375,-3.25 2.453125,-3.25 2.53125,-3.25 c 0.09375,0 0.15625,0.015625 0.203125,0.0625 0.359375,0.328125 0.578125,0.953125 0.578125,1.609375 0,0.796875 -0.359375,1.28125 -0.953125,1.28125 -0.40625,0 -0.796875,-0.1875 -1.078125,-0.5 z m 0,0"
           id="path7567" />
      </g>
    </g>
  </defs>
  <g
     inkscape:label="Layer 1"
     inkscape:groupmode="layer"
     id="layer1">
    <path
       sodipodi:type="arc"
       style="display:inline;fill:#ff0000;fill-opacity:0.392157;stroke:#000000;stroke-width:0.0909883;stroke-miterlimit:4;stroke-dasharray:none;stroke-dashoffset:0;stroke-opacity:1"
       id="path2819"
       sodipodi:cx="-33.448307"
       sodipodi:cy="-5.9520316"
       sodipodi:rx="2.9341311"
       sodipodi:ry="4.596611"
       d="m -35.131256,-2.1867084 a 2.9341311,4.596611 0 0 1 -0.720551,-6.401831 2.9341311,4.596611 0 0 1 4.086448,-1.1288156"
       transform="matrix(-0.64189264,-0.76679452,-0.60589367,0.79554564,0,0)"
       sodipodi:start="2.1816616"
       sodipodi:end="5.3232542"
       sodipodi:open="true"
       sodipodi:arc-type="arc" />
    <path
       style="display:inline;fill:#ffdd55;fill-opacity:0.396154;fill-rule:evenodd;stroke:#000000;stroke-width:0.0930742px;stroke-linecap:butt;stroke-linejoin:miter;stroke-opacity:1"
       d="M 31.273254,27.070938 C 26.66745,24.684508 22.518524,21.841201 18.322569,19.044923 14.470354,16.561591 10.64207,14.118147 7.0409324,12.053276 L 5.6061244,8.2908897 c 4.199849,2.4209343 8.5478336,4.6937323 12.9153406,6.9470093 4.334694,2.034052 8.587141,4.314843 12.751789,6.859037 z"
       id="path2841"
       sodipodi:nodetypes="ccccccc" />
    <path
       style="display:inline;fill:none;fill-opacity:0.75;fill-rule:evenodd;stroke:#ff0000;stroke-width:0.0930742px;stroke-linecap:butt;stroke-linejoin:miter;stroke-opacity:1"
       d="m 31.257311,24.567995 c 0,0 -0.733345,-6.010254 -1.562346,-0.876828 -0.829001,5.133427 -1.530464,-0.876827 -1.530464,-0.876827 0,0 -0.795513,-5.875447 -1.562346,-0.956539 -0.775385,4.973759 -1.875253,-1.009367 -1.875253,-1.009367 0,0 -1.307429,-6.027107 -2.046558,-1.158787 -0.647248,4.263152 -2.072501,-1.211618 -2.072501,-1.22756 0,-0.01594 -1.773232,-5.533292 -1.705828,-1.052192 0.06536,4.255014 -1.594231,-0.876828 -1.594231,-0.876828 0,0 -1.892624,-5.121969 -1.37104,-0.797116 0.48921,4.056422 -1.227558,-0.701462 -1.227558,-0.701462 0,0 -2.008732,-4.766753 -1.084077,-0.685519 0.934028,4.122606 -1.004367,-0.526097 -1.004367,-0.526097 0,0 -2.264593,-4.9419863 -1.562346,-0.940596 0.662354,3.774084 -1.6261156,-0.972481 -1.6261156,-0.972481 0,0 -2.215983,-4.4797923 -1.530463,-0.813059 0.68552,3.666733 -1.482635,-0.813057 -1.482635,-0.813057"
       id="path2907"
       sodipodi:nodetypes="cscscssscscscscsc" />
    <path
       style="display:inline;fill:none;fill-opacity:0.75;fill-rule:evenodd;stroke:#000000;stroke-width:0.0930742;stroke-linecap:butt;stroke-linejoin:miter;stroke-miterlimit:4;stroke-dasharray:0.372298, 0.372298;stroke-dashoffset:0;stroke-opacity:1"
       d="M 34.334179,26.401361 4.0437784,8.8648127"
       id="path2843" />
    <path
       style="display:inline;fill:none;fill-opacity:0.75;fill-rule:evenodd;stroke:#000000;stroke-width:0.0930742px;stroke-linecap:butt;stroke-linejoin:miter;stroke-opacity:1"
       d="M 34.302294,29.255035 V 23.292609"
       id="path2923" />
    <path
       sodipodi:type="arc"
       style="display:inline;fill:none;fill-opacity:1;stroke:#000000;stroke-width:0.0904984;stroke-miterlimit:4;stroke-dasharray:none;stroke-dashoffset:0;stroke-opacity:1"
       id="path2823"
       sodipodi:cx="-18.817387"
       sodipodi:cy="-0.74179411"
       sodipodi:rx="2.9190786"
       sodipodi:ry="4.5706816"
       d="m -19.255139,3.7772007 a 2.9190786,4.5706816 0 0 1 -2.341535,-3.12149774 2.9190786,4.5706816 0 0 1 0.743053,-4.67250746 2.9190786,4.5706816 0 0 1 3.002963,-1.0377429"
       transform="matrix(-0.64619028,-0.76317634,-0.61026337,0.7921986,0,0)"
       sodipodi:start="1.7213267"
       sodipodi:end="5.0499387"
       sodipodi:open="true"
       sodipodi:arc-type="arc" />
    <rect
       style="display:inline;fill:none;fill-opacity:1;stroke:#000000;stroke-width:0.0809554;stroke-miterlimit:4;stroke-dasharray:none;stroke-dashoffset:0;stroke-opacity:1"
       id="rect2788"
       width="5.8350582"
       height="5.9001012"
       x="-42.062645"
       y="42.33271"
       transform="matrix(-0.87458011,0.48488106,0,1,0,0)" />
    <rect
       style="display:inline;fill:none;fill-opacity:1;stroke:#000000;stroke-width:0.0809554;stroke-miterlimit:4;stroke-dasharray:none;stroke-dashoffset:0;stroke-opacity:1"
       id="rect2790"
       width="5.8350568"
       height="5.9001012"
       x="-7.4184556"
       y="8.0164251"
       transform="matrix(-0.87458011,0.48488106,0,1,0,0)" />
    <path
       style="display:inline;fill:none;fill-opacity:0.75;fill-rule:evenodd;stroke:#000000;stroke-width:0.0930742px;stroke-linecap:butt;stroke-linejoin:miter;stroke-opacity:1"
       d="M 4.0028984,11.709266 V 5.6926547"
       id="path2792" />
    <path
       style="display:inline;fill:none;fill-opacity:0.75;fill-rule:evenodd;stroke:#000000;stroke-width:0.0930742px;stroke-linecap:butt;stroke-linejoin:miter;stroke-opacity:1"
       d="M 6.5624504,7.2882197 1.3922154,10.273256"
       id="path2794" />
    <path
       style="display:inline;fill:none;fill-opacity:0.75;fill-rule:evenodd;stroke:#ff0000;stroke-width:0.105;stroke-linecap:butt;stroke-linejoin:miter;stroke-dasharray:none;stroke-opacity:1;marker-start:url(#Triangle);marker-end:url(#Triangle)"
       d="M 4.6429194,10.415547 3.4065494,7.1447787"
       id="path2796" />
    <path
       style="display:inline;fill:none;fill-opacity:0.75;fill-rule:evenodd;stroke:#000000;stroke-width:0.0930742;stroke-linecap:butt;stroke-linejoin:miter;stroke-miterlimit:4;stroke-dasharray:0.558448, 0.0930742;stroke-dashoffset:0;stroke-opacity:1"
       d="m 3.2671074,6.7383547 -0.76391,-1.927402"
       id="path2803" />
    <path
       style="display:inline;fill:none;fill-opacity:0.75;fill-rule:evenodd;stroke:#000000;stroke-width:0.0930742;stroke-linecap:butt;stroke-linejoin:miter;stroke-miterlimit:4;stroke-dasharray:0.558448, 0.186149;stroke-dashoffset:0;stroke-opacity:1;marker-start:none"
       d="M 4.0192624,5.7864057 V 3.9765287"
       id="path2805" />
    <path
       style="display:inline;fill:#000000;fill-opacity:0.75;fill-rule:evenodd;stroke:#000000;stroke-width:0.04616px;stroke-linecap:butt;stroke-linejoin:miter;stroke-opacity:1"
       d="m 3.9497414,4.0316587 -1.245496,0.893591"
       id="path2807"
       inkscape:transform-center-x="1.1629409"
       inkscape:transform-center-y="0.76788532" />
    <path
       style="display:inline;fill:#000000;fill-opacity:1;stroke:#000000;stroke-width:0.00730488;stroke-miterlimit:4;stroke-dashoffset:0;stroke-opacity:1"
       d="m 2.9052834,4.9286577 c -0.21068,0.0473 -0.214954,-0.01294 -0.22218,-0.105178 l -0.106677,0.230926 z"
       id="path2809"
       sodipodi:nodetypes="cccc"
       inkscape:transform-center-x="3.123469"
       inkscape:transform-center-y="2.3879803" />
    <path
       style="display:inline;fill:#000000;fill-opacity:1;stroke:#000000;stroke-width:0.00730488;stroke-miterlimit:4;stroke-dashoffset:0;stroke-opacity:1"
       d="m 3.7347024,4.0468627 c 0.21068,-0.0473 0.214954,0.01294 0.222179,0.105179 l 0.106681,-0.230927 z"
       id="path2811"
       sodipodi:nodetypes="cccc"
       inkscape:transform-center-x="-1.2542683"
       inkscape:transform-center-y="-1.0225309" />
    <path
       style="display:inline;fill:#ffd5d5;fill-opacity:0.461538;stroke:#000000;stroke-width:0.093325;stroke-miterlimit:4;stroke-dashoffset:0;stroke-opacity:1"
       d="m 13.955241,9.5125801 c 0.201746,0.0081 0.398112,0.044229 0.584863,0.1105243 0.09546,0.054979 13.158501,7.4522626 13.135322,7.3974976 -1.902764,-1.233229 -3.772625,0.74517 -4.72525,2.083571 -1.485138,2.117038 -1.740665,4.829756 -0.185695,5.909518 L 10.162396,17.77283 C 8.9317734,17.021695 8.7947374,14.912287 9.8407214,12.793412 10.836163,10.776921 12.543015,9.455812 13.955241,9.5125801 Z"
       id="path2821"
       sodipodi:nodetypes="ccccccsc" />
    <path
       id="path2830"
       d="m 34.278766,28.414381 0.02127,-4.119226"
       style="display:inline;fill:none;fill-opacity:0.75;fill-rule:evenodd;stroke:#ff0000;stroke-width:0.114357px;stroke-linecap:butt;stroke-linejoin:miter;stroke-opacity:1;marker-start:url(#Triangle);marker-end:url(#Triangle)" />
    <path
       style="display:inline;fill:none;fill-opacity:0.75;fill-rule:evenodd;stroke:#000000;stroke-width:0.0930742px;stroke-linecap:butt;stroke-linejoin:miter;stroke-opacity:1"
       d="M 21.389017,23.037532 18.073015,24.95061"
       id="path2845" />
    <path
       style="display:inline;fill:none;fill-opacity:0.75;fill-rule:evenodd;stroke:#000000;stroke-width:0.0930742px;stroke-linecap:butt;stroke-linejoin:miter;stroke-opacity:1"
       d="m 8.9540104,15.704066 -3.316002,2.040617"
       id="path2847" />
    <path
       style="display:inline;fill:none;fill-opacity:0.75;fill-rule:evenodd;stroke:#000000;stroke-width:0.0930742px;stroke-linecap:butt;stroke-linejoin:miter;stroke-opacity:1"
       d="M 36.789296,24.823071 31.65587,27.7724"
       id="path2849" />
    <path
       sodipodi:type="arc"
       style="display:inline;fill:#ff0000;fill-opacity:0.392157;stroke:#000000;stroke-width:0.0909883;stroke-miterlimit:4;stroke-dasharray:none;stroke-dashoffset:0;stroke-opacity:1"
       id="path2915"
       sodipodi:cx="-33.452034"
       sodipodi:cy="-5.95297"
       sodipodi:rx="2.9341311"
       sodipodi:ry="4.596611"
       d="m -31.769086,-9.7182934 a 2.9341311,4.596611 0 0 1 1.240018,4.1659444 2.9341311,4.596611 0 0 1 -1.682949,3.7653234 2.9341311,4.596611 0 0 1 -2.922966,-0.4006212"
       transform="matrix(-0.64189264,-0.76679452,-0.60589367,0.79554564,0,0)"
       sodipodi:start="5.3232542"
       sodipodi:end="2.1816616"
       sodipodi:open="true"
       sodipodi:arc-type="arc" />
    <g
       style="display:inline"
       id="g2917"
       transform="matrix(-0.05087534,0,0,0.04999402,46.143705,22.628519)">
      <path
         inkscape:transform-center-y="-8.7684834"
         inkscape:transform-center-x="-14.389091"
         id="path2919"
         d="M 146.28936,122.85179 207.24288,89.005451"
         style="fill:#000000;fill-opacity:0.75;fill-rule:evenodd;stroke:#000000;stroke-width:2.14834px;stroke-linecap:butt;stroke-linejoin:miter;stroke-opacity:1;marker-end:url(#Triangle)" />
    </g>
    <path
       style="fill:#000000;fill-opacity:0.992157;stroke:#000000;stroke-width:0.264;stroke-linecap:round;stroke-linejoin:round;stroke-dasharray:none;marker-end:url(#Triangle)"
       d="M 18.880786,17.545882 12.80019,7.9054082"
       id="path2"
       sodipodi:nodetypes="cc" />
    <g
       inkscape:label=""
       transform="translate(14.580358,5.5260061)"
       id="g3">
      <g
         fill="#000000"
         fill-opacity="1"
         id="g2"
         transform="matrix(0.352778,0,0,0.352778,-0.835378,-0.701234)">
        <g
           id="use1"
           transform="translate(1.993,8.1440001)">
          <path
             d="M 1.34375,-5.71875 V -0.4375 H 0.375 V 0 H 4.640625 C 6.171875,0 6.9375,-0.796875 6.9375,-1.671875 c 0,-0.78125 -0.65625,-1.40625 -1.859375,-1.546875 1,-0.171875 1.5625,-0.734375 1.5625,-1.390625 0,-0.828125 -0.796875,-1.546875 -2.28125,-1.546875 H 0.375 v 0.4375 z M 2.53125,-3.375 V -5.71875 H 4.25 c 1.0625,0 1.09375,0.921875 1.09375,1.109375 0,0.65625 -0.4375,1.234375 -1.328125,1.234375 z m 0,2.9375 v -2.578125 h 1.8125 c 0.15625,0 0.625,0 0.9375,0.359375 0.25,0.3125 0.3125,0.6875 0.3125,0.96875 0,0.625 -0.359375,1.25 -1.328125,1.25 z m 0,0"
             id="path2-1" />
        </g>
      </g>
    </g>
    <g
       inkscape:label=""
       transform="translate(10.318512,20.931135)"
       id="g5">
      <g
         fill="#000000"
         fill-opacity="1"
         id="g3-1"
         transform="matrix(0.352778,0,0,0.352778,-0.813329,-0.705644)">
        <g
           id="use2"
           transform="translate(1.993,8.2189999)">
          <path
             d="m 3.484375,-1.078125 c 0,0.15625 0,0.1875 -0.125,0.375 C 3.078125,-0.296875 2.65625,-0.125 2.3125,-0.125 c -0.390625,0 -0.75,-0.21875 -0.984375,-0.59375 -0.234375,-0.390625 -0.25,-0.90625 -0.25,-1.203125 0,-0.421875 0.046875,-0.890625 0.28125,-1.25 0.203125,-0.296875 0.5625,-0.5625 1.046875,-0.5625 0.375,0 0.734375,0.1875 0.96875,0.53125 0.109375,0.140625 0.109375,0.140625 0.109375,0.3125 z M 3.515625,-3.4375 C 3.46875,-3.484375 3.0625,-3.96875 2.375,-3.96875 c -1.109375,0 -2.0625,0.890625 -2.0625,2.046875 0,1.109375 0.890625,2.015625 1.953125,2.015625 0.65625,0 1.0625,-0.375 1.21875,-0.5625 v 0.5625 L 4.84375,0 v -0.28125 c -0.609375,0 -0.6875,-0.0625 -0.6875,-0.5 v -5.4375 L 2.828125,-6.125 v 0.28125 c 0.609375,0 0.6875,0.0625 0.6875,0.5 z m 0,0"
             id="path4" />
        </g>
      </g>
      <g
         fill="#000000"
         fill-opacity="1"
         id="g4"
         transform="matrix(0.352778,0,0,0.352778,-0.813329,-0.705644)">
        <g
           id="use3"
           transform="translate(7.112,8.2189999)">
          <path
             d="m 2.078125,-6.21875 -1.609375,0.0625 v 0.4375 c 0.53125,0 0.609375,0 0.609375,0.359375 V -0.4375 H 0.46875 V 0 c 0.609375,-0.03125 0.71875,-0.03125 1.09375,-0.03125 0.40625,0 0.640625,0.015625 1.125,0.03125 V -0.4375 H 2.078125 Z m 0,0"
             id="path5" />
        </g>
      </g>
    </g>
    <path
       style="fill:#000000;fill-opacity:0.992157;stroke:#000000;stroke-width:0.264;stroke-linecap:round;stroke-linejoin:round;stroke-dasharray:none;marker-end:url(#Triangle)"
       d="M 18.713137,24.015158 8.4331014,18.115311"
       id="path6"
       sodipodi:nodetypes="cc" />
    <g
       inkscape:label=""
       transform="translate(28.508641,14.107625)"
       id="g6">
      <g
         fill="#000000"
         fill-opacity="1"
         id="g2-1"
         transform="matrix(0.352778,0,0,0.352778,-0.813329,-0.703439)">
        <g
           id="use1-1"
           transform="translate(1.993,8.1190004)">
          <path
             d="M 2.515625,-0.765625 C 2.5625,-1.125 2.625,-1.90625 2.625,-2.65625 c 0,-0.640625 0,-3.46875 -1.6875,-3.46875 -0.328125,0 -0.625,0.28125 -0.625,0.390625 0,0.0625 0.03125,0.0625 0.09375,0.0625 0.28125,0.03125 0.90625,0.078125 1.265625,1.171875 0.21875,0.6875 0.265625,1.515625 0.265625,2.171875 0,0.78125 -0.078125,1.828125 -0.203125,2.484375 0,0.046875 -0.015625,0.078125 -0.015625,0.125 0,0.015625 0.015625,0.125 0.078125,0.125 0.0625,0 2.53125,-1.75 3.703125,-3.75 0.265625,-0.453125 0.578125,-1.1875 0.578125,-1.734375 C 6.078125,-5.78125 5.59375,-6.125 5.1875,-6.125 c -0.265625,0 -0.390625,0.578125 -0.390625,0.703125 0,0.125 0.03125,0.125 0.125,0.140625 0.640625,0.078125 0.75,0.5625 0.75,0.765625 0,0.578125 -1.171875,2.203125 -3.15625,3.75 z m 0,0"
             id="path2-1-1" />
        </g>
      </g>
    </g>
    <g
       inkscape:label=""
       transform="translate(0.75407602,0.77956263)"
       id="g7">
      <g
         fill="#000000"
         fill-opacity="1"
         id="g3-1-1"
         transform="matrix(0.352778,0,0,0.352778,-0.813329,-0.705997)">
        <g
           id="use2-1"
           transform="translate(1.993,8.2200003)">
          <path
             d="m 3.484375,-1.078125 c 0,0.15625 0,0.1875 -0.125,0.375 C 3.078125,-0.296875 2.65625,-0.125 2.3125,-0.125 c -0.390625,0 -0.75,-0.21875 -0.984375,-0.59375 -0.234375,-0.390625 -0.25,-0.90625 -0.25,-1.203125 0,-0.421875 0.046875,-0.890625 0.28125,-1.25 0.203125,-0.296875 0.5625,-0.5625 1.046875,-0.5625 0.375,0 0.734375,0.1875 0.96875,0.53125 0.109375,0.140625 0.109375,0.140625 0.109375,0.3125 z M 3.515625,-3.4375 C 3.46875,-3.484375 3.0625,-3.96875 2.375,-3.96875 c -1.109375,0 -2.0625,0.890625 -2.0625,2.046875 0,1.109375 0.890625,2.015625 1.953125,2.015625 0.65625,0 1.0625,-0.375 1.21875,-0.5625 v 0.5625 L 4.84375,0 v -0.28125 c -0.609375,0 -0.6875,-0.0625 -0.6875,-0.5 v -5.4375 L 2.828125,-6.125 v 0.28125 c 0.609375,0 0.6875,0.0625 0.6875,0.5 z m 0,0"
             id="path4-1" />
        </g>
      </g>
      <g
         fill="#000000"
         fill-opacity="1"
         id="g4-1"
         transform="matrix(0.352778,0,0,0.352778,-0.813329,-0.705997)">
        <g
           id="use3-1"
           transform="translate(7.112,8.2200003)">
          <path
             d="m 0.640625,0.5 c 0,0.421875 -0.0625,0.984375 -0.15625,1.296875 H 1.15625 c 0.09375,-0.1875 0.125,-0.40625 0.125,-1.03125 V -0.34375 c 0.421875,0.328125 0.78125,0.453125 1.25,0.453125 0.953125,0 1.625,-0.71875 1.625,-1.75 0,-0.859375 -0.4375,-1.46875 -1.3125,-1.84375 0.609375,-0.34375 0.890625,-0.703125 0.890625,-1.171875 0,-0.71875 -0.703125,-1.3125 -1.578125,-1.3125 -0.859375,0 -1.515625,0.578125 -1.515625,1.34375 z M 1.28125,-4.703125 c 0,-0.5625 0.34375,-0.96875 0.8125,-0.96875 0.515625,0 0.875,0.46875 0.875,1.109375 0,0.4375 -0.234375,0.890625 -0.4375,0.890625 -0.03125,0 -0.046875,0 -0.171875,-0.03125 -0.125,-0.015625 -0.1875,-0.03125 -0.25,-0.03125 -0.203125,0 -0.359375,0.125 -0.359375,0.28125 0,0.15625 0.15625,0.25 0.359375,0.25 0.046875,0 0.09375,0 0.171875,-0.015625 C 2.375,-3.25 2.453125,-3.25 2.53125,-3.25 c 0.09375,0 0.15625,0.015625 0.203125,0.0625 0.359375,0.328125 0.578125,0.953125 0.578125,1.609375 0,0.796875 -0.359375,1.28125 -0.953125,1.28125 -0.40625,0 -0.796875,-0.1875 -1.078125,-0.5 z m 0,0"
             id="path5-1" />
        </g>
      </g>
    </g>
  </g>
</svg>
