<?xml version="1.0" encoding="UTF-8" standalone="no"?>
<!-- Created with Inkscape (http://www.inkscape.org/) -->

<svg
   width="37.041664mm"
   height="33.072914mm"
   viewBox="0 0 37.041664 33.072914"
   version="1.1"
   id="svg1"
   inkscape:version="1.4.3 (1:1.4.3+202512261035+0d15f75042)"
   sodipodi:docname="hall.svg"
   xmlns:inkscape="http://www.inkscape.org/namespaces/inkscape"
   xmlns:sodipodi="http://sodipodi.sourceforge.net/DTD/sodipodi-0.dtd"
   xmlns="http://www.w3.org/2000/svg"
   xmlns:svg="http://www.w3.org/2000/svg">
  <sodipodi:namedview
     id="namedview1"
     pagecolor="#ffffff"
     bordercolor="#000000"
     borderopacity="0.25"
     inkscape:showpageshadow="2"
     inkscape:pageopacity="0.0"
     inkscape:pagecheckerboard="0"
     inkscape:deskcolor="#d1d1d1"
     inkscape:document-units="mm"
     showgrid="true"
     inkscape:zoom="16"
     inkscape:cx="16.5"
     inkscape:cy="87.53125"
     inkscape:window-width="1854"
     inkscape:window-height="1131"
     inkscape:window-x="0"
     inkscape:window-y="0"
     inkscape:window-maximized="1"
     inkscape:current-layer="path6">
    <inkscape:grid
       id="grid2"
       units="mm"
       originx="6.6145835"
       originy="0"
       spacingx="0.26458333"
       spacingy="0.26458333"
       empcolor="#0099e5"
       empopacity="0.30196078"
       color="#0099e5"
       opacity="0.14901961"
       empspacing="5"
       enabled="true"
       visible="true" />
  </sodipodi:namedview>
  <defs
     id="defs1">
    <marker
       style="overflow:visible"
       id="Triangle"
       refX="0"
       refY="0"
       orient="auto-start-reverse"
       inkscape:stockid="Triangle arrow"
       markerWidth="1.61800003"
       markerHeight="1"
       viewBox="0 0 1 1"
       inkscape:isstock="true"
       inkscape:collect="always"
       preserveAspectRatio="none">
      <path
         transform="scale(0.5)"
         style="fill:context-stroke;fill-rule:evenodd;stroke:context-stroke;stroke-width:1pt"
         d="M 5.77,0 -2.88,5 V -5 Z"
         id="path135" />
    </marker>
    <clipPath
       clipPathUnits="userSpaceOnUse"
       id="clipPath57-1-4">
      <path
         d="M 0,0 H 147 V 97 H 0 Z"
         id="path57-0-7" />
    </clipPath>
    <g
       id="g7212">
      <g
         id="g8577">
        <path
           d="M 6.265625,-5.671875 C 6.75,-6.453125 7.171875,-6.484375 7.53125,-6.5 c 0.125,-0.015625 0.140625,-0.171875 0.140625,-0.1875 0,-0.078125 -0.0625,-0.125 -0.140625,-0.125 -0.25,0 -0.546875,0.03125 -0.8125,0.03125 -0.328125,0 -0.671875,-0.03125 -0.984375,-0.03125 -0.0625,0 -0.1875,0 -0.1875,0.1875 0,0.109375 0.078125,0.125 0.15625,0.125 0.265625,0.015625 0.453125,0.125 0.453125,0.328125 0,0.15625 -0.140625,0.375 -0.140625,0.375 l -3.0625,4.875 -0.6875,-5.28125 C 2.265625,-6.375 2.5,-6.5 2.953125,-6.5 c 0.140625,0 0.25,0 0.25,-0.203125 0,-0.078125 -0.078125,-0.109375 -0.125,-0.109375 -0.40625,0 -0.828125,0.03125 -1.25,0.03125 -0.171875,0 -0.359375,0 -0.546875,0 -0.171875,0 -0.359375,-0.03125 -0.53125,-0.03125 -0.078125,0 -0.1875,0 -0.1875,0.1875 0,0.125 0.078125,0.125 0.25,0.125 0.546875,0 0.5625,0.09375 0.59375,0.34375 L 2.1875,-0.015625 C 2.21875,0.1875 2.265625,0.21875 2.390625,0.21875 c 0.15625,0 0.203125,-0.046875 0.28125,-0.171875 z m 0,0"
           id="path2164" />
      </g>
    </g>
    <g
       id="g487">
      <g
         id="g3674">
        <path
           d="m 0.1875,-6.8125 v 0.296875 h 0.234375 c 0.21875,0 0.46875,0.015625 0.609375,0.140625 0.109375,0.125 0.15625,0.3125 0.21875,0.46875 0.578125,1.4375 1.109375,2.921875 1.65625,4.359375 L 3.5,0.03125 c 0.046875,0.125 0.09375,0.171875 0.234375,0.171875 0.140625,0 0.1875,-0.046875 0.234375,-0.171875 L 4.046875,-0.1875 C 4.75,-2.03125 5.453125,-3.875 6.140625,-5.6875 6.296875,-6.109375 6.5,-6.515625 7.28125,-6.515625 V -6.8125 H 5.171875 v 0.296875 c 0.296875,0 0.734375,0.140625 0.734375,0.5 v 0.03125 c -0.015625,0.078125 -0.046875,0.15625 -0.078125,0.21875 l -0.125,0.34375 c -0.15625,0.375 -0.296875,0.765625 -0.4375,1.140625 l -0.84375,2.21875 c -0.125,0.34375 -0.25,0.703125 -0.390625,1.046875 -0.15625,-0.375 -0.296875,-0.765625 -0.4375,-1.140625 -0.5,-1.296875 -1,-2.609375 -1.484375,-3.921875 C 2.078125,-6.125 2.078125,-6.171875 2.078125,-6.21875 V -6.25 C 2.125,-6.515625 2.59375,-6.515625 2.875,-6.515625 V -6.8125 Z m 0,0"
           id="path8426" />
      </g>
    </g>
    <g
       id="g7927">
      <g
         id="g5621">
        <path
           d="M 3.734375,-6.046875 C 3.8125,-6.40625 3.84375,-6.5 4.640625,-6.5 c 0.234375,0 0.3125,0 0.3125,-0.1875 0,-0.125 -0.109375,-0.125 -0.140625,-0.125 -0.296875,0 -1.03125,0.03125 -1.328125,0.03125 -0.296875,0 -1.015625,-0.03125 -1.328125,-0.03125 -0.0625,0 -0.1875,0 -0.1875,0.203125 C 1.96875,-6.5 2.046875,-6.5 2.25,-6.5 c 0.40625,0 0.6875,0 0.6875,0.1875 0,0.046875 0,0.078125 -0.03125,0.15625 l -1.34375,5.375 c -0.09375,0.375 -0.109375,0.46875 -0.90625,0.46875 -0.234375,0 -0.3125,0 -0.3125,0.203125 C 0.34375,0 0.453125,0 0.484375,0 0.78125,0 1.5,-0.03125 1.796875,-0.03125 2.09375,-0.03125 2.828125,0 3.125,0 c 0.078125,0 0.203125,0 0.203125,-0.1875 0,-0.125 -0.078125,-0.125 -0.296875,-0.125 -0.1875,0 -0.234375,0 -0.421875,-0.015625 -0.21875,-0.015625 -0.25,-0.0625 -0.25,-0.171875 0,-0.078125 0.015625,-0.15625 0.03125,-0.234375 z m 0,0"
           id="path482" />
      </g>
    </g>
    <g
       id="g4001">
      <g
         id="g9260">
        <path
           d="M 2.765625,-3.734375 V -6.375 h 1.8125 c 1.015625,0 1.1875,0.796875 1.1875,1.25 0,0.765625 -0.46875,1.390625 -1.4375,1.390625 z M 5.46875,-3.5625 C 6.546875,-3.765625 7.1875,-4.359375 7.1875,-5.125 c 0,-0.921875 -0.875,-1.71875 -2.46875,-1.71875 H 0.390625 V -6.375 H 1.46875 v 5.90625 H 0.390625 V 0 h 4.625 C 6.671875,0 7.5,-0.875 7.5,-1.859375 7.5,-2.8125 6.65625,-3.484375 5.46875,-3.5625 Z M 4.609375,-0.46875 H 2.765625 V -3.375 h 1.9375 c 0.203125,0 0.671875,0 1.015625,0.421875 0.328125,0.421875 0.328125,0.984375 0.328125,1.09375 0,0.109375 0,1.390625 -1.4375,1.390625 z m 0,0"
           id="path6709" />
      </g>
    </g>
    <g
       id="g1931">
      <g
         id="g7191">
        <path
           d="M 3.71875,-3.765625 C 3.53125,-4.140625 3.25,-4.40625 2.796875,-4.40625 c -1.15625,0 -2.390625,1.46875 -2.390625,2.921875 0,0.9375 0.546875,1.59375 1.3125,1.59375 0.203125,0 0.703125,-0.046875 1.296875,-0.75 0.078125,0.421875 0.4375,0.75 0.90625,0.75 0.359375,0 0.578125,-0.234375 0.75,-0.546875 0.15625,-0.359375 0.296875,-0.96875 0.296875,-0.984375 0,-0.109375 -0.09375,-0.109375 -0.125,-0.109375 -0.09375,0 -0.109375,0.046875 -0.140625,0.1875 -0.171875,0.640625 -0.34375,1.234375 -0.75,1.234375 -0.28125,0 -0.296875,-0.265625 -0.296875,-0.453125 0,-0.21875 0.015625,-0.3125 0.125,-0.75 C 3.890625,-1.71875 3.90625,-1.828125 4,-2.203125 L 4.359375,-3.59375 c 0.0625,-0.28125 0.0625,-0.296875 0.0625,-0.34375 0,-0.171875 -0.109375,-0.265625 -0.28125,-0.265625 -0.25,0 -0.390625,0.21875 -0.421875,0.4375 z M 3.078125,-1.1875 C 3.015625,-1 3.015625,-0.984375 2.875,-0.8125 2.4375,-0.265625 2.03125,-0.109375 1.75,-0.109375 c -0.5,0 -0.640625,-0.546875 -0.640625,-0.9375 0,-0.5 0.3125,-1.71875 0.546875,-2.1875 0.3125,-0.578125 0.75,-0.953125 1.15625,-0.953125 0.640625,0 0.78125,0.8125 0.78125,0.875 0,0.0625 -0.015625,0.125 -0.03125,0.171875 z m 0,0"
           id="path3977" />
      </g>
    </g>
    <g
       id="g1910">
      <g
         id="g8783">
        <path
           d="m 1.34375,-0.40625 c 0.234375,0.328125 0.609375,0.515625 1.046875,0.515625 1.078125,0 2,-1.15625 2,-2.5 0,-1.28125 -0.8125,-2.203125 -1.9375,-2.203125 -0.296875,0 -0.484375,0.03125 -0.703125,0.15625 -0.34375,0.1875 -0.640625,0.453125 -0.875,0.75 -0.25,0.3125 -0.34375,0.609375 -0.34375,1.25 v 3.515625 c 0,0.359375 -0.015625,0.5625 -0.078125,0.890625 h 0.84375 C 1.34375,1.671875 1.34375,1.65625 1.34375,0.9375 Z M 1.296875,-2.890625 v -0.125 c 0,-0.34375 0.046875,-0.546875 0.203125,-0.765625 0.15625,-0.1875 0.3125,-0.28125 0.515625,-0.28125 0.84375,0 1.546875,0.984375 1.546875,2.109375 0,0.96875 -0.5,1.625 -1.234375,1.625 -0.359375,0 -0.734375,-0.25 -0.90625,-0.609375 -0.0625,-0.109375 -0.0625,-0.171875 -0.078125,-0.453125 z m 0,0"
           id="path4084" />
      </g>
    </g>
    <g
       id="g6439">
      <g
         id="g5533">
        <path
           d="m 0.15625,-0.984375 c -0.015625,0.03125 -0.046875,0.0625 -0.046875,0.09375 0,0.046875 0.0625,0.140625 0.125,0.140625 C 0.28125,-0.75 0.3125,-0.78125 0.59375,-1.0625 0.671875,-1.140625 0.875,-1.328125 0.953125,-1.40625 1.046875,-0.625 1.328125,0.125 2.0625,0.125 c 0.40625,0 0.75,-0.234375 0.953125,-0.390625 C 3.15625,-0.359375 3.625,-0.75 3.625,-0.84375 c 0,-0.03125 -0.03125,-0.125 -0.109375,-0.125 -0.03125,0 -0.046875,0.015625 -0.140625,0.09375 -0.640625,0.625 -1,0.78125 -1.296875,0.78125 -0.4375,0 -0.609375,-0.53125 -0.609375,-1.296875 0,-0.0625 0.03125,-0.515625 0.0625,-0.578125 C 1.546875,-2 1.546875,-2.015625 1.75,-2.21875 2.546875,-3.015625 3.96875,-4.703125 3.96875,-6.25 c 0,-0.171875 0,-0.78125 -0.59375,-0.78125 -0.828125,0 -1.5625,1.640625 -1.65625,1.875 -0.484375,1.09375 -0.796875,2.25 -0.796875,3.4375 z M 1.578125,-2.375 C 1.59375,-2.5 2.03125,-4.703125 2.59375,-5.875 c 0.265625,-0.53125 0.484375,-0.9375 0.796875,-0.9375 0.34375,0 0.34375,0.359375 0.34375,0.515625 0,1.671875 -1.6875,3.421875 -2.15625,3.921875 z m 0,0"
           id="path7160" />
      </g>
    </g>
  </defs>
  <g
     inkscape:label="Layer 1"
     inkscape:groupmode="layer"
     id="layer1"
     transform="translate(6.61458, 0)">
    <rect
       style="fill:none;fill-opacity:0.992157;stroke:#000000;stroke-width:0.198437;stroke-linecap:round;stroke-linejoin:round;stroke-dasharray:none"
       id="rect2"
       width="13.667313"
       height="0.99320996"
       x="-3.8655427"
       y="25.91547"
       ry="0.023273969" />
    <path
       style="fill:none;fill-opacity:0.992157;stroke:#000000;stroke-width:0.198437;stroke-linecap:round;stroke-linejoin:round;stroke-dasharray:none"
       d="M -3.8655426,25.91547 15.998668,12.010522"
       id="path2" />
    <path
       style="fill:none;fill-opacity:0.992157;stroke:#000000;stroke-width:0.198437;stroke-linecap:round;stroke-linejoin:round;stroke-dasharray:none"
       d="M 9.8407624,25.91547 29.704972,12.010522"
       id="path3" />
    <path
       style="fill:none;fill-opacity:0.992157;stroke:#000000;stroke-width:0.198437;stroke-linecap:round;stroke-linejoin:round;stroke-dasharray:none"
       d="M 9.8017704,26.90868 29.704972,12.98356"
       id="path4"
       sodipodi:nodetypes="cc" />
    <path
       style="fill:none;fill-opacity:0.992157;stroke:#000000;stroke-width:0.198437;stroke-linecap:round;stroke-linejoin:round;stroke-dasharray:none"
       d="M 15.998667,11.915857 H 29.704972 V 12.98356"
       id="path5"
       sodipodi:nodetypes="ccc" />
    <g
       id="path6"
       style="opacity:1">
      <path
         style="fill:none;fill-opacity:0.992157;stroke:#000000;stroke-width:0.264583;stroke-linecap:round;stroke-linejoin:round;stroke-dasharray:none"
         d="M 7.3329054,18.044277 H 3.9559896 V 5.1325415 H 12.69624"
         id="path10"
         sodipodi:nodetypes="cccc" />
      <path
         id="path1-03"
         d="m 16.768404,8.3108145 c 1.755281,0 3.178274,-1.422993 3.178274,-3.178273 0,-1.7553085 -1.422993,-3.1782747 -3.178274,-3.1782747 -1.755282,0 -3.178274,1.4229662 -3.178274,3.1782747 0,1.75528 1.422992,3.178273 3.178274,3.178273"
         style="fill:none;stroke:#000000;stroke-width:0.198642;stroke-linecap:round;stroke-linejoin:bevel;stroke-miterlimit:6;stroke-dasharray:none;stroke-opacity:1" />
      <path
         id="path2-6"
         d="M 27.79304,5.1325415 H 19.946678"
         style="fill:none;stroke:#000000;stroke-width:0.198642;stroke-linecap:round;stroke-linejoin:bevel;stroke-miterlimit:6;stroke-dasharray:none;stroke-opacity:1"
         sodipodi:nodetypes="cc" />
      <path
         id="path5-6"
         d="m 11.757909,5.1325415 h 1.787779"
         style="fill:none;stroke:#000000;stroke-width:0.264583;stroke-linecap:round;stroke-linejoin:bevel;stroke-miterlimit:6;stroke-dasharray:none;stroke-opacity:1"
         sodipodi:nodetypes="cc" />
      <g
         id="g58-5-3"
         transform="matrix(0,0.1986421,-0.1986421,0,31.236169,-3.1920192)">
        <path
           d="m 18.883,38.945 h -0.832 v 3.598 H 14.48 v 0.832 h 3.571 v 3.582 h 0.832 v -3.582 h 3.57 v -0.832 h -3.57 z"
           style="fill:#000000;fill-opacity:1;fill-rule:nonzero;stroke:none"
           transform="matrix(1.2217524,0,0,1.2217524,2.8458369,4.3491686)"
           clip-path="url(#clipPath57-1-4)"
           id="path58-9" />
      </g>
      <path
         style="fill:none;fill-opacity:0.992157;stroke:#000000;stroke-width:0.264583;stroke-linecap:round;stroke-linejoin:round;stroke-dasharray:none"
         d="m 21.10895,18.027737 h 6.68409 V 5.1325415"
         id="path11" />
      <g
         inkscape:label=""
         transform="matrix(0.99999863,0,0,0.99999863,15.555298,4.0073353)"
         id="g11"
         style="fill:#000000;fill-opacity:1">
        <g
           fill="#000000"
           fill-opacity="1"
           id="g2-1"
           transform="matrix(0.352778,0,0,0.352778,-0.769232,-0.663046)">
          <g
             id="use1-1"
             transform="translate(1.993,8.6920004)">
            <path
               d="m 0.1875,-6.8125 v 0.296875 h 0.234375 c 0.21875,0 0.46875,0.015625 0.609375,0.140625 0.109375,0.125 0.15625,0.3125 0.21875,0.46875 0.578125,1.4375 1.109375,2.921875 1.65625,4.359375 L 3.5,0.03125 c 0.046875,0.125 0.09375,0.171875 0.234375,0.171875 0.140625,0 0.1875,-0.046875 0.234375,-0.171875 L 4.046875,-0.1875 C 4.75,-2.03125 5.453125,-3.875 6.140625,-5.6875 6.296875,-6.109375 6.5,-6.515625 7.28125,-6.515625 V -6.8125 H 5.171875 v 0.296875 c 0.296875,0 0.734375,0.140625 0.734375,0.5 v 0.03125 c -0.015625,0.078125 -0.046875,0.15625 -0.078125,0.21875 l -0.125,0.34375 c -0.15625,0.375 -0.296875,0.765625 -0.4375,1.140625 l -0.84375,2.21875 c -0.125,0.34375 -0.25,0.703125 -0.390625,1.046875 -0.15625,-0.375 -0.296875,-0.765625 -0.4375,-1.140625 -0.5,-1.296875 -1,-2.609375 -1.484375,-3.921875 C 2.078125,-6.125 2.078125,-6.171875 2.078125,-6.21875 V -6.25 C 2.125,-6.515625 2.59375,-6.515625 2.875,-6.515625 V -6.8125 Z m 0,0"
               id="path2-1-1" />
          </g>
        </g>
      </g>
      <path
         style="fill:none;fill-opacity:0.992157;stroke:#000000;stroke-width:0.264583;stroke-linecap:round;stroke-linejoin:round;stroke-dasharray:none;marker-end:url(#Triangle)"
         d="M -4.2112813,32.10829 0.35278124,28.668704"
         id="path12" />
      <g
         inkscape:label=""
         transform="matrix(0.99999863,0,0,0.99999863,2.017451,28.91124)"
         id="g12"
         style="fill:#000000;fill-opacity:1">
        <g
           fill="#000000"
           fill-opacity="1"
           id="g2-1-1"
           transform="matrix(0.352778,0,0,0.352778,-0.824353,-0.701146)">
          <g
             id="use1"
             transform="translate(1.993,8.8000002)">
            <path
               d="M 3.734375,-6.046875 C 3.8125,-6.40625 3.84375,-6.5 4.640625,-6.5 c 0.234375,0 0.3125,0 0.3125,-0.1875 0,-0.125 -0.109375,-0.125 -0.140625,-0.125 -0.296875,0 -1.03125,0.03125 -1.328125,0.03125 -0.296875,0 -1.015625,-0.03125 -1.328125,-0.03125 -0.0625,0 -0.1875,0 -0.1875,0.203125 C 1.96875,-6.5 2.046875,-6.5 2.25,-6.5 c 0.40625,0 0.6875,0 0.6875,0.1875 0,0.046875 0,0.078125 -0.03125,0.15625 l -1.34375,5.375 c -0.09375,0.375 -0.109375,0.46875 -0.90625,0.46875 -0.234375,0 -0.3125,0 -0.3125,0.203125 C 0.34375,0 0.453125,0 0.484375,0 0.78125,0 1.5,-0.03125 1.796875,-0.03125 2.09375,-0.03125 2.828125,0 3.125,0 c 0.078125,0 0.203125,0 0.203125,-0.1875 0,-0.125 -0.078125,-0.125 -0.296875,-0.125 -0.1875,0 -0.234375,0 -0.421875,-0.015625 -0.21875,-0.015625 -0.25,-0.0625 -0.25,-0.171875 0,-0.078125 0.015625,-0.15625 0.03125,-0.234375 z m 0,0"
               id="path2-1" />
          </g>
        </g>
      </g>
      <path
         style="fill:none;fill-opacity:0.992157;stroke:#000000;stroke-width:0.3175;stroke-linecap:round;stroke-linejoin:round;stroke-dasharray:none;marker-end:url(#Triangle)"
         d="M 13.581947,18.085371 V 11.317176"
         id="path13"
         sodipodi:nodetypes="cc" />
      <g
         inkscape:label=""
         transform="matrix(0.99999863,0,0,0.99999863,8.77535,9.982507)"
         id="g13"
         style="fill:#000000;fill-opacity:1">
        <g
           fill="#000000"
           fill-opacity="1"
           id="g2-1-1-1"
           transform="matrix(0.352778,0,0,0.352778,-0.84089,-0.699999)">
          <g
             id="use1-1-1"
             transform="translate(1.993,8.8280001)">
            <path
               d="M 2.765625,-3.734375 V -6.375 h 1.8125 c 1.015625,0 1.1875,0.796875 1.1875,1.25 0,0.765625 -0.46875,1.390625 -1.4375,1.390625 z M 5.46875,-3.5625 C 6.546875,-3.765625 7.1875,-4.359375 7.1875,-5.125 c 0,-0.921875 -0.875,-1.71875 -2.46875,-1.71875 H 0.390625 V -6.375 H 1.46875 v 5.90625 H 0.390625 V 0 h 4.625 C 6.671875,0 7.5,-0.875 7.5,-1.859375 7.5,-2.8125 6.65625,-3.484375 5.46875,-3.5625 Z M 4.609375,-0.46875 H 2.765625 V -3.375 h 1.9375 c 0.203125,0 0.671875,0 1.015625,0.421875 0.328125,0.421875 0.328125,0.984375 0.328125,1.09375 0,0.109375 0,1.390625 -1.4375,1.390625 z m 0,0"
               id="path2-1-1-1" />
          </g>
        </g>
      </g>
      <path
         style="fill:none;fill-opacity:0.992157;stroke:#000000;stroke-width:0.185208;stroke-linecap:round;stroke-linejoin:round;stroke-dasharray:none;marker-start:url(#Triangle);marker-end:url(#Triangle)"
         d="M -2.3261246,22.054121 H 8.5548637"
         id="path14"
         sodipodi:nodetypes="cc" />
      <path
         style="fill:none;fill-opacity:0.992157;stroke:#000000;stroke-width:0.132292;stroke-linecap:round;stroke-linejoin:round;stroke-dasharray:0.396875, 0.396875;stroke-dashoffset:0"
         d="M -3.8805516,26.022871 V 20.995787"
         id="path15" />
      <path
         style="fill:none;fill-opacity:0.992157;stroke:#000000;stroke-width:0.132292;stroke-linecap:round;stroke-linejoin:round;stroke-dasharray:0.396875, 0.396875;stroke-dashoffset:0"
         d="M 9.8076895,26.022871 V 20.995787"
         id="path16" />
      <g
         inkscape:label=""
         transform="matrix(0.99999863,0,0,0.99999863,-5.9531211,21.66276)"
         id="g16"
         style="fill:#000000;fill-opacity:1">
        <g
           fill="#000000"
           fill-opacity="1"
           id="g2-1-1-1-1"
           transform="matrix(0.352778,0,0,0.352778,-0.846402,-0.661723)">
          <g
             id="use1-1-1-1"
             transform="translate(1.993,6.2820001)">
            <path
               d="M 3.71875,-3.765625 C 3.53125,-4.140625 3.25,-4.40625 2.796875,-4.40625 c -1.15625,0 -2.390625,1.46875 -2.390625,2.921875 0,0.9375 0.546875,1.59375 1.3125,1.59375 0.203125,0 0.703125,-0.046875 1.296875,-0.75 0.078125,0.421875 0.4375,0.75 0.90625,0.75 0.359375,0 0.578125,-0.234375 0.75,-0.546875 0.15625,-0.359375 0.296875,-0.96875 0.296875,-0.984375 0,-0.109375 -0.09375,-0.109375 -0.125,-0.109375 -0.09375,0 -0.109375,0.046875 -0.140625,0.1875 -0.171875,0.640625 -0.34375,1.234375 -0.75,1.234375 -0.28125,0 -0.296875,-0.265625 -0.296875,-0.453125 0,-0.21875 0.015625,-0.3125 0.125,-0.75 C 3.890625,-1.71875 3.90625,-1.828125 4,-2.203125 L 4.359375,-3.59375 c 0.0625,-0.28125 0.0625,-0.296875 0.0625,-0.34375 0,-0.171875 -0.109375,-0.265625 -0.28125,-0.265625 -0.25,0 -0.390625,0.21875 -0.421875,0.4375 z M 3.078125,-1.1875 C 3.015625,-1 3.015625,-0.984375 2.875,-0.8125 2.4375,-0.265625 2.03125,-0.109375 1.75,-0.109375 c -0.5,0 -0.640625,-0.546875 -0.640625,-0.9375 0,-0.5 0.3125,-1.71875 0.546875,-2.1875 0.3125,-0.578125 0.75,-0.953125 1.15625,-0.953125 0.640625,0 0.78125,0.8125 0.78125,0.875 0,0.0625 -0.015625,0.125 -0.03125,0.171875 z m 0,0"
               id="path2-1-1-1-1" />
          </g>
        </g>
      </g>
      <g
         inkscape:label=""
         transform="translate(18.746832,13.620528)"
         id="g1">
        <g
           fill="#000000"
           fill-opacity="1"
           id="g2-1-1-1-1-1"
           transform="matrix(0.352778,0,0,0.352778,-0.862939,-0.676363)">
          <g
             id="use1-1-1-1-1"
             transform="translate(1.993,6.5110002)">
            <path
               d="m 1.34375,-0.40625 c 0.234375,0.328125 0.609375,0.515625 1.046875,0.515625 1.078125,0 2,-1.15625 2,-2.5 0,-1.28125 -0.8125,-2.203125 -1.9375,-2.203125 -0.296875,0 -0.484375,0.03125 -0.703125,0.15625 -0.34375,0.1875 -0.640625,0.453125 -0.875,0.75 -0.25,0.3125 -0.34375,0.609375 -0.34375,1.25 v 3.515625 c 0,0.359375 -0.015625,0.5625 -0.078125,0.890625 h 0.84375 C 1.34375,1.671875 1.34375,1.65625 1.34375,0.9375 Z M 1.296875,-2.890625 v -0.125 c 0,-0.34375 0.046875,-0.546875 0.203125,-0.765625 0.15625,-0.1875 0.3125,-0.28125 0.515625,-0.28125 0.84375,0 1.546875,0.984375 1.546875,2.109375 0,0.96875 -0.5,1.625 -1.234375,1.625 -0.359375,0 -0.734375,-0.25 -0.90625,-0.609375 -0.0625,-0.109375 -0.0625,-0.171875 -0.078125,-0.453125 z m 0,0"
               id="path2-1-1-1-1-1" />
          </g>
        </g>
      </g>
      <path
         style="fill:none;fill-opacity:0.992157;stroke:#000000;stroke-width:0.132292;stroke-linecap:round;stroke-linejoin:round;stroke-dasharray:none;marker-end:url(#Triangle)"
         d="m -5.291663,24.001938 v 1.208623"
         id="path1"
         sodipodi:nodetypes="cc" />
      <path
         style="fill:none;fill-opacity:0.992157;stroke:#000000;stroke-width:0.132292;stroke-linecap:round;stroke-linejoin:round;stroke-dasharray:none;marker-end:url(#Triangle)"
         d="M -5.291663,28.989872 V 27.781249"
         id="path7"
         sodipodi:nodetypes="cc" />
      <g
         inkscape:label=""
         transform="translate(-0.03858287,18.917707)"
         id="g7">
        <g
           fill="#000000"
           fill-opacity="1"
           id="g2-1-1-1-1-1-1"
           transform="matrix(0.352778,0,0,0.352778,-0.741671,-0.663134)">
          <g
             id="use1-1-1-1-1-1"
             transform="translate(1.993,8.9110003)">
            <path
               d="m 0.15625,-0.984375 c -0.015625,0.03125 -0.046875,0.0625 -0.046875,0.09375 0,0.046875 0.0625,0.140625 0.125,0.140625 C 0.28125,-0.75 0.3125,-0.78125 0.59375,-1.0625 0.671875,-1.140625 0.875,-1.328125 0.953125,-1.40625 1.046875,-0.625 1.328125,0.125 2.0625,0.125 c 0.40625,0 0.75,-0.234375 0.953125,-0.390625 C 3.15625,-0.359375 3.625,-0.75 3.625,-0.84375 c 0,-0.03125 -0.03125,-0.125 -0.109375,-0.125 -0.03125,0 -0.046875,0.015625 -0.140625,0.09375 -0.640625,0.625 -1,0.78125 -1.296875,0.78125 -0.4375,0 -0.609375,-0.53125 -0.609375,-1.296875 0,-0.0625 0.03125,-0.515625 0.0625,-0.578125 C 1.546875,-2 1.546875,-2.015625 1.75,-2.21875 2.546875,-3.015625 3.96875,-4.703125 3.96875,-6.25 c 0,-0.171875 0,-0.78125 -0.59375,-0.78125 -0.828125,0 -1.5625,1.640625 -1.65625,1.875 -0.484375,1.09375 -0.796875,2.25 -0.796875,3.4375 z M 1.578125,-2.375 C 1.59375,-2.5 2.03125,-4.703125 2.59375,-5.875 c 0.265625,-0.53125 0.484375,-0.9375 0.796875,-0.9375 0.34375,0 0.34375,0.359375 0.34375,0.515625 0,1.671875 -1.6875,3.421875 -2.15625,3.921875 z m 0,0"
               id="path2-1-1-1-1-1-1" />
          </g>
        </g>
      </g>
    </g>
  </g>
</svg>
