<?xml version="1.0" encoding="UTF-8" standalone="no"?>
<!-- Created with Inkscape (http://www.inkscape.org/) -->

<svg
   width="44.449997mm"
   height="43.656254mm"
   viewBox="0 0 44.449998 43.656253"
   version="1.1"
   id="svg1"
   inkscape:version="1.4.3 (1:1.4.3+202512261035+0d15f75042)"
   sodipodi:docname="noninv_amp.svg"
   xmlns:inkscape="http://www.inkscape.org/namespaces/inkscape"
   xmlns:sodipodi="http://sodipodi.sourceforge.net/DTD/sodipodi-0.dtd"
   xmlns="http://www.w3.org/2000/svg"
   xmlns:svg="http://www.w3.org/2000/svg">
  <sodipodi:namedview
     id="namedview1"
     pagecolor="#ffffff"
     bordercolor="#000000"
     borderopacity="0.25"
     inkscape:showpageshadow="2"
     inkscape:pageopacity="0.0"
     inkscape:pagecheckerboard="0"
     inkscape:deskcolor="#d1d1d1"
     inkscape:document-units="mm"
     showgrid="true"
     inkscape:zoom="2.2198669"
     inkscape:cx="38.515823"
     inkscape:cy="94.825505"
     inkscape:window-width="1854"
     inkscape:window-height="1131"
     inkscape:window-x="0"
     inkscape:window-y="0"
     inkscape:window-maximized="1"
     inkscape:current-layer="layer1">
    <inkscape:grid
       id="grid1"
       units="mm"
       originx="-3.1749997"
       originy="-1.3229166"
       spacingx="0.26458333"
       spacingy="0.26458334"
       empcolor="#0099e5"
       empopacity="0.30196078"
       color="#0099e5"
       opacity="0.14901961"
       empspacing="5"
       enabled="true"
       visible="true" />
  </sodipodi:namedview>
  <defs
     id="defs1">
    <clipPath
       clipPathUnits="userSpaceOnUse"
       id="clipPath1">
      <path
         d="M 0,0 H 178 V 169 H 0 Z"
         transform="scale(1.0024791,-1)"
         id="path1" />
    </clipPath>
    <clipPath
       clipPathUnits="userSpaceOnUse"
       id="clipPath3">
      <path
         d="M 0,0 H 178 V 169 H 0 Z"
         id="path3-5" />
    </clipPath>
    <clipPath
       clipPathUnits="userSpaceOnUse"
       id="clipPath13">
      <path
         d="M 0,0 H 178 V 169 H 0 Z"
         transform="scale(1.0024791,-1)"
         id="path13" />
    </clipPath>
    <clipPath
       clipPathUnits="userSpaceOnUse"
       id="clipPath37">
      <path
         d="M 0,0 H 178 V 169 H 0 Z"
         transform="scale(1.0024791,-1)"
         id="path37" />
    </clipPath>
    <clipPath
       clipPathUnits="userSpaceOnUse"
       id="clipPath47">
      <path
         d="M 0,0 H 178 V 169 H 0 Z"
         transform="scale(1.0024791,-1)"
         id="path47" />
    </clipPath>
    <clipPath
       clipPathUnits="userSpaceOnUse"
       id="clipPath5">
      <path
         d="M 0,0 H 178 V 169 H 0 Z"
         transform="scale(1.0024791,-1)"
         id="path5" />
    </clipPath>
    <clipPath
       clipPathUnits="userSpaceOnUse"
       id="clipPath7">
      <path
         d="M 0,0 H 178 V 169 H 0 Z"
         transform="scale(1.0024791,-1)"
         id="path7" />
    </clipPath>
    <clipPath
       clipPathUnits="userSpaceOnUse"
       id="clipPath9">
      <path
         d="M 0,0 H 178 V 169 H 0 Z"
         transform="scale(1.0024791,-1)"
         id="path9" />
    </clipPath>
    <clipPath
       clipPathUnits="userSpaceOnUse"
       id="clipPath31">
      <path
         d="M 0,0 H 178 V 169 H 0 Z"
         transform="scale(1.0024791,-1)"
         id="path31" />
    </clipPath>
    <clipPath
       clipPathUnits="userSpaceOnUse"
       id="clipPath33-7">
      <path
         d="M 0,0 H 178 V 169 H 0 Z"
         transform="scale(1.0024791,-1)"
         id="path33-0" />
    </clipPath>
    <clipPath
       clipPathUnits="userSpaceOnUse"
       id="clipPath35-9">
      <path
         d="M 0,0 H 178 V 169 H 0 Z"
         transform="scale(1.0024791,-1)"
         id="path35-3" />
    </clipPath>
    <clipPath
       clipPathUnits="userSpaceOnUse"
       id="clipPath41">
      <path
         d="M 0,0 H 178 V 169 H 0 Z"
         id="path41" />
    </clipPath>
    <clipPath
       clipPathUnits="userSpaceOnUse"
       id="clipPath59">
      <path
         d="M 0,0 H 178 V 169 H 0 Z"
         transform="scale(1.0024791,-1)"
         id="path59" />
    </clipPath>
    <clipPath
       clipPathUnits="userSpaceOnUse"
       id="clipPath61">
      <path
         d="M 0,0 H 178 V 169 H 0 Z"
         transform="scale(1.0024791,-1)"
         id="path61" />
    </clipPath>
    <clipPath
       clipPathUnits="userSpaceOnUse"
       id="clipPath41-7">
      <path
         d="M 0,0 H 178 V 169 H 0 Z"
         id="path41-9" />
    </clipPath>
    <clipPath
       clipPathUnits="userSpaceOnUse"
       id="clipPath61-2">
      <path
         d="M 0,0 H 178 V 169 H 0 Z"
         transform="scale(1.0024791,-1)"
         id="path61-0" />
    </clipPath>
    <clipPath
       clipPathUnits="userSpaceOnUse"
       id="clipPath59-2">
      <path
         d="M 0,0 H 178 V 169 H 0 Z"
         transform="scale(1.0024791,-1)"
         id="path59-3" />
    </clipPath>
    <clipPath
       clipPathUnits="userSpaceOnUse"
       id="clipPath59-2-8">
      <path
         d="M 0,0 H 178 V 169 H 0 Z"
         transform="scale(1.0024791,-1)"
         id="path59-3-9" />
    </clipPath>
    <g
       id="g1491">
      <g
         id="g5491">
        <path
           d="m 4.3125,-3.3125 c 0,-0.625 -0.328125,-0.65625 -0.40625,-0.65625 -0.234375,0 -0.46875,0.234375 -0.46875,0.4375 0,0.140625 0.09375,0.21875 0.15625,0.265625 0.234375,0.21875 0.3125,0.515625 0.3125,0.75 0,0.390625 -0.5625,2.390625 -1.59375,2.390625 -0.6875,0 -0.6875,-0.625 -0.6875,-0.796875 0,-0.375 0.140625,-0.84375 0.453125,-1.65625 0.140625,-0.375 0.171875,-0.46875 0.171875,-0.625 0,-0.453125 -0.328125,-0.765625 -0.765625,-0.765625 -0.859375,0 -1.21875,1.28125 -1.21875,1.390625 0,0.078125 0.0625,0.109375 0.125,0.109375 0.09375,0 0.109375,-0.0625 0.140625,-0.171875 0.1875,-0.65625 0.546875,-1.09375 0.921875,-1.09375 0.171875,0 0.21875,0.109375 0.21875,0.296875 0,0.140625 -0.046875,0.3125 -0.125,0.515625 -0.3125,0.875 -0.53125,1.4375 -0.53125,1.890625 0,0.84375 0.640625,1.125 1.25,1.125 1.515625,0 2.046875,-2.828125 2.046875,-3.40625 z m 0,0"
           id="path6717" />
      </g>
      <g
         id="g7226">
        <path
           d="m 4.328125,-3.421875 c 0,-0.15625 0,-0.4375 0.640625,-0.4375 V -4.09375 c -0.125,0.015625 -0.53125,0.03125 -0.75,0.03125 -0.21875,0 -0.625,-0.015625 -0.75,-0.03125 v 0.234375 c 0.625,0 0.625,0.28125 0.625,0.4375 v 2.03125 c 0,0.8125 -0.65625,1.28125 -1.3125,1.28125 -0.421875,0 -1.15625,-0.21875 -1.15625,-1.25 v -2.21875 c 0,-0.203125 0,-0.28125 0.46875,-0.28125 H 2.25 V -4.09375 c -0.078125,0.015625 -0.671875,0.03125 -0.921875,0.03125 -0.25,0 -0.84375,-0.015625 -0.9375,-0.03125 v 0.234375 h 0.15625 c 0.46875,0 0.46875,0.078125 0.46875,0.28125 V -1.375 c 0,0.859375 0.828125,1.5 1.75,1.5 0.890625,0 1.5625,-0.6875 1.5625,-1.5 z m 0,0"
           id="path8746" />
      </g>
    </g>
    <g
       id="g6069">
      <g
         id="g6666">
        <path
           d="m 4.671875,-3.703125 c 0,-0.546875 -0.265625,-0.703125 -0.4375,-0.703125 -0.25,0 -0.5,0.265625 -0.5,0.484375 0,0.125 0.046875,0.1875 0.15625,0.296875 0.21875,0.203125 0.34375,0.453125 0.34375,0.8125 0,0.421875 -0.609375,2.703125 -1.765625,2.703125 -0.515625,0 -0.75,-0.34375 -0.75,-0.875 0,-0.546875 0.28125,-1.28125 0.578125,-2.109375 0.078125,-0.171875 0.125,-0.3125 0.125,-0.5 0,-0.4375 -0.3125,-0.8125 -0.8125,-0.8125 -0.9375,0 -1.3125,1.453125 -1.3125,1.53125 0,0.109375 0.09375,0.109375 0.109375,0.109375 0.109375,0 0.109375,-0.03125 0.15625,-0.1875 0.296875,-1 0.71875,-1.234375 1.015625,-1.234375 0.078125,0 0.25,0 0.25,0.3125 0,0.25 -0.109375,0.53125 -0.171875,0.703125 -0.4375,1.15625 -0.5625,1.609375 -0.5625,2.046875 0,1.078125 0.875,1.234375 1.328125,1.234375 1.671875,0 2.25,-3.296875 2.25,-3.8125 z m 0,0"
           id="path8764" />
      </g>
      <g
         id="g6955">
        <path
           d="m 4.765625,-4 c 0,-0.1875 0,-0.515625 0.71875,-0.515625 v -0.25 c -0.28125,0.03125 -0.578125,0.03125 -0.84375,0.03125 -0.28125,0 -0.578125,0 -0.84375,-0.03125 v 0.25 c 0.71875,0 0.71875,0.328125 0.71875,0.515625 v 2.390625 c 0,0.953125 -0.75,1.5 -1.46875,1.5 -0.40625,0 -1.28125,-0.21875 -1.28125,-1.46875 V -4.1875 c 0,-0.25 0.015625,-0.328125 0.5625,-0.328125 h 0.15625 v -0.25 C 2.140625,-4.75 1.6875,-4.734375 1.4375,-4.734375 c -0.25,0 -0.703125,-0.015625 -1.046875,-0.03125 v 0.25 H 0.5625 c 0.53125,0 0.546875,0.078125 0.546875,0.328125 v 2.578125 c 0,1.015625 0.890625,1.75 1.921875,1.75 0.953125,0 1.734375,-0.765625 1.734375,-1.734375 z m 0,0"
           id="path2289" />
      </g>
    </g>
    <g
       id="g189">
      <g
         id="g6092">
        <path
           d="m 4.671875,-3.703125 c 0,-0.546875 -0.265625,-0.703125 -0.4375,-0.703125 -0.25,0 -0.5,0.265625 -0.5,0.484375 0,0.125 0.046875,0.1875 0.15625,0.296875 0.21875,0.203125 0.34375,0.453125 0.34375,0.8125 0,0.421875 -0.609375,2.703125 -1.765625,2.703125 -0.515625,0 -0.75,-0.34375 -0.75,-0.875 0,-0.546875 0.28125,-1.28125 0.578125,-2.109375 0.078125,-0.171875 0.125,-0.3125 0.125,-0.5 0,-0.4375 -0.3125,-0.8125 -0.8125,-0.8125 -0.9375,0 -1.3125,1.453125 -1.3125,1.53125 0,0.109375 0.09375,0.109375 0.109375,0.109375 0.109375,0 0.109375,-0.03125 0.15625,-0.1875 0.296875,-1 0.71875,-1.234375 1.015625,-1.234375 0.078125,0 0.25,0 0.25,0.3125 0,0.25 -0.109375,0.53125 -0.171875,0.703125 -0.4375,1.15625 -0.5625,1.609375 -0.5625,2.046875 0,1.078125 0.875,1.234375 1.328125,1.234375 1.671875,0 2.25,-3.296875 2.25,-3.8125 z m 0,0"
           id="path4573" />
      </g>
      <g
         id="g6450">
        <path
           d="m 1.765625,-4.1875 c 0,-0.234375 0,-0.328125 0.578125,-0.328125 h 0.171875 v -0.25 c -0.046875,0 -0.796875,0.03125 -1.078125,0.03125 -0.28125,0 -1.046875,-0.03125 -1.078125,-0.03125 v 0.25 H 0.53125 c 0.578125,0 0.578125,0.09375 0.578125,0.328125 v 3.609375 c 0,0.25 0,0.328125 -0.578125,0.328125 H 0.359375 V 0 C 0.40625,0 1.15625,-0.03125 1.4375,-0.03125 1.71875,-0.03125 2.484375,0 2.515625,0 V -0.25 H 2.34375 c -0.578125,0 -0.578125,-0.078125 -0.578125,-0.328125 z m 0,0"
           id="path9363" />
      </g>
    </g>
    <g
       id="g6302">
      <g
         id="g7592">
        <path
           d="m 3.734375,-6.125 c 0.0625,-0.234375 0.09375,-0.328125 0.28125,-0.359375 C 4.109375,-6.5 4.421875,-6.5 4.625,-6.5 c 0.703125,0 1.8125,0 1.8125,0.984375 0,0.34375 -0.15625,1.03125 -0.546875,1.421875 -0.265625,0.25 -0.78125,0.578125 -1.6875,0.578125 H 3.09375 Z m 1.4375,2.734375 c 1.015625,-0.21875 2.1875,-0.921875 2.1875,-1.921875 0,-0.859375 -0.890625,-1.5 -2.203125,-1.5 H 2.328125 c -0.203125,0 -0.296875,0 -0.296875,0.203125 C 2.03125,-6.5 2.125,-6.5 2.3125,-6.5 c 0.015625,0 0.203125,0 0.375,0.015625 0.1875,0.03125 0.265625,0.03125 0.265625,0.171875 0,0.03125 0,0.0625 -0.03125,0.1875 l -1.34375,5.34375 C 1.484375,-0.390625 1.46875,-0.3125 0.671875,-0.3125 0.5,-0.3125 0.40625,-0.3125 0.40625,-0.109375 0.40625,0 0.53125,0 0.546875,0 c 0.28125,0 0.984375,-0.03125 1.25,-0.03125 0.28125,0 1,0.03125 1.28125,0.03125 0.078125,0 0.1875,0 0.1875,-0.203125 0,-0.109375 -0.078125,-0.109375 -0.28125,-0.109375 -0.359375,0 -0.640625,0 -0.640625,-0.171875 0,-0.0625 0.015625,-0.109375 0.03125,-0.171875 l 0.65625,-2.640625 h 1.1875 c 0.90625,0 1.078125,0.5625 1.078125,0.90625 0,0.140625 -0.078125,0.453125 -0.140625,0.6875 C 5.09375,-1.421875 5,-1.0625 5,-0.859375 5,0.21875 6.203125,0.21875 6.328125,0.21875 c 0.84375,0 1.203125,-1 1.203125,-1.140625 0,-0.125 -0.109375,-0.125 -0.125,-0.125 -0.09375,0 -0.109375,0.0625 -0.125,0.140625 C 7.03125,-0.171875 6.59375,0 6.375,0 6.046875,0 5.96875,-0.21875 5.96875,-0.609375 c 0,-0.3125 0.0625,-0.8125 0.109375,-1.140625 0.015625,-0.140625 0.03125,-0.328125 0.03125,-0.46875 0,-0.765625 -0.671875,-1.078125 -0.9375,-1.171875 z m 0,0"
           id="path9092" />
      </g>
      <g
         id="g7650">
        <path
           d="m 2.328125,-4.4375 c 0,-0.1875 0,-0.1875 -0.203125,-0.1875 -0.453125,0.4375 -1.078125,0.4375 -1.359375,0.4375 v 0.25 c 0.15625,0 0.625,0 1,-0.1875 v 3.546875 c 0,0.234375 0,0.328125 -0.6875,0.328125 H 0.8125 V 0 c 0.125,0 0.984375,-0.03125 1.234375,-0.03125 0.21875,0 1.09375,0.03125 1.25,0.03125 V -0.25 H 3.03125 c -0.703125,0 -0.703125,-0.09375 -0.703125,-0.328125 z m 0,0"
           id="path4038" />
      </g>
    </g>
    <g
       id="g7439">
      <g
         id="g6340">
        <path
           d="m 3.734375,-6.125 c 0.0625,-0.234375 0.09375,-0.328125 0.28125,-0.359375 C 4.109375,-6.5 4.421875,-6.5 4.625,-6.5 c 0.703125,0 1.8125,0 1.8125,0.984375 0,0.34375 -0.15625,1.03125 -0.546875,1.421875 -0.265625,0.25 -0.78125,0.578125 -1.6875,0.578125 H 3.09375 Z m 1.4375,2.734375 c 1.015625,-0.21875 2.1875,-0.921875 2.1875,-1.921875 0,-0.859375 -0.890625,-1.5 -2.203125,-1.5 H 2.328125 c -0.203125,0 -0.296875,0 -0.296875,0.203125 C 2.03125,-6.5 2.125,-6.5 2.3125,-6.5 c 0.015625,0 0.203125,0 0.375,0.015625 0.1875,0.03125 0.265625,0.03125 0.265625,0.171875 0,0.03125 0,0.0625 -0.03125,0.1875 l -1.34375,5.34375 C 1.484375,-0.390625 1.46875,-0.3125 0.671875,-0.3125 0.5,-0.3125 0.40625,-0.3125 0.40625,-0.109375 0.40625,0 0.53125,0 0.546875,0 c 0.28125,0 0.984375,-0.03125 1.25,-0.03125 0.28125,0 1,0.03125 1.28125,0.03125 0.078125,0 0.1875,0 0.1875,-0.203125 0,-0.109375 -0.078125,-0.109375 -0.28125,-0.109375 -0.359375,0 -0.640625,0 -0.640625,-0.171875 0,-0.0625 0.015625,-0.109375 0.03125,-0.171875 l 0.65625,-2.640625 h 1.1875 c 0.90625,0 1.078125,0.5625 1.078125,0.90625 0,0.140625 -0.078125,0.453125 -0.140625,0.6875 C 5.09375,-1.421875 5,-1.0625 5,-0.859375 5,0.21875 6.203125,0.21875 6.328125,0.21875 c 0.84375,0 1.203125,-1 1.203125,-1.140625 0,-0.125 -0.109375,-0.125 -0.125,-0.125 -0.09375,0 -0.109375,0.0625 -0.125,0.140625 C 7.03125,-0.171875 6.59375,0 6.375,0 6.046875,0 5.96875,-0.21875 5.96875,-0.609375 c 0,-0.3125 0.0625,-0.8125 0.109375,-1.140625 0.015625,-0.140625 0.03125,-0.328125 0.03125,-0.46875 0,-0.765625 -0.671875,-1.078125 -0.9375,-1.171875 z m 0,0"
           id="path1513" />
      </g>
      <g
         id="g768">
        <path
           d="M 3.515625,-1.265625 H 3.28125 c -0.015625,0.15625 -0.09375,0.5625 -0.1875,0.625 C 3.046875,-0.59375 2.515625,-0.59375 2.40625,-0.59375 H 1.125 c 0.734375,-0.640625 0.984375,-0.84375 1.390625,-1.171875 0.515625,-0.40625 1,-0.84375 1,-1.5 0,-0.84375 -0.734375,-1.359375 -1.625,-1.359375 -0.859375,0 -1.453125,0.609375 -1.453125,1.25 0,0.34375 0.296875,0.390625 0.375,0.390625 0.15625,0 0.359375,-0.125 0.359375,-0.375 0,-0.125 -0.046875,-0.375 -0.40625,-0.375 C 0.984375,-4.21875 1.453125,-4.375 1.78125,-4.375 c 0.703125,0 1.0625,0.546875 1.0625,1.109375 0,0.609375 -0.4375,1.078125 -0.65625,1.328125 L 0.515625,-0.265625 C 0.4375,-0.203125 0.4375,-0.1875 0.4375,0 h 2.875 z m 0,0"
           id="path1858" />
      </g>
    </g>
  </defs>
  <g
     inkscape:label="Layer 1"
     inkscape:groupmode="layer"
     id="layer1"
     transform="translate(-3.1749999,-1.3229167)">
    <path
       d="m 131.211,-124.711 -50.147,25.074 v -50.148 z"
       style="fill:none;stroke:#000000;stroke-width:0.750929;stroke-linecap:round;stroke-linejoin:bevel;stroke-miterlimit:6;stroke-dasharray:none;stroke-opacity:1"
       transform="matrix(0.35190535,0,0,0.35277776,-14.412858,55.918098)"
       clip-path="url(#clipPath1)"
       id="path2" />
    <path
       d="m 83.672,109.707 v 0.684 h 6.547 v -0.684 z m 3.605,27.332 h -0.695 v 3 h -2.953 v 0.68 h 2.953 v 3 h 0.695 v -3 h 2.965 v -0.68 h -2.965 z"
       style="fill:#000000;fill-opacity:1;fill-rule:nonzero;stroke:none;stroke-width:0.75;stroke-dasharray:none"
       transform="matrix(0.35277776,0,0,-0.35277776,-14.412858,55.918098)"
       clip-path="url(#clipPath3)"
       id="path4" />
    <path
       d="M 81.064,-109.668 H 71.031"
       style="fill:none;stroke:#000000;stroke-width:0.750929;stroke-linecap:round;stroke-linejoin:bevel;stroke-miterlimit:6;stroke-dasharray:none;stroke-opacity:1"
       transform="matrix(0.35190535,0,0,0.35277776,-14.412858,55.918098)"
       clip-path="url(#clipPath13)"
       id="path14" />
    <path
       d="m 131.211,-124.711 h 15.00594"
       style="fill:none;stroke:#000000;stroke-width:0.750929;stroke-linecap:round;stroke-linejoin:bevel;stroke-miterlimit:6;stroke-dasharray:none;stroke-opacity:1"
       transform="matrix(0.35190535,0,0,0.35277776,-14.412858,55.918098)"
       clip-path="url(#clipPath37)"
       id="path38"
       sodipodi:nodetypes="cc" />
    <path
       d="M 71.031,-139.758 H 81.064"
       style="fill:none;stroke:#000000;stroke-width:0.750929;stroke-linecap:round;stroke-linejoin:bevel;stroke-miterlimit:6;stroke-dasharray:none;stroke-opacity:1"
       transform="matrix(0.35190535,0,0,0.35277776,-14.412858,55.918098)"
       clip-path="url(#clipPath47)"
       id="path48" />
    <g
       id="g6"
       transform="matrix(0,-0.26458333,0.26458333,0,-1.6467663,33.521889)"
       style="stroke-width:1;stroke-dasharray:none">
      <path
         d="M 52.817504,-109.668 H 61.002"
         style="fill:none;stroke:#000000;stroke-width:0.750929;stroke-linecap:round;stroke-linejoin:bevel;stroke-miterlimit:6;stroke-dasharray:none;stroke-opacity:1"
         transform="scale(1.330036,-1.3333333)"
         clip-path="url(#clipPath5)"
         id="path6"
         sodipodi:nodetypes="cc" />
    </g>
    <g
       id="g8"
       transform="matrix(0,-0.26458333,0.26458333,0,-1.6467663,32.633317)"
       style="stroke-width:1;stroke-dasharray:none">
      <path
         d="M 27.725472,-109.668 H 20.884"
         style="fill:none;stroke:#000000;stroke-width:0.750929;stroke-linecap:round;stroke-linejoin:bevel;stroke-miterlimit:6;stroke-dasharray:none;stroke-opacity:1"
         transform="scale(1.330036,-1.3333333)"
         clip-path="url(#clipPath7)"
         id="path8"
         sodipodi:nodetypes="cc" />
    </g>
    <g
       id="g10"
       transform="matrix(0,-0.26458333,0.26458333,0,-1.6467663,33.424234)"
       style="stroke-width:1;stroke-dasharray:none">
      <path
         d="m 52.54,-109.668 -1.88,4.391 -3.763,-9.09 -3.446,9.09 -3.763,-9.09 -4.073,9.09 -3.45,-8.465 -2.192,4.074"
         style="fill:none;stroke:#000000;stroke-width:0.750929;stroke-linecap:round;stroke-linejoin:bevel;stroke-miterlimit:6;stroke-dasharray:none;stroke-opacity:1"
         transform="scale(1.330036,-1.3333333)"
         clip-path="url(#clipPath9)"
         id="path10" />
    </g>
    <g
       id="g3"
       transform="matrix(0,-0.26458333,0.26458333,0,-1.6467663,46.751056)"
       style="stroke-width:1;stroke-dasharray:none">
      <path
         d="M 52.817504,-109.668 H 61.002"
         style="fill:none;stroke:#000000;stroke-width:0.750929;stroke-linecap:round;stroke-linejoin:bevel;stroke-miterlimit:6;stroke-dasharray:none;stroke-opacity:1"
         transform="scale(1.330036,-1.3333333)"
         clip-path="url(#clipPath5)"
         id="path3"
         sodipodi:nodetypes="cc" />
    </g>
    <g
       id="g11"
       transform="matrix(0,-0.26458333,0.26458333,0,-1.6467663,45.862484)"
       style="stroke-width:1;stroke-dasharray:none">
      <path
         d="M 27.725472,-109.668 H 20.884"
         style="fill:none;stroke:#000000;stroke-width:0.750929;stroke-linecap:round;stroke-linejoin:bevel;stroke-miterlimit:6;stroke-dasharray:none;stroke-opacity:1"
         transform="scale(1.330036,-1.3333333)"
         clip-path="url(#clipPath7)"
         id="path11"
         sodipodi:nodetypes="cc" />
    </g>
    <g
       id="g12"
       transform="matrix(0,-0.26458333,0.26458333,0,-1.6467663,46.653401)"
       style="stroke-width:1;stroke-dasharray:none">
      <path
         d="m 52.54,-109.668 -1.88,4.391 -3.763,-9.09 -3.446,9.09 -3.763,-9.09 -4.073,9.09 -3.45,-8.465 -2.192,4.074"
         style="fill:none;stroke:#000000;stroke-width:0.750929;stroke-linecap:round;stroke-linejoin:bevel;stroke-miterlimit:6;stroke-dasharray:none;stroke-opacity:1"
         transform="scale(1.330036,-1.3333333)"
         clip-path="url(#clipPath9)"
         id="path12" />
    </g>
    <path
       style="fill:none;fill-opacity:0.992157;stroke:#000000;stroke-width:0.264583;stroke-linecap:round;stroke-linejoin:round;stroke-dasharray:none"
       d="M 37.041666,25.151996 H 10.583333 v -7.922329"
       id="path15" />
    <path
       d="M 121.183,-94.621 H 101.121"
       style="fill:none;stroke:#000000;stroke-width:0.750929;stroke-linecap:round;stroke-linejoin:bevel;stroke-miterlimit:6;stroke-dasharray:none;stroke-opacity:1"
       transform="matrix(0.35190535,0,0,-0.35277776,-2.0733179,5.1331079)"
       clip-path="url(#clipPath31)"
       id="path32" />
    <path
       d="M 116.793,-99.012 H 105.511"
       style="fill:none;stroke:#000000;stroke-width:0.750929;stroke-linecap:round;stroke-linejoin:bevel;stroke-miterlimit:6;stroke-dasharray:none;stroke-opacity:1"
       transform="matrix(0.35190535,0,0,-0.35277776,-2.0733179,5.1331079)"
       clip-path="url(#clipPath33-7)"
       id="path34" />
    <path
       d="m 112.407,-103.398 h -2.51"
       style="fill:none;stroke:#000000;stroke-width:0.750929;stroke-linecap:round;stroke-linejoin:bevel;stroke-miterlimit:6;stroke-dasharray:none;stroke-opacity:1"
       transform="matrix(0.35190535,0,0,-0.35277776,-2.0733179,5.1331079)"
       clip-path="url(#clipPath35-9)"
       id="path36" />
    <path
       d="m 152.773,124.711 c 0,-1.039 -0.839,-1.879 -1.875,-1.879 -1.035,0 -1.875,0.84 -1.875,1.879 0,1.039 0.84,1.883 1.875,1.883 1.036,0 1.875,-0.844 1.875,-1.883"
       style="fill:#000000;fill-opacity:1;fill-rule:evenodd;stroke:none"
       transform="matrix(0.35277776,0,0,0.35277776,-16.191793,-18.832614)"
       clip-path="url(#clipPath41)"
       id="path42" />
    <path
       d="m 152.773,124.711 c 0,-1.039 -0.839,-1.879 -1.875,-1.879 -1.035,0 -1.875,0.84 -1.875,1.879 0,1.039 0.84,1.883 1.875,1.883 1.036,0 1.875,-0.844 1.875,-1.883"
       style="fill:#000000;fill-opacity:1;fill-rule:evenodd;stroke:none"
       transform="matrix(0.35277776,0,0,0.35277776,-16.191792,-32.072437)"
       clip-path="url(#clipPath41-7)"
       id="path42-9" />
    <path
       d="M 168.18708,-124.711 H 151.27209"
       style="fill:none;stroke:#000000;stroke-width:0.752112;stroke-linecap:round;stroke-linejoin:bevel;stroke-miterlimit:6;stroke-dasharray:none;stroke-opacity:1"
       transform="matrix(0.35190535,0,0,-0.35277776,-16.191792,-32.072437)"
       clip-path="url(#clipPath61-2)"
       id="path62"
       sodipodi:nodetypes="cc" />
    <path
       d="m 168.197,-124.711 c 0,1.039 -0.842,1.879 -1.879,1.879 -1.038,0 -1.884,-0.84 -1.884,-1.879 0,-1.039 0.846,-1.883 1.884,-1.883 1.037,0 1.879,0.844 1.879,1.883"
       style="fill:none;stroke:#000000;stroke-width:0.814931;stroke-linecap:round;stroke-linejoin:bevel;stroke-miterlimit:6;stroke-dasharray:none;stroke-opacity:1"
       transform="matrix(0.35190535,0,0,-0.35277776,-14.871072,-32.072437)"
       clip-path="url(#clipPath59-2)"
       id="path60" />
    <path
       d="m 168.197,-124.711 c 0,1.039 -0.842,1.879 -1.879,1.879 -1.038,0 -1.884,-0.84 -1.884,-1.879 0,-1.039 0.846,-1.883 1.884,-1.883 1.037,0 1.879,0.844 1.879,1.883"
       style="fill:none;stroke:#000000;stroke-width:0.814931;stroke-linecap:round;stroke-linejoin:bevel;stroke-miterlimit:6;stroke-dasharray:none;stroke-opacity:1"
       transform="matrix(0.35190535,0,0,-0.35277776,-48.606091,-37.380684)"
       clip-path="url(#clipPath59-2-8)"
       id="path60-6" />
    <g
       inkscape:label=""
       transform="translate(3.9687494,6.0743919)"
       id="g15">
      <g
         fill="#000000"
         fill-opacity="1"
         id="g3-1"
         transform="matrix(0.352778,0,0,0.352778,-0.807817,-0.661723)">
        <g
           id="use2"
           transform="translate(1.993,6.2820001)">
          <path
             d="m 4.671875,-3.703125 c 0,-0.546875 -0.265625,-0.703125 -0.4375,-0.703125 -0.25,0 -0.5,0.265625 -0.5,0.484375 0,0.125 0.046875,0.1875 0.15625,0.296875 0.21875,0.203125 0.34375,0.453125 0.34375,0.8125 0,0.421875 -0.609375,2.703125 -1.765625,2.703125 -0.515625,0 -0.75,-0.34375 -0.75,-0.875 0,-0.546875 0.28125,-1.28125 0.578125,-2.109375 0.078125,-0.171875 0.125,-0.3125 0.125,-0.5 0,-0.4375 -0.3125,-0.8125 -0.8125,-0.8125 -0.9375,0 -1.3125,1.453125 -1.3125,1.53125 0,0.109375 0.09375,0.109375 0.109375,0.109375 0.109375,0 0.109375,-0.03125 0.15625,-0.1875 0.296875,-1 0.71875,-1.234375 1.015625,-1.234375 0.078125,0 0.25,0 0.25,0.3125 0,0.25 -0.109375,0.53125 -0.171875,0.703125 -0.4375,1.15625 -0.5625,1.609375 -0.5625,2.046875 0,1.078125 0.875,1.234375 1.328125,1.234375 1.671875,0 2.25,-3.296875 2.25,-3.8125 z m 0,0"
             id="path4-1" />
        </g>
      </g>
      <g
         fill="#000000"
         fill-opacity="1"
         id="g4"
         transform="matrix(0.352778,0,0,0.352778,-0.807817,-0.661723)">
        <g
           id="use3"
           transform="translate(6.822,7.776)">
          <path
             d="m 4.765625,-4 c 0,-0.1875 0,-0.515625 0.71875,-0.515625 v -0.25 c -0.28125,0.03125 -0.578125,0.03125 -0.84375,0.03125 -0.28125,0 -0.578125,0 -0.84375,-0.03125 v 0.25 c 0.71875,0 0.71875,0.328125 0.71875,0.515625 v 2.390625 c 0,0.953125 -0.75,1.5 -1.46875,1.5 -0.40625,0 -1.28125,-0.21875 -1.28125,-1.46875 V -4.1875 c 0,-0.25 0.015625,-0.328125 0.5625,-0.328125 h 0.15625 v -0.25 C 2.140625,-4.75 1.6875,-4.734375 1.4375,-4.734375 c -0.25,0 -0.703125,-0.015625 -1.046875,-0.03125 v 0.25 H 0.5625 c 0.53125,0 0.546875,0.078125 0.546875,0.328125 v 2.578125 c 0,1.015625 0.890625,1.75 1.921875,1.75 0.953125,0 1.734375,-0.765625 1.734375,-1.734375 z m 0,0"
             id="path5-1" />
        </g>
      </g>
    </g>
    <g
       inkscape:label=""
       transform="translate(42.052212,8.1028638)"
       id="g16">
      <g
         fill="#000000"
         fill-opacity="1"
         id="g3-1-1"
         transform="matrix(0.352778,0,0,0.352778,-0.807817,-0.661723)">
        <g
           id="use2-1"
           transform="translate(1.993,6.2820001)">
          <path
             d="m 4.671875,-3.703125 c 0,-0.546875 -0.265625,-0.703125 -0.4375,-0.703125 -0.25,0 -0.5,0.265625 -0.5,0.484375 0,0.125 0.046875,0.1875 0.15625,0.296875 0.21875,0.203125 0.34375,0.453125 0.34375,0.8125 0,0.421875 -0.609375,2.703125 -1.765625,2.703125 -0.515625,0 -0.75,-0.34375 -0.75,-0.875 0,-0.546875 0.28125,-1.28125 0.578125,-2.109375 0.078125,-0.171875 0.125,-0.3125 0.125,-0.5 0,-0.4375 -0.3125,-0.8125 -0.8125,-0.8125 -0.9375,0 -1.3125,1.453125 -1.3125,1.53125 0,0.109375 0.09375,0.109375 0.109375,0.109375 0.109375,0 0.109375,-0.03125 0.15625,-0.1875 0.296875,-1 0.71875,-1.234375 1.015625,-1.234375 0.078125,0 0.25,0 0.25,0.3125 0,0.25 -0.109375,0.53125 -0.171875,0.703125 -0.4375,1.15625 -0.5625,1.609375 -0.5625,2.046875 0,1.078125 0.875,1.234375 1.328125,1.234375 1.671875,0 2.25,-3.296875 2.25,-3.8125 z m 0,0"
             id="path4-1-1" />
        </g>
      </g>
      <g
         fill="#000000"
         fill-opacity="1"
         id="g4-1"
         transform="matrix(0.352778,0,0,0.352778,-0.807817,-0.661723)">
        <g
           id="use3-1"
           transform="translate(6.822,7.776)">
          <path
             d="m 1.765625,-4.1875 c 0,-0.234375 0,-0.328125 0.578125,-0.328125 h 0.171875 v -0.25 c -0.046875,0 -0.796875,0.03125 -1.078125,0.03125 -0.28125,0 -1.046875,-0.03125 -1.078125,-0.03125 v 0.25 H 0.53125 c 0.578125,0 0.578125,0.09375 0.578125,0.328125 v 3.609375 c 0,0.25 0,0.328125 -0.578125,0.328125 H 0.359375 V 0 C 0.40625,0 1.15625,-0.03125 1.4375,-0.03125 1.71875,-0.03125 2.484375,0 2.515625,0 V -0.25 H 2.34375 c -0.578125,0 -0.578125,-0.078125 -0.578125,-0.328125 z m 0,0"
             id="path5-1-1" />
        </g>
      </g>
    </g>
    <g
       inkscape:label=""
       transform="translate(40.652124,30.542838)"
       id="g17">
      <g
         fill="#000000"
         fill-opacity="1"
         id="g3-1-1-1"
         transform="matrix(0.352778,0,0,0.352778,-0.846402,-0.701146)">
        <g
           id="use2-1-1"
           transform="translate(1.993,8.8000002)">
          <path
             d="m 3.734375,-6.125 c 0.0625,-0.234375 0.09375,-0.328125 0.28125,-0.359375 C 4.109375,-6.5 4.421875,-6.5 4.625,-6.5 c 0.703125,0 1.8125,0 1.8125,0.984375 0,0.34375 -0.15625,1.03125 -0.546875,1.421875 -0.265625,0.25 -0.78125,0.578125 -1.6875,0.578125 H 3.09375 Z m 1.4375,2.734375 c 1.015625,-0.21875 2.1875,-0.921875 2.1875,-1.921875 0,-0.859375 -0.890625,-1.5 -2.203125,-1.5 H 2.328125 c -0.203125,0 -0.296875,0 -0.296875,0.203125 C 2.03125,-6.5 2.125,-6.5 2.3125,-6.5 c 0.015625,0 0.203125,0 0.375,0.015625 0.1875,0.03125 0.265625,0.03125 0.265625,0.171875 0,0.03125 0,0.0625 -0.03125,0.1875 l -1.34375,5.34375 C 1.484375,-0.390625 1.46875,-0.3125 0.671875,-0.3125 0.5,-0.3125 0.40625,-0.3125 0.40625,-0.109375 0.40625,0 0.53125,0 0.546875,0 c 0.28125,0 0.984375,-0.03125 1.25,-0.03125 0.28125,0 1,0.03125 1.28125,0.03125 0.078125,0 0.1875,0 0.1875,-0.203125 0,-0.109375 -0.078125,-0.109375 -0.28125,-0.109375 -0.359375,0 -0.640625,0 -0.640625,-0.171875 0,-0.0625 0.015625,-0.109375 0.03125,-0.171875 l 0.65625,-2.640625 h 1.1875 c 0.90625,0 1.078125,0.5625 1.078125,0.90625 0,0.140625 -0.078125,0.453125 -0.140625,0.6875 C 5.09375,-1.421875 5,-1.0625 5,-0.859375 5,0.21875 6.203125,0.21875 6.328125,0.21875 c 0.84375,0 1.203125,-1 1.203125,-1.140625 0,-0.125 -0.109375,-0.125 -0.125,-0.125 -0.09375,0 -0.109375,0.0625 -0.125,0.140625 C 7.03125,-0.171875 6.59375,0 6.375,0 6.046875,0 5.96875,-0.21875 5.96875,-0.609375 c 0,-0.3125 0.0625,-0.8125 0.109375,-1.140625 0.015625,-0.140625 0.03125,-0.328125 0.03125,-0.46875 0,-0.765625 -0.671875,-1.078125 -0.9375,-1.171875 z m 0,0"
             id="path4-1-1-1" />
        </g>
      </g>
      <g
         fill="#000000"
         fill-opacity="1"
         id="g4-1-1"
         transform="matrix(0.352778,0,0,0.352778,-0.846402,-0.701146)">
        <g
           id="use3-1-1"
           transform="translate(9.5570002,10.294)">
          <path
             d="m 2.328125,-4.4375 c 0,-0.1875 0,-0.1875 -0.203125,-0.1875 -0.453125,0.4375 -1.078125,0.4375 -1.359375,0.4375 v 0.25 c 0.15625,0 0.625,0 1,-0.1875 v 3.546875 c 0,0.234375 0,0.328125 -0.6875,0.328125 H 0.8125 V 0 c 0.125,0 0.984375,-0.03125 1.234375,-0.03125 0.21875,0 1.09375,0.03125 1.25,0.03125 V -0.25 H 3.03125 c -0.703125,0 -0.703125,-0.09375 -0.703125,-0.328125 z m 0,0"
             id="path5-1-1-1" />
        </g>
      </g>
    </g>
    <g
       inkscape:label=""
       transform="translate(40.106421,17.390841)"
       id="g22">
      <g
         fill="#000000"
         fill-opacity="1"
         id="g3-1-1-1-1"
         transform="matrix(0.352778,0,0,0.352778,-0.846402,-0.701146)">
        <g
           id="use2-1-1-1"
           transform="translate(1.993,8.8000002)">
          <path
             d="m 3.734375,-6.125 c 0.0625,-0.234375 0.09375,-0.328125 0.28125,-0.359375 C 4.109375,-6.5 4.421875,-6.5 4.625,-6.5 c 0.703125,0 1.8125,0 1.8125,0.984375 0,0.34375 -0.15625,1.03125 -0.546875,1.421875 -0.265625,0.25 -0.78125,0.578125 -1.6875,0.578125 H 3.09375 Z m 1.4375,2.734375 c 1.015625,-0.21875 2.1875,-0.921875 2.1875,-1.921875 0,-0.859375 -0.890625,-1.5 -2.203125,-1.5 H 2.328125 c -0.203125,0 -0.296875,0 -0.296875,0.203125 C 2.03125,-6.5 2.125,-6.5 2.3125,-6.5 c 0.015625,0 0.203125,0 0.375,0.015625 0.1875,0.03125 0.265625,0.03125 0.265625,0.171875 0,0.03125 0,0.0625 -0.03125,0.1875 l -1.34375,5.34375 C 1.484375,-0.390625 1.46875,-0.3125 0.671875,-0.3125 0.5,-0.3125 0.40625,-0.3125 0.40625,-0.109375 0.40625,0 0.53125,0 0.546875,0 c 0.28125,0 0.984375,-0.03125 1.25,-0.03125 0.28125,0 1,0.03125 1.28125,0.03125 0.078125,0 0.1875,0 0.1875,-0.203125 0,-0.109375 -0.078125,-0.109375 -0.28125,-0.109375 -0.359375,0 -0.640625,0 -0.640625,-0.171875 0,-0.0625 0.015625,-0.109375 0.03125,-0.171875 l 0.65625,-2.640625 h 1.1875 c 0.90625,0 1.078125,0.5625 1.078125,0.90625 0,0.140625 -0.078125,0.453125 -0.140625,0.6875 C 5.09375,-1.421875 5,-1.0625 5,-0.859375 5,0.21875 6.203125,0.21875 6.328125,0.21875 c 0.84375,0 1.203125,-1 1.203125,-1.140625 0,-0.125 -0.109375,-0.125 -0.125,-0.125 -0.09375,0 -0.109375,0.0625 -0.125,0.140625 C 7.03125,-0.171875 6.59375,0 6.375,0 6.046875,0 5.96875,-0.21875 5.96875,-0.609375 c 0,-0.3125 0.0625,-0.8125 0.109375,-1.140625 0.015625,-0.140625 0.03125,-0.328125 0.03125,-0.46875 0,-0.765625 -0.671875,-1.078125 -0.9375,-1.171875 z m 0,0"
             id="path4-1-1-1-1" />
        </g>
      </g>
      <g
         fill="#000000"
         fill-opacity="1"
         id="g4-1-1-1"
         transform="matrix(0.352778,0,0,0.352778,-0.846402,-0.701146)">
        <g
           id="use3-1-1-1"
           transform="translate(9.5570002,10.294)">
          <path
             d="M 3.515625,-1.265625 H 3.28125 c -0.015625,0.15625 -0.09375,0.5625 -0.1875,0.625 C 3.046875,-0.59375 2.515625,-0.59375 2.40625,-0.59375 H 1.125 c 0.734375,-0.640625 0.984375,-0.84375 1.390625,-1.171875 0.515625,-0.40625 1,-0.84375 1,-1.5 0,-0.84375 -0.734375,-1.359375 -1.625,-1.359375 -0.859375,0 -1.453125,0.609375 -1.453125,1.25 0,0.34375 0.296875,0.390625 0.375,0.390625 0.15625,0 0.359375,-0.125 0.359375,-0.375 0,-0.125 -0.046875,-0.375 -0.40625,-0.375 C 0.984375,-4.21875 1.453125,-4.375 1.78125,-4.375 c 0.703125,0 1.0625,0.546875 1.0625,1.109375 0,0.609375 -0.4375,1.078125 -0.65625,1.328125 L 0.515625,-0.265625 C 0.4375,-0.203125 0.4375,-0.1875 0.4375,0 h 2.875 z m 0,0"
             id="path5-1-1-1-1" />
        </g>
      </g>
    </g>
  </g>
</svg>
