<?xml version="1.0" encoding="UTF-8" standalone="no"?>
<!-- Created with Inkscape (http://www.inkscape.org/) -->

<svg
   width="20.392675mm"
   height="20.352665mm"
   viewBox="0 0 20.392675 20.352665"
   version="1.1"
   id="svg1"
   inkscape:version="1.4.3 (1:1.4.3+202512261035+0d15f75042)"
   sodipodi:docname="polarizacija.svg"
   xmlns:inkscape="http://www.inkscape.org/namespaces/inkscape"
   xmlns:sodipodi="http://sodipodi.sourceforge.net/DTD/sodipodi-0.dtd"
   xmlns:xlink="http://www.w3.org/1999/xlink"
   xmlns="http://www.w3.org/2000/svg"
   xmlns:svg="http://www.w3.org/2000/svg">
  <sodipodi:namedview
     id="namedview1"
     pagecolor="#ffffff"
     bordercolor="#000000"
     borderopacity="0.25"
     inkscape:showpageshadow="2"
     inkscape:pageopacity="0.0"
     inkscape:pagecheckerboard="0"
     inkscape:deskcolor="#d1d1d1"
     inkscape:document-units="mm"
     showguides="true"
     inkscape:zoom="5.9508979"
     inkscape:cx="13.947475"
     inkscape:cy="36.044981"
     inkscape:window-width="1920"
     inkscape:window-height="1043"
     inkscape:window-x="0"
     inkscape:window-y="0"
     inkscape:window-maximized="1"
     inkscape:current-layer="layer1" />
  <defs
     id="defs1">
    <pattern
       inkscape:collect="always"
       xlink:href="#Strips1_8"
       preserveAspectRatio="xMidYMid"
       id="pattern12"
       patternTransform="matrix(-0.01999704,7.087231e-5,3.4385414e-4,-0.02000417,-1.5567846,-1.1686239)"
       x="0"
       y="0" />
    <pattern
       inkscape:collect="always"
       patternUnits="userSpaceOnUse"
       width="9"
       height="1"
       patternTransform="translate(0,0) scale(2,2)"
       preserveAspectRatio="xMidYMid"
       id="Strips1_8"
       style="fill:#939393"
       inkscape:stockid="Stripes 07 (1:8)"
       inkscape:isstock="true"
       inkscape:label="Stripes 07 (1:8)">
      <rect
   style="stroke:none"
   x="0"
   y="-0.5"
   width="1"
   height="2"
   id="rect170" />

    </pattern>
    <marker
       style="overflow:visible"
       id="Triangle"
       refX="0"
       refY="0"
       orient="auto-start-reverse"
       inkscape:stockid="Triangle arrow"
       markerWidth="1.618"
       markerHeight="1.001"
       viewBox="0 0 1 1"
       inkscape:isstock="true"
       inkscape:collect="always"
       preserveAspectRatio="none">
      <path
         transform="scale(0.5)"
         style="fill:context-stroke;fill-rule:evenodd;stroke:context-stroke;stroke-width:1pt"
         d="M 5.77,0 -2.88,5 V -5 Z"
         id="path135" />
    </marker>
    <g
       id="g1371">
      <g
         id="g9740">
        <path
           d="M 2.8125,-3.03125 H 3.734375 C 4.375,-3.03125 4.5,-2.921875 4.5,-2.625 c 0,0.0625 -0.03125,0.25 -0.0625,0.40625 -0.015625,0.046875 -0.03125,0.09375 -0.03125,0.125 0,0 0,0.109375 0.125,0.109375 0.109375,0 0.109375,-0.0625 0.15625,-0.1875 L 5.15625,-4.0625 C 5.1875,-4.1875 5.1875,-4.203125 5.1875,-4.25 c 0,-0.0625 -0.046875,-0.109375 -0.125,-0.109375 -0.09375,0 -0.109375,0.046875 -0.140625,0.21875 -0.1875,0.71875 -0.46875,0.828125 -1.1875,0.828125 h -0.84375 c 0.125,-0.546875 0.546875,-2.25 0.59375,-2.359375 0.0625,-0.125 0.125,-0.15625 0.421875,-0.15625 h 1.3125 c 1.125,0 1.375,0.28125 1.375,1 0,0.28125 -0.046875,0.546875 -0.046875,0.609375 0,0.078125 0.046875,0.140625 0.125,0.140625 0.109375,0 0.125,-0.0625 0.140625,-0.234375 L 7,-5.96875 c 0,-0.125 -0.09375,-0.125 -0.265625,-0.125 h -4.625 c -0.15625,0 -0.265625,0 -0.265625,0.15625 0,0.109375 0.09375,0.109375 0.28125,0.109375 0.03125,0 0.203125,0 0.34375,0.03125 0.1875,0.015625 0.203125,0.0625 0.203125,0.140625 0,0.03125 0,0.046875 -0.046875,0.203125 L 1.4375,-0.6875 c -0.078125,0.328125 -0.09375,0.40625 -0.78125,0.40625 -0.15625,0 -0.265625,0 -0.265625,0.171875 C 0.390625,0 0.484375,0 0.640625,0 H 5.375 c 0.171875,0 0.1875,0 0.21875,-0.03125 0.015625,-0.015625 0.03125,-0.015625 0.078125,-0.140625 0.109375,-0.234375 0.875,-1.9375 0.875,-2.03125 0,-0.0625 -0.046875,-0.109375 -0.125,-0.109375 -0.078125,0 -0.078125,0 -0.171875,0.21875 -0.5625,1.25 -0.9375,1.8125 -2.421875,1.8125 h -1.375 c -0.125,0 -0.140625,0 -0.171875,0 -0.09375,-0.015625 -0.125,-0.03125 -0.125,-0.09375 0,-0.015625 0,-0.03125 0.046875,-0.203125 z m 0,0"
           id="path4578" />
      </g>
      <g
         id="g3657">
        <path
           d="m 3.296875,-1.90625 c 0,-0.4375 0,-2.078125 -1.46875,-2.078125 -1.46875,0 -1.46875,1.640625 -1.46875,2.078125 0,0.421875 0,2.03125 1.46875,2.03125 1.46875,0 1.46875,-1.609375 1.46875,-2.03125 z m -1.46875,1.84375 c -0.25,0 -0.65625,-0.125 -0.8125,-0.625 -0.09375,-0.34375 -0.09375,-0.921875 -0.09375,-1.296875 0,-0.40625 0,-0.859375 0.09375,-1.1875 0.140625,-0.53125 0.59375,-0.609375 0.8125,-0.609375 0.265625,0 0.671875,0.125 0.796875,0.578125 0.09375,0.3125 0.09375,0.75 0.09375,1.21875 0,0.375 0,0.984375 -0.09375,1.3125 C 2.453125,-0.140625 2.015625,-0.0625 1.828125,-0.0625 Z m 0,0"
           id="path816" />
      </g>
    </g>
    <g
       id="g6051">
      <g
         id="g1918">
        <path
           d="M 2.8125,-3.03125 H 3.734375 C 4.375,-3.03125 4.5,-2.921875 4.5,-2.625 c 0,0.0625 -0.03125,0.25 -0.0625,0.40625 -0.015625,0.046875 -0.03125,0.09375 -0.03125,0.125 0,0 0,0.109375 0.125,0.109375 0.109375,0 0.109375,-0.0625 0.15625,-0.1875 L 5.15625,-4.0625 C 5.1875,-4.1875 5.1875,-4.203125 5.1875,-4.25 c 0,-0.0625 -0.046875,-0.109375 -0.125,-0.109375 -0.09375,0 -0.109375,0.046875 -0.140625,0.21875 -0.1875,0.71875 -0.46875,0.828125 -1.1875,0.828125 h -0.84375 c 0.125,-0.546875 0.546875,-2.25 0.59375,-2.359375 0.0625,-0.125 0.125,-0.15625 0.421875,-0.15625 h 1.3125 c 1.125,0 1.375,0.28125 1.375,1 0,0.28125 -0.046875,0.546875 -0.046875,0.609375 0,0.078125 0.046875,0.140625 0.125,0.140625 0.109375,0 0.125,-0.0625 0.140625,-0.234375 L 7,-5.96875 c 0,-0.125 -0.09375,-0.125 -0.265625,-0.125 h -4.625 c -0.15625,0 -0.265625,0 -0.265625,0.15625 0,0.109375 0.09375,0.109375 0.28125,0.109375 0.03125,0 0.203125,0 0.34375,0.03125 0.1875,0.015625 0.203125,0.0625 0.203125,0.140625 0,0.03125 0,0.046875 -0.046875,0.203125 L 1.4375,-0.6875 c -0.078125,0.328125 -0.09375,0.40625 -0.78125,0.40625 -0.15625,0 -0.265625,0 -0.265625,0.171875 C 0.390625,0 0.484375,0 0.640625,0 H 5.375 c 0.171875,0 0.1875,0 0.21875,-0.03125 0.015625,-0.015625 0.03125,-0.015625 0.078125,-0.140625 0.109375,-0.234375 0.875,-1.9375 0.875,-2.03125 0,-0.0625 -0.046875,-0.109375 -0.125,-0.109375 -0.078125,0 -0.078125,0 -0.171875,0.21875 -0.5625,1.25 -0.9375,1.8125 -2.421875,1.8125 h -1.375 c -0.125,0 -0.140625,0 -0.171875,0 -0.09375,-0.015625 -0.125,-0.03125 -0.125,-0.09375 0,-0.015625 0,-0.03125 0.046875,-0.203125 z m 0,0"
           id="path6237" />
      </g>
    </g>
    <g
       id="g399">
      <g
         id="g9089">
        <path
           d="M 2.8125,-3.03125 H 3.734375 C 4.375,-3.03125 4.5,-2.921875 4.5,-2.625 c 0,0.0625 -0.03125,0.25 -0.0625,0.40625 -0.015625,0.046875 -0.03125,0.09375 -0.03125,0.125 0,0 0,0.109375 0.125,0.109375 0.109375,0 0.109375,-0.0625 0.15625,-0.1875 L 5.15625,-4.0625 C 5.1875,-4.1875 5.1875,-4.203125 5.1875,-4.25 c 0,-0.0625 -0.046875,-0.109375 -0.125,-0.109375 -0.09375,0 -0.109375,0.046875 -0.140625,0.21875 -0.1875,0.71875 -0.46875,0.828125 -1.1875,0.828125 h -0.84375 c 0.125,-0.546875 0.546875,-2.25 0.59375,-2.359375 0.0625,-0.125 0.125,-0.15625 0.421875,-0.15625 h 1.3125 c 1.125,0 1.375,0.28125 1.375,1 0,0.28125 -0.046875,0.546875 -0.046875,0.609375 0,0.078125 0.046875,0.140625 0.125,0.140625 0.109375,0 0.125,-0.0625 0.140625,-0.234375 L 7,-5.96875 c 0,-0.125 -0.09375,-0.125 -0.265625,-0.125 h -4.625 c -0.15625,0 -0.265625,0 -0.265625,0.15625 0,0.109375 0.09375,0.109375 0.28125,0.109375 0.03125,0 0.203125,0 0.34375,0.03125 0.1875,0.015625 0.203125,0.0625 0.203125,0.140625 0,0.03125 0,0.046875 -0.046875,0.203125 L 1.4375,-0.6875 c -0.078125,0.328125 -0.09375,0.40625 -0.78125,0.40625 -0.15625,0 -0.265625,0 -0.265625,0.171875 C 0.390625,0 0.484375,0 0.640625,0 H 5.375 c 0.171875,0 0.1875,0 0.21875,-0.03125 0.015625,-0.015625 0.03125,-0.015625 0.078125,-0.140625 0.109375,-0.234375 0.875,-1.9375 0.875,-2.03125 0,-0.0625 -0.046875,-0.109375 -0.125,-0.109375 -0.078125,0 -0.078125,0 -0.171875,0.21875 -0.5625,1.25 -0.9375,1.8125 -2.421875,1.8125 h -1.375 c -0.125,0 -0.140625,0 -0.171875,0 -0.09375,-0.015625 -0.125,-0.03125 -0.125,-0.09375 0,-0.015625 0,-0.03125 0.046875,-0.203125 z m 0,0"
           id="path2501" />
      </g>
      <g
         id="g126">
        <path
           d="M 1.296875,-2.34375 H 2.28125 V -2.578125 H 1.296875 V -3.6875 h -0.21875 c 0,0.546875 -0.265625,1.125 -0.859375,1.15625 v 0.1875 H 0.8125 V -0.75 c 0,0.625 0.46875,0.8125 0.875,0.8125 0.40625,0 0.71875,-0.328125 0.71875,-0.8125 V -1.078125 H 2.171875 v 0.3125 c 0,0.421875 -0.21875,0.609375 -0.4375,0.609375 -0.4375,0 -0.4375,-0.484375 -0.4375,-0.59375 z m 0,0"
           id="path9098" />
      </g>
    </g>
    <g
       id="g9158">
      <g
         id="g5425">
        <path
           d="m 0.640625,0.5 c 0,0.421875 -0.0625,0.984375 -0.15625,1.296875 H 1.15625 c 0.09375,-0.1875 0.125,-0.40625 0.125,-1.03125 V -0.34375 c 0.421875,0.328125 0.78125,0.453125 1.25,0.453125 0.953125,0 1.625,-0.71875 1.625,-1.75 0,-0.859375 -0.4375,-1.46875 -1.3125,-1.84375 0.609375,-0.34375 0.890625,-0.703125 0.890625,-1.171875 0,-0.71875 -0.703125,-1.3125 -1.578125,-1.3125 -0.859375,0 -1.515625,0.578125 -1.515625,1.34375 z M 1.28125,-4.703125 c 0,-0.5625 0.34375,-0.96875 0.8125,-0.96875 0.515625,0 0.875,0.46875 0.875,1.109375 0,0.4375 -0.234375,0.890625 -0.4375,0.890625 -0.03125,0 -0.046875,0 -0.171875,-0.03125 -0.125,-0.015625 -0.1875,-0.03125 -0.25,-0.03125 -0.203125,0 -0.359375,0.125 -0.359375,0.28125 0,0.15625 0.15625,0.25 0.359375,0.25 0.046875,0 0.09375,0 0.171875,-0.015625 C 2.375,-3.25 2.453125,-3.25 2.53125,-3.25 c 0.09375,0 0.15625,0.015625 0.203125,0.0625 0.359375,0.328125 0.578125,0.953125 0.578125,1.609375 0,0.796875 -0.359375,1.28125 -0.953125,1.28125 -0.40625,0 -0.796875,-0.1875 -1.078125,-0.5 z m 0,0"
           id="path7152" />
      </g>
    </g>
    <g
       id="g8514">
      <g
         id="g4178">
        <path
           d="M 2.8125,-3.03125 H 3.734375 C 4.375,-3.03125 4.5,-2.921875 4.5,-2.625 c 0,0.0625 -0.03125,0.25 -0.0625,0.40625 -0.015625,0.046875 -0.03125,0.09375 -0.03125,0.125 0,0 0,0.109375 0.125,0.109375 0.109375,0 0.109375,-0.0625 0.15625,-0.1875 L 5.15625,-4.0625 C 5.1875,-4.1875 5.1875,-4.203125 5.1875,-4.25 c 0,-0.0625 -0.046875,-0.109375 -0.125,-0.109375 -0.09375,0 -0.109375,0.046875 -0.140625,0.21875 -0.1875,0.71875 -0.46875,0.828125 -1.1875,0.828125 h -0.84375 c 0.125,-0.546875 0.546875,-2.25 0.59375,-2.359375 0.0625,-0.125 0.125,-0.15625 0.421875,-0.15625 h 1.3125 c 1.125,0 1.375,0.28125 1.375,1 0,0.28125 -0.046875,0.546875 -0.046875,0.609375 0,0.078125 0.046875,0.140625 0.125,0.140625 0.109375,0 0.125,-0.0625 0.140625,-0.234375 L 7,-5.96875 c 0,-0.125 -0.09375,-0.125 -0.265625,-0.125 h -4.625 c -0.15625,0 -0.265625,0 -0.265625,0.15625 0,0.109375 0.09375,0.109375 0.28125,0.109375 0.03125,0 0.203125,0 0.34375,0.03125 0.1875,0.015625 0.203125,0.0625 0.203125,0.140625 0,0.03125 0,0.046875 -0.046875,0.203125 L 1.4375,-0.6875 c -0.078125,0.328125 -0.09375,0.40625 -0.78125,0.40625 -0.15625,0 -0.265625,0 -0.265625,0.171875 C 0.390625,0 0.484375,0 0.640625,0 H 5.375 c 0.171875,0 0.1875,0 0.21875,-0.03125 0.015625,-0.015625 0.03125,-0.015625 0.078125,-0.140625 0.109375,-0.234375 0.875,-1.9375 0.875,-2.03125 0,-0.0625 -0.046875,-0.109375 -0.125,-0.109375 -0.078125,0 -0.078125,0 -0.171875,0.21875 -0.5625,1.25 -0.9375,1.8125 -2.421875,1.8125 h -1.375 c -0.125,0 -0.140625,0 -0.171875,0 -0.09375,-0.015625 -0.125,-0.03125 -0.125,-0.09375 0,-0.015625 0,-0.03125 0.046875,-0.203125 z m 0,0"
           id="path2778" />
      </g>
      <g
         id="g200">
        <path
           d="m 1.296875,-1.34375 c 0,-0.546875 0.28125,-1.09375 0.8125,-1.109375 -0.046875,0.0625 -0.078125,0.125 -0.078125,0.203125 0,0.171875 0.125,0.28125 0.28125,0.28125 0.171875,0 0.28125,-0.109375 0.28125,-0.28125 0,-0.234375 -0.21875,-0.390625 -0.484375,-0.390625 -0.359375,0 -0.671875,0.21875 -0.859375,0.625 v -0.625 l -0.90625,0.0625 v 0.234375 c 0.421875,0 0.46875,0.046875 0.46875,0.34375 v 1.515625 c 0,0.25 -0.046875,0.25 -0.46875,0.25 V 0 C 0.5,-0.015625 0.9375,-0.03125 1.078125,-0.03125 1.375,-0.03125 1.796875,0 1.875,0 V -0.234375 H 1.75 c -0.453125,0 -0.453125,-0.0625 -0.453125,-0.265625 z m 0,0"
           id="path6133" />
      </g>
    </g>
  </defs>
  <g
     inkscape:label="Layer 1"
     inkscape:groupmode="layer"
     id="layer1">
    <path
       style="display:inline;fill:none;fill-opacity:0.75;fill-rule:evenodd;stroke:#000000;stroke-width:0.132292;stroke-linecap:butt;stroke-linejoin:miter;stroke-dasharray:none;stroke-opacity:1"
       d="M 12.410264,18.924621 V 4.52877"
       id="path2923" />
    <path
       id="rect2788"
       style="display:inline;fill:url(#pattern12);stroke:#000000;stroke-width:0.136754;stroke-miterlimit:4;stroke-dasharray:none;stroke-dashoffset:0;stroke-opacity:1"
       d="m 19.522611,4.30491 c 0,5.0912725 0,10.182545 0,15.273817 -4.956612,0.01757 -9.9132239,0.03514 -14.8698357,0.0527 0,-5.273656 0,-10.5473132 0,-15.8209702 4.9566118,-0.017567 9.9132237,-0.035134 14.8698357,-0.052701 0,0.182384 0,0.364768 0,0.547152 z" />
    <path
       id="path2830"
       d="M 12.348005,17.915149 12.410264,5.8935294"
       style="display:inline;fill:none;fill-opacity:0.75;fill-rule:evenodd;stroke:#ff0000;stroke-width:0.240569;stroke-linecap:butt;stroke-linejoin:miter;stroke-dasharray:none;stroke-opacity:1;marker-start:url(#Triangle);marker-end:url(#Triangle)" />
    <path
       style="display:inline;fill:none;fill-opacity:0.75;fill-rule:evenodd;stroke:#000000;stroke-width:0.132292;stroke-linecap:butt;stroke-linejoin:miter;stroke-dasharray:none;stroke-opacity:1"
       d="M 19.522611,12.012113 4.6527753,12.048354"
       id="path2849"
       sodipodi:nodetypes="cc" />
    <g
       inkscape:label=""
       transform="translate(11.506254,0.91776781)"
       id="g1"
       style="fill:#ff0000">
      <g
         fill="#000000"
         fill-opacity="1"
         id="g4"
         transform="matrix(0.352778,0,0,0.352778,-0.84089,-0.714463)"
         style="fill:#ff0000" />
      <g
         inkscape:label=""
         transform="translate(-0.36875155,0.14577543)"
         id="g5"
         style="fill:#ff0000">
        <g
           fill="#000000"
           fill-opacity="1"
           id="g3"
           transform="matrix(0.352778,0,0,0.352778,-0.84089,-0.714463)"
           style="fill:#ff0000">
          <g
             id="use2"
             transform="translate(1.993,8.1190004)"
             style="fill:#ff0000">
            <path
               d="M 2.8125,-3.03125 H 3.734375 C 4.375,-3.03125 4.5,-2.921875 4.5,-2.625 c 0,0.0625 -0.03125,0.25 -0.0625,0.40625 -0.015625,0.046875 -0.03125,0.09375 -0.03125,0.125 0,0 0,0.109375 0.125,0.109375 0.109375,0 0.109375,-0.0625 0.15625,-0.1875 L 5.15625,-4.0625 C 5.1875,-4.1875 5.1875,-4.203125 5.1875,-4.25 c 0,-0.0625 -0.046875,-0.109375 -0.125,-0.109375 -0.09375,0 -0.109375,0.046875 -0.140625,0.21875 -0.1875,0.71875 -0.46875,0.828125 -1.1875,0.828125 h -0.84375 c 0.125,-0.546875 0.546875,-2.25 0.59375,-2.359375 0.0625,-0.125 0.125,-0.15625 0.421875,-0.15625 h 1.3125 c 1.125,0 1.375,0.28125 1.375,1 0,0.28125 -0.046875,0.546875 -0.046875,0.609375 0,0.078125 0.046875,0.140625 0.125,0.140625 0.109375,0 0.125,-0.0625 0.140625,-0.234375 L 7,-5.96875 c 0,-0.125 -0.09375,-0.125 -0.265625,-0.125 h -4.625 c -0.15625,0 -0.265625,0 -0.265625,0.15625 0,0.109375 0.09375,0.109375 0.28125,0.109375 0.03125,0 0.203125,0 0.34375,0.03125 0.1875,0.015625 0.203125,0.0625 0.203125,0.140625 0,0.03125 0,0.046875 -0.046875,0.203125 L 1.4375,-0.6875 c -0.078125,0.328125 -0.09375,0.40625 -0.78125,0.40625 -0.15625,0 -0.265625,0 -0.265625,0.171875 C 0.390625,0 0.484375,0 0.640625,0 H 5.375 c 0.171875,0 0.1875,0 0.21875,-0.03125 0.015625,-0.015625 0.03125,-0.015625 0.078125,-0.140625 0.109375,-0.234375 0.875,-1.9375 0.875,-2.03125 0,-0.0625 -0.046875,-0.109375 -0.125,-0.109375 -0.078125,0 -0.078125,0 -0.171875,0.21875 -0.5625,1.25 -0.9375,1.8125 -2.421875,1.8125 h -1.375 c -0.125,0 -0.140625,0 -0.171875,0 -0.09375,-0.015625 -0.125,-0.03125 -0.125,-0.09375 0,-0.015625 0,-0.03125 0.046875,-0.203125 z m 0,0"
               id="path4"
               style="fill:#ff0000" />
          </g>
        </g>
        <g
           fill="#000000"
           fill-opacity="1"
           id="g4-1"
           transform="matrix(0.352778,0,0,0.352778,-0.84089,-0.714463)"
           style="fill:#ff0000">
          <g
             id="use3"
             transform="translate(8.7740002,9.1149998)"
             style="fill:#ff0000">
            <path
               d="M 1.296875,-2.34375 H 2.28125 V -2.578125 H 1.296875 V -3.6875 h -0.21875 c 0,0.546875 -0.265625,1.125 -0.859375,1.15625 v 0.1875 H 0.8125 V -0.75 c 0,0.625 0.46875,0.8125 0.875,0.8125 0.40625,0 0.71875,-0.328125 0.71875,-0.8125 V -1.078125 H 2.171875 v 0.3125 c 0,0.421875 -0.21875,0.609375 -0.4375,0.609375 -0.4375,0 -0.4375,-0.484375 -0.4375,-0.59375 z m 0,0"
               id="path5"
               style="fill:#ff0000" />
          </g>
        </g>
      </g>
    </g>
    <g
       inkscape:label=""
       transform="translate(1.3379754,6.9888421)"
       id="g1-2"
       style="fill:#ff0000">
      <g
         fill="#000000"
         fill-opacity="1"
         id="g4-0"
         transform="matrix(0.352778,0,0,0.352778,-0.84089,-0.714463)"
         style="fill:#ff0000" />
      <g
         inkscape:label=""
         transform="translate(-0.36875155,0.14577543)"
         id="g5-6"
         style="fill:#ff0000">
        <g
           fill="#000000"
           fill-opacity="1"
           id="g3-8"
           transform="matrix(0.352778,0,0,0.352778,-0.84089,-0.714463)"
           style="fill:#ff0000">
          <g
             id="use2-9"
             transform="translate(1.993,8.1190004)"
             style="fill:#ff0000">
            <path
               d="M 2.8125,-3.03125 H 3.734375 C 4.375,-3.03125 4.5,-2.921875 4.5,-2.625 c 0,0.0625 -0.03125,0.25 -0.0625,0.40625 -0.015625,0.046875 -0.03125,0.09375 -0.03125,0.125 0,0 0,0.109375 0.125,0.109375 0.109375,0 0.109375,-0.0625 0.15625,-0.1875 L 5.15625,-4.0625 C 5.1875,-4.1875 5.1875,-4.203125 5.1875,-4.25 c 0,-0.0625 -0.046875,-0.109375 -0.125,-0.109375 -0.09375,0 -0.109375,0.046875 -0.140625,0.21875 -0.1875,0.71875 -0.46875,0.828125 -1.1875,0.828125 h -0.84375 c 0.125,-0.546875 0.546875,-2.25 0.59375,-2.359375 0.0625,-0.125 0.125,-0.15625 0.421875,-0.15625 h 1.3125 c 1.125,0 1.375,0.28125 1.375,1 0,0.28125 -0.046875,0.546875 -0.046875,0.609375 0,0.078125 0.046875,0.140625 0.125,0.140625 0.109375,0 0.125,-0.0625 0.140625,-0.234375 L 7,-5.96875 c 0,-0.125 -0.09375,-0.125 -0.265625,-0.125 h -4.625 c -0.15625,0 -0.265625,0 -0.265625,0.15625 0,0.109375 0.09375,0.109375 0.28125,0.109375 0.03125,0 0.203125,0 0.34375,0.03125 0.1875,0.015625 0.203125,0.0625 0.203125,0.140625 0,0.03125 0,0.046875 -0.046875,0.203125 L 1.4375,-0.6875 c -0.078125,0.328125 -0.09375,0.40625 -0.78125,0.40625 -0.15625,0 -0.265625,0 -0.265625,0.171875 C 0.390625,0 0.484375,0 0.640625,0 H 5.375 c 0.171875,0 0.1875,0 0.21875,-0.03125 0.015625,-0.015625 0.03125,-0.015625 0.078125,-0.140625 0.109375,-0.234375 0.875,-1.9375 0.875,-2.03125 0,-0.0625 -0.046875,-0.109375 -0.125,-0.109375 -0.078125,0 -0.078125,0 -0.171875,0.21875 -0.5625,1.25 -0.9375,1.8125 -2.421875,1.8125 h -1.375 c -0.125,0 -0.140625,0 -0.171875,0 -0.09375,-0.015625 -0.125,-0.03125 -0.125,-0.09375 0,-0.015625 0,-0.03125 0.046875,-0.203125 z m 0,0"
               id="path4-2"
               style="fill:#ff0000" />
          </g>
        </g>
        <g
           fill="#000000"
           fill-opacity="1"
           id="g4-1-6"
           transform="matrix(0.352778,0,0,0.352778,-0.84089,-0.714463)"
           style="fill:#ff0000">
          <g
             id="use3-6"
             transform="translate(8.7740002,9.1149998)"
             style="fill:#ff0000">
            <path
               d="M 1.296875,-2.34375 H 2.28125 V -2.578125 H 1.296875 V -3.6875 h -0.21875 c 0,0.546875 -0.265625,1.125 -0.859375,1.15625 v 0.1875 H 0.8125 V -0.75 c 0,0.625 0.46875,0.8125 0.875,0.8125 0.40625,0 0.71875,-0.328125 0.71875,-0.8125 V -1.078125 H 2.171875 v 0.3125 c 0,0.421875 -0.21875,0.609375 -0.4375,0.609375 -0.4375,0 -0.4375,-0.484375 -0.4375,-0.59375 z m 0,0"
               id="path5-4"
               style="fill:#ff0000" />
          </g>
        </g>
      </g>
    </g>
    <path
       id="path1"
       d="M 17.300102,14.821651 6.8579435,8.8647591"
       style="display:inline;fill:none;fill-opacity:0.75;fill-rule:evenodd;stroke:#ff0000;stroke-width:0.240569;stroke-linecap:butt;stroke-linejoin:miter;stroke-dasharray:none;stroke-opacity:1;marker-start:url(#Triangle);marker-end:url(#Triangle)" />
    <g
       inkscape:label=""
       transform="translate(8.1628655,4.7699832)"
       id="g6">
      <g
         fill="#000000"
         fill-opacity="1"
         id="g2"
         transform="matrix(0.352778,0,0,0.352778,-0.873963,-0.658372)">
        <g
           id="use1"
           transform="translate(1.993,7.835)">
          <path
             d="m 0.640625,0.5 c 0,0.421875 -0.0625,0.984375 -0.15625,1.296875 H 1.15625 c 0.09375,-0.1875 0.125,-0.40625 0.125,-1.03125 V -0.34375 c 0.421875,0.328125 0.78125,0.453125 1.25,0.453125 0.953125,0 1.625,-0.71875 1.625,-1.75 0,-0.859375 -0.4375,-1.46875 -1.3125,-1.84375 0.609375,-0.34375 0.890625,-0.703125 0.890625,-1.171875 0,-0.71875 -0.703125,-1.3125 -1.578125,-1.3125 -0.859375,0 -1.515625,0.578125 -1.515625,1.34375 z M 1.28125,-4.703125 c 0,-0.5625 0.34375,-0.96875 0.8125,-0.96875 0.515625,0 0.875,0.46875 0.875,1.109375 0,0.4375 -0.234375,0.890625 -0.4375,0.890625 -0.03125,0 -0.046875,0 -0.171875,-0.03125 -0.125,-0.015625 -0.1875,-0.03125 -0.25,-0.03125 -0.203125,0 -0.359375,0.125 -0.359375,0.28125 0,0.15625 0.15625,0.25 0.359375,0.25 0.046875,0 0.09375,0 0.171875,-0.015625 C 2.375,-3.25 2.453125,-3.25 2.53125,-3.25 c 0.09375,0 0.15625,0.015625 0.203125,0.0625 0.359375,0.328125 0.578125,0.953125 0.578125,1.609375 0,0.796875 -0.359375,1.28125 -0.953125,1.28125 -0.40625,0 -0.796875,-0.1875 -1.078125,-0.5 z m 0,0"
             id="path2" />
        </g>
      </g>
    </g>
    <path
       id="path7"
       d="m 12.364026,14.821651 0.03085,-5.9568919"
       style="display:inline;fill:none;fill-opacity:0.75;fill-rule:evenodd;stroke:#0000ff;stroke-width:0.240569;stroke-linecap:butt;stroke-linejoin:miter;stroke-dasharray:none;stroke-opacity:1;marker-start:url(#Triangle);marker-end:url(#Triangle)"
       sodipodi:nodetypes="cc" />
    <path
       style="fill:none;fill-opacity:0.992157;stroke:#0000ff;stroke-width:0.132292;stroke-linecap:round;stroke-linejoin:round;stroke-dasharray:0.396876, 0.396876;stroke-dashoffset:0"
       d="M 6.8579434,8.8647589 H 12.410264"
       id="path8" />
    <path
       style="fill:none;fill-opacity:0.992157;stroke:#000000;stroke-width:0.132292;stroke-linecap:round;stroke-linejoin:round;stroke-dasharray:none;marker-start:url(#Triangle)"
       id="path6"
       sodipodi:type="arc"
       sodipodi:cx="12.360179"
       sodipodi:cy="11.648803"
       sodipodi:rx="4.5350299"
       sodipodi:ry="4.5350299"
       sodipodi:start="3.8184037"
       sodipodi:end="4.6403093"
       sodipodi:arc-type="arc"
       d="M 8.8247878,8.8084673 A 4.5350299,4.5350299 0 0 1 12.033578,7.1255486"
       sodipodi:open="true" />
    <g
       inkscape:label=""
       transform="translate(13.963342,7.2300753)"
       id="g8"
       style="fill:#0000ff">
      <g
         fill="#000000"
         fill-opacity="1"
         id="g3-1"
         transform="matrix(0.352778,0,0,0.352778,-0.84089,-0.714463)"
         style="fill:#0000ff">
        <g
           id="use2-1"
           transform="translate(1.993,8.1190004)"
           style="fill:#0000ff">
          <path
             d="M 2.8125,-3.03125 H 3.734375 C 4.375,-3.03125 4.5,-2.921875 4.5,-2.625 c 0,0.0625 -0.03125,0.25 -0.0625,0.40625 -0.015625,0.046875 -0.03125,0.09375 -0.03125,0.125 0,0 0,0.109375 0.125,0.109375 0.109375,0 0.109375,-0.0625 0.15625,-0.1875 L 5.15625,-4.0625 C 5.1875,-4.1875 5.1875,-4.203125 5.1875,-4.25 c 0,-0.0625 -0.046875,-0.109375 -0.125,-0.109375 -0.09375,0 -0.109375,0.046875 -0.140625,0.21875 -0.1875,0.71875 -0.46875,0.828125 -1.1875,0.828125 h -0.84375 c 0.125,-0.546875 0.546875,-2.25 0.59375,-2.359375 0.0625,-0.125 0.125,-0.15625 0.421875,-0.15625 h 1.3125 c 1.125,0 1.375,0.28125 1.375,1 0,0.28125 -0.046875,0.546875 -0.046875,0.609375 0,0.078125 0.046875,0.140625 0.125,0.140625 0.109375,0 0.125,-0.0625 0.140625,-0.234375 L 7,-5.96875 c 0,-0.125 -0.09375,-0.125 -0.265625,-0.125 h -4.625 c -0.15625,0 -0.265625,0 -0.265625,0.15625 0,0.109375 0.09375,0.109375 0.28125,0.109375 0.03125,0 0.203125,0 0.34375,0.03125 0.1875,0.015625 0.203125,0.0625 0.203125,0.140625 0,0.03125 0,0.046875 -0.046875,0.203125 L 1.4375,-0.6875 c -0.078125,0.328125 -0.09375,0.40625 -0.78125,0.40625 -0.15625,0 -0.265625,0 -0.265625,0.171875 C 0.390625,0 0.484375,0 0.640625,0 H 5.375 c 0.171875,0 0.1875,0 0.21875,-0.03125 0.015625,-0.015625 0.03125,-0.015625 0.078125,-0.140625 0.109375,-0.234375 0.875,-1.9375 0.875,-2.03125 0,-0.0625 -0.046875,-0.109375 -0.125,-0.109375 -0.078125,0 -0.078125,0 -0.171875,0.21875 -0.5625,1.25 -0.9375,1.8125 -2.421875,1.8125 h -1.375 c -0.125,0 -0.140625,0 -0.171875,0 -0.09375,-0.015625 -0.125,-0.03125 -0.125,-0.09375 0,-0.015625 0,-0.03125 0.046875,-0.203125 z m 0,0"
             id="path4-1"
             style="fill:#0000ff" />
        </g>
      </g>
      <g
         fill="#000000"
         fill-opacity="1"
         id="g4-1-1"
         transform="matrix(0.352778,0,0,0.352778,-0.84089,-0.714463)"
         style="fill:#0000ff">
        <g
           id="use3-1"
           transform="translate(8.7740002,9.1149998)"
           style="fill:#0000ff">
          <path
             d="m 1.296875,-1.34375 c 0,-0.546875 0.28125,-1.09375 0.8125,-1.109375 -0.046875,0.0625 -0.078125,0.125 -0.078125,0.203125 0,0.171875 0.125,0.28125 0.28125,0.28125 0.171875,0 0.28125,-0.109375 0.28125,-0.28125 0,-0.234375 -0.21875,-0.390625 -0.484375,-0.390625 -0.359375,0 -0.671875,0.21875 -0.859375,0.625 v -0.625 l -0.90625,0.0625 v 0.234375 c 0.421875,0 0.46875,0.046875 0.46875,0.34375 v 1.515625 c 0,0.25 -0.046875,0.25 -0.46875,0.25 V 0 C 0.5,-0.015625 0.9375,-0.03125 1.078125,-0.03125 1.375,-0.03125 1.796875,0 1.875,0 V -0.234375 H 1.75 c -0.453125,0 -0.453125,-0.0625 -0.453125,-0.265625 z m 0,0"
             id="path5-1"
             style="fill:#0000ff" />
        </g>
      </g>
    </g>
  </g>
</svg>
