<?xml version="1.0" encoding="UTF-8" standalone="no"?>
<!-- Created with Inkscape (http://www.inkscape.org/) -->

<svg
   width="49.427475mm"
   height="53.764206mm"
   viewBox="0 0 49.427475 53.764206"
   version="1.1"
   id="svg1"
   inkscape:version="1.4.3 (1:1.4.3+202512261035+0d15f75042)"
   sodipodi:docname="c_to_f.svg"
   xmlns:inkscape="http://www.inkscape.org/namespaces/inkscape"
   xmlns:sodipodi="http://sodipodi.sourceforge.net/DTD/sodipodi-0.dtd"
   xmlns="http://www.w3.org/2000/svg"
   xmlns:svg="http://www.w3.org/2000/svg">
  <sodipodi:namedview
     id="namedview1"
     pagecolor="#ffffff"
     bordercolor="#000000"
     borderopacity="0.25"
     inkscape:showpageshadow="2"
     inkscape:pageopacity="0.0"
     inkscape:pagecheckerboard="0"
     inkscape:deskcolor="#d1d1d1"
     inkscape:document-units="mm"
     showgrid="true"
     inkscape:zoom="9.1012023"
     inkscape:cx="79.494991"
     inkscape:cy="129.81801"
     inkscape:window-width="1854"
     inkscape:window-height="1131"
     inkscape:window-x="0"
     inkscape:window-y="0"
     inkscape:window-maximized="1"
     inkscape:current-layer="layer1">
    <inkscape:grid
       id="grid1"
       units="mm"
       originx="0.35842832"
       originy="-1.1756202"
       spacingx="0.26458333"
       spacingy="0.26458334"
       empcolor="#0099e5"
       empopacity="0.30196078"
       color="#0099e5"
       opacity="0.14901961"
       empspacing="5"
       enabled="true"
       visible="true" />
  </sodipodi:namedview>
  <defs
     id="defs1">
    <marker
       style="overflow:visible"
       id="Triangle"
       refX="0"
       refY="0"
       orient="auto-start-reverse"
       inkscape:stockid="Triangle arrow"
       markerWidth="1.618"
       markerHeight="1"
       viewBox="0 0 1 1"
       inkscape:isstock="true"
       inkscape:collect="always"
       preserveAspectRatio="none">
      <path
         transform="scale(0.5)"
         style="fill:context-stroke;fill-rule:evenodd;stroke:context-stroke;stroke-width:1pt"
         d="M 5.77,0 -2.88,5 V -5 Z"
         id="path135" />
    </marker>
    <clipPath
       clipPathUnits="userSpaceOnUse"
       id="clipPath1">
      <path
         d="M 0,0 H 178 V 169 H 0 Z"
         transform="scale(1.0024791,-1)"
         id="path1" />
    </clipPath>
    <clipPath
       clipPathUnits="userSpaceOnUse"
       id="clipPath3">
      <path
         d="M 0,0 H 178 V 169 H 0 Z"
         id="path3-5" />
    </clipPath>
    <clipPath
       clipPathUnits="userSpaceOnUse"
       id="clipPath13">
      <path
         d="M 0,0 H 178 V 169 H 0 Z"
         transform="scale(1.0024791,-1)"
         id="path13" />
    </clipPath>
    <clipPath
       clipPathUnits="userSpaceOnUse"
       id="clipPath37">
      <path
         d="M 0,0 H 178 V 169 H 0 Z"
         transform="scale(1.0024791,-1)"
         id="path37" />
    </clipPath>
    <clipPath
       clipPathUnits="userSpaceOnUse"
       id="clipPath47">
      <path
         d="M 0,0 H 178 V 169 H 0 Z"
         transform="scale(1.0024791,-1)"
         id="path47" />
    </clipPath>
    <clipPath
       clipPathUnits="userSpaceOnUse"
       id="clipPath73">
      <path
         d="M 0,0 H 178 V 169 H 0 Z"
         transform="scale(1.0024791,-1)"
         id="path73" />
    </clipPath>
    <clipPath
       clipPathUnits="userSpaceOnUse"
       id="clipPath75">
      <path
         d="M 0,0 H 178 V 169 H 0 Z"
         transform="scale(1.0024791,-1)"
         id="path75" />
    </clipPath>
    <clipPath
       clipPathUnits="userSpaceOnUse"
       id="clipPath77">
      <path
         d="M 0,0 H 178 V 169 H 0 Z"
         transform="scale(1.0024791,-1)"
         id="path77" />
    </clipPath>
    <clipPath
       clipPathUnits="userSpaceOnUse"
       id="clipPath79">
      <path
         d="M 0,0 H 178 V 169 H 0 Z"
         transform="scale(1.0024791,-1)"
         id="path79" />
    </clipPath>
    <clipPath
       clipPathUnits="userSpaceOnUse"
       id="clipPath31">
      <path
         d="M 0,0 H 178 V 169 H 0 Z"
         transform="scale(1.0024791,-1)"
         id="path31" />
    </clipPath>
    <clipPath
       clipPathUnits="userSpaceOnUse"
       id="clipPath33-7">
      <path
         d="M 0,0 H 178 V 169 H 0 Z"
         transform="scale(1.0024791,-1)"
         id="path33-0" />
    </clipPath>
    <clipPath
       clipPathUnits="userSpaceOnUse"
       id="clipPath35-9">
      <path
         d="M 0,0 H 178 V 169 H 0 Z"
         transform="scale(1.0024791,-1)"
         id="path35-3" />
    </clipPath>
    <clipPath
       clipPathUnits="userSpaceOnUse"
       id="clipPath5">
      <path
         d="M 0,0 H 178 V 169 H 0 Z"
         transform="scale(1.0024791,-1)"
         id="path5" />
    </clipPath>
    <clipPath
       clipPathUnits="userSpaceOnUse"
       id="clipPath7">
      <path
         d="M 0,0 H 178 V 169 H 0 Z"
         transform="scale(1.0024791,-1)"
         id="path7" />
    </clipPath>
    <clipPath
       clipPathUnits="userSpaceOnUse"
       id="clipPath9">
      <path
         d="M 0,0 H 178 V 169 H 0 Z"
         transform="scale(1.0024791,-1)"
         id="path9" />
    </clipPath>
    <clipPath
       clipPathUnits="userSpaceOnUse"
       id="clipPath41">
      <path
         d="M 0,0 H 178 V 169 H 0 Z"
         id="path41" />
    </clipPath>
    <clipPath
       clipPathUnits="userSpaceOnUse"
       id="clipPath5-7">
      <path
         d="M 0,0 H 178 V 169 H 0 Z"
         transform="scale(1.0024791,-1)"
         id="path5-9" />
    </clipPath>
    <clipPath
       clipPathUnits="userSpaceOnUse"
       id="clipPath7-2">
      <path
         d="M 0,0 H 178 V 169 H 0 Z"
         transform="scale(1.0024791,-1)"
         id="path7-0" />
    </clipPath>
    <clipPath
       clipPathUnits="userSpaceOnUse"
       id="clipPath9-2">
      <path
         d="M 0,0 H 178 V 169 H 0 Z"
         transform="scale(1.0024791,-1)"
         id="path9-3" />
    </clipPath>
    <clipPath
       clipPathUnits="userSpaceOnUse"
       id="clipPath41-1">
      <path
         d="M 0,0 H 178 V 169 H 0 Z"
         id="path41-2" />
    </clipPath>
    <clipPath
       clipPathUnits="userSpaceOnUse"
       id="clipPath31-7">
      <path
         d="M 0,0 H 178 V 169 H 0 Z"
         transform="scale(1.0024791,-1)"
         id="path31-8" />
    </clipPath>
    <clipPath
       clipPathUnits="userSpaceOnUse"
       id="clipPath33-7-4">
      <path
         d="M 0,0 H 178 V 169 H 0 Z"
         transform="scale(1.0024791,-1)"
         id="path33-0-5" />
    </clipPath>
    <clipPath
       clipPathUnits="userSpaceOnUse"
       id="clipPath35-9-0">
      <path
         d="M 0,0 H 178 V 169 H 0 Z"
         transform="scale(1.0024791,-1)"
         id="path35-3-3" />
    </clipPath>
    <clipPath
       clipPathUnits="userSpaceOnUse"
       id="clipPath41-6">
      <path
         d="M 0,0 H 178 V 169 H 0 Z"
         id="path41-1" />
    </clipPath>
    <g
       id="g8303">
      <g
         id="g8501">
        <path
           d="m 7.578125,-6.921875 c 0,-0.03125 -0.015625,-0.109375 -0.109375,-0.109375 -0.03125,0 -0.046875,0.015625 -0.15625,0.125 L 6.625,-6.140625 C 6.53125,-6.28125 6.078125,-7.03125 4.96875,-7.03125 2.734375,-7.03125 0.5,-4.828125 0.5,-2.515625 0.5,-0.875 1.671875,0.21875 3.203125,0.21875 c 0.859375,0 1.625,-0.390625 2.15625,-0.859375 0.921875,-0.8125 1.09375,-1.71875 1.09375,-1.75 C 6.453125,-2.5 6.34375,-2.5 6.328125,-2.5 c -0.0625,0 -0.109375,0.03125 -0.125,0.109375 -0.09375,0.28125 -0.328125,1 -1.015625,1.578125 -0.6875,0.546875 -1.3125,0.71875 -1.828125,0.71875 -0.890625,0 -1.953125,-0.515625 -1.953125,-2.0625 0,-0.578125 0.203125,-2.1875 1.203125,-3.359375 0.609375,-0.703125 1.546875,-1.203125 2.4375,-1.203125 1.015625,0 1.609375,0.765625 1.609375,1.921875 0,0.40625 -0.03125,0.40625 -0.03125,0.515625 0,0.09375 0.109375,0.09375 0.140625,0.09375 0.125,0 0.125,-0.015625 0.1875,-0.203125 z m 0,0"
           id="path4463" />
      </g>
    </g>
    <g
       id="g2968">
      <g
         id="g2455">
        <path
           d="m 3.734375,-6.125 c 0.0625,-0.234375 0.09375,-0.328125 0.28125,-0.359375 C 4.109375,-6.5 4.421875,-6.5 4.625,-6.5 c 0.703125,0 1.8125,0 1.8125,0.984375 0,0.34375 -0.15625,1.03125 -0.546875,1.421875 -0.265625,0.25 -0.78125,0.578125 -1.6875,0.578125 H 3.09375 Z m 1.4375,2.734375 c 1.015625,-0.21875 2.1875,-0.921875 2.1875,-1.921875 0,-0.859375 -0.890625,-1.5 -2.203125,-1.5 H 2.328125 c -0.203125,0 -0.296875,0 -0.296875,0.203125 C 2.03125,-6.5 2.125,-6.5 2.3125,-6.5 c 0.015625,0 0.203125,0 0.375,0.015625 0.1875,0.03125 0.265625,0.03125 0.265625,0.171875 0,0.03125 0,0.0625 -0.03125,0.1875 l -1.34375,5.34375 C 1.484375,-0.390625 1.46875,-0.3125 0.671875,-0.3125 0.5,-0.3125 0.40625,-0.3125 0.40625,-0.109375 0.40625,0 0.53125,0 0.546875,0 c 0.28125,0 0.984375,-0.03125 1.25,-0.03125 0.28125,0 1,0.03125 1.28125,0.03125 0.078125,0 0.1875,0 0.1875,-0.203125 0,-0.109375 -0.078125,-0.109375 -0.28125,-0.109375 -0.359375,0 -0.640625,0 -0.640625,-0.171875 0,-0.0625 0.015625,-0.109375 0.03125,-0.171875 l 0.65625,-2.640625 h 1.1875 c 0.90625,0 1.078125,0.5625 1.078125,0.90625 0,0.140625 -0.078125,0.453125 -0.140625,0.6875 C 5.09375,-1.421875 5,-1.0625 5,-0.859375 5,0.21875 6.203125,0.21875 6.328125,0.21875 c 0.84375,0 1.203125,-1 1.203125,-1.140625 0,-0.125 -0.109375,-0.125 -0.125,-0.125 -0.09375,0 -0.109375,0.0625 -0.125,0.140625 C 7.03125,-0.171875 6.59375,0 6.375,0 6.046875,0 5.96875,-0.21875 5.96875,-0.609375 c 0,-0.3125 0.0625,-0.8125 0.109375,-1.140625 0.015625,-0.140625 0.03125,-0.328125 0.03125,-0.46875 0,-0.765625 -0.671875,-1.078125 -0.9375,-1.171875 z m 0,0"
           id="path1575" />
      </g>
    </g>
    <g
       id="g1207">
      <g
         id="g3750">
        <path
           d="m 3.734375,-6.125 c 0.0625,-0.234375 0.09375,-0.328125 0.28125,-0.359375 C 4.109375,-6.5 4.421875,-6.5 4.625,-6.5 c 0.703125,0 1.8125,0 1.8125,0.984375 0,0.34375 -0.15625,1.03125 -0.546875,1.421875 -0.265625,0.25 -0.78125,0.578125 -1.6875,0.578125 H 3.09375 Z m 1.4375,2.734375 c 1.015625,-0.21875 2.1875,-0.921875 2.1875,-1.921875 0,-0.859375 -0.890625,-1.5 -2.203125,-1.5 H 2.328125 c -0.203125,0 -0.296875,0 -0.296875,0.203125 C 2.03125,-6.5 2.125,-6.5 2.3125,-6.5 c 0.015625,0 0.203125,0 0.375,0.015625 0.1875,0.03125 0.265625,0.03125 0.265625,0.171875 0,0.03125 0,0.0625 -0.03125,0.1875 l -1.34375,5.34375 C 1.484375,-0.390625 1.46875,-0.3125 0.671875,-0.3125 0.5,-0.3125 0.40625,-0.3125 0.40625,-0.109375 0.40625,0 0.53125,0 0.546875,0 c 0.28125,0 0.984375,-0.03125 1.25,-0.03125 0.28125,0 1,0.03125 1.28125,0.03125 0.078125,0 0.1875,0 0.1875,-0.203125 0,-0.109375 -0.078125,-0.109375 -0.28125,-0.109375 -0.359375,0 -0.640625,0 -0.640625,-0.171875 0,-0.0625 0.015625,-0.109375 0.03125,-0.171875 l 0.65625,-2.640625 h 1.1875 c 0.90625,0 1.078125,0.5625 1.078125,0.90625 0,0.140625 -0.078125,0.453125 -0.140625,0.6875 C 5.09375,-1.421875 5,-1.0625 5,-0.859375 5,0.21875 6.203125,0.21875 6.328125,0.21875 c 0.84375,0 1.203125,-1 1.203125,-1.140625 0,-0.125 -0.109375,-0.125 -0.125,-0.125 -0.09375,0 -0.109375,0.0625 -0.125,0.140625 C 7.03125,-0.171875 6.59375,0 6.375,0 6.046875,0 5.96875,-0.21875 5.96875,-0.609375 c 0,-0.3125 0.0625,-0.8125 0.109375,-1.140625 0.015625,-0.140625 0.03125,-0.328125 0.03125,-0.46875 0,-0.765625 -0.671875,-1.078125 -0.9375,-1.171875 z m 0,0"
           id="path2585" />
      </g>
      <g
         id="g1493">
        <path
           d="M 3.125,-4.8125 C 3.09375,-4.921875 3.0625,-4.96875 2.9375,-4.96875 c -0.140625,0 -0.15625,0.046875 -0.203125,0.15625 L 1.125,-0.734375 C 1.0625,-0.5625 0.9375,-0.25 0.3125,-0.25 V 0 C 0.546875,-0.015625 0.796875,-0.03125 1.03125,-0.03125 1.3125,-0.03125 1.828125,0 1.875,0 v -0.25 c -0.3125,0 -0.515625,-0.140625 -0.515625,-0.328125 0,-0.0625 0.015625,-0.078125 0.046875,-0.140625 L 1.734375,-1.578125 H 3.71875 L 4.125,-0.5625 c 0,0.03125 0.03125,0.078125 0.03125,0.109375 C 4.15625,-0.25 3.78125,-0.25 3.59375,-0.25 V 0 C 3.9375,-0.015625 4.390625,-0.03125 4.625,-0.03125 4.953125,-0.03125 5.484375,0 5.546875,0 v -0.25 h -0.125 c -0.46875,0 -0.515625,-0.078125 -0.59375,-0.265625 z m -0.40625,0.71875 0.890625,2.265625 h -1.78125 z m 0,0"
           id="path1119" />
      </g>
    </g>
    <g
       id="g9564">
      <g
         id="g6197">
        <path
           d="m 3.734375,-6.125 c 0.0625,-0.234375 0.09375,-0.328125 0.28125,-0.359375 C 4.109375,-6.5 4.421875,-6.5 4.625,-6.5 c 0.703125,0 1.8125,0 1.8125,0.984375 0,0.34375 -0.15625,1.03125 -0.546875,1.421875 -0.265625,0.25 -0.78125,0.578125 -1.6875,0.578125 H 3.09375 Z m 1.4375,2.734375 c 1.015625,-0.21875 2.1875,-0.921875 2.1875,-1.921875 0,-0.859375 -0.890625,-1.5 -2.203125,-1.5 H 2.328125 c -0.203125,0 -0.296875,0 -0.296875,0.203125 C 2.03125,-6.5 2.125,-6.5 2.3125,-6.5 c 0.015625,0 0.203125,0 0.375,0.015625 0.1875,0.03125 0.265625,0.03125 0.265625,0.171875 0,0.03125 0,0.0625 -0.03125,0.1875 l -1.34375,5.34375 C 1.484375,-0.390625 1.46875,-0.3125 0.671875,-0.3125 0.5,-0.3125 0.40625,-0.3125 0.40625,-0.109375 0.40625,0 0.53125,0 0.546875,0 c 0.28125,0 0.984375,-0.03125 1.25,-0.03125 0.28125,0 1,0.03125 1.28125,0.03125 0.078125,0 0.1875,0 0.1875,-0.203125 0,-0.109375 -0.078125,-0.109375 -0.28125,-0.109375 -0.359375,0 -0.640625,0 -0.640625,-0.171875 0,-0.0625 0.015625,-0.109375 0.03125,-0.171875 l 0.65625,-2.640625 h 1.1875 c 0.90625,0 1.078125,0.5625 1.078125,0.90625 0,0.140625 -0.078125,0.453125 -0.140625,0.6875 C 5.09375,-1.421875 5,-1.0625 5,-0.859375 5,0.21875 6.203125,0.21875 6.328125,0.21875 c 0.84375,0 1.203125,-1 1.203125,-1.140625 0,-0.125 -0.109375,-0.125 -0.125,-0.125 -0.09375,0 -0.109375,0.0625 -0.125,0.140625 C 7.03125,-0.171875 6.59375,0 6.375,0 6.046875,0 5.96875,-0.21875 5.96875,-0.609375 c 0,-0.3125 0.0625,-0.8125 0.109375,-1.140625 0.015625,-0.140625 0.03125,-0.328125 0.03125,-0.46875 0,-0.765625 -0.671875,-1.078125 -0.9375,-1.171875 z m 0,0"
           id="path8939" />
      </g>
      <g
         id="g1137">
        <path
           d="m 0.421875,-4.765625 v 0.25 h 0.15625 c 0.546875,0 0.5625,0.078125 0.5625,0.328125 v 3.625 c 0,0.234375 -0.015625,0.3125 -0.5625,0.3125 H 0.421875 V 0 H 3.375 c 0.984375,0 1.703125,-0.609375 1.703125,-1.28125 0,-0.59375 -0.625,-1.109375 -1.46875,-1.203125 0.6875,-0.125 1.25,-0.546875 1.25,-1.09375 0,-0.625 -0.734375,-1.1875 -1.703125,-1.1875 z M 1.75,-2.578125 v -1.65625 c 0,-0.21875 0,-0.28125 0.328125,-0.28125 h 1.03125 c 0.703125,0 1.0625,0.5 1.0625,0.9375 0,0.5 -0.46875,1 -1.265625,1 z M 2.078125,-0.25 C 1.75,-0.25 1.75,-0.3125 1.75,-0.515625 V -2.375 h 1.484375 c 0.734375,0 1.125,0.59375 1.125,1.078125 C 4.359375,-0.78125 3.890625,-0.25 3.125,-0.25 Z m 0,0"
           id="path7416" />
      </g>
    </g>
    <clipPath
       clipPathUnits="userSpaceOnUse"
       id="clipPath41-5">
      <path
         d="M 0,0 H 178 V 169 H 0 Z"
         id="path41-6" />
    </clipPath>
    <clipPath
       clipPathUnits="userSpaceOnUse"
       id="clipPath61">
      <path
         d="M 0,0 H 178 V 169 H 0 Z"
         transform="scale(1.0024791,-1)"
         id="path61" />
    </clipPath>
    <clipPath
       clipPathUnits="userSpaceOnUse"
       id="clipPath59">
      <path
         d="M 0,0 H 178 V 169 H 0 Z"
         transform="scale(1.0024791,-1)"
         id="path59" />
    </clipPath>
    <g
       id="g7985">
      <g
         id="g8660">
        <path
           d="m 4.671875,-3.703125 c 0,-0.546875 -0.265625,-0.703125 -0.4375,-0.703125 -0.25,0 -0.5,0.265625 -0.5,0.484375 0,0.125 0.046875,0.1875 0.15625,0.296875 0.21875,0.203125 0.34375,0.453125 0.34375,0.8125 0,0.421875 -0.609375,2.703125 -1.765625,2.703125 -0.515625,0 -0.75,-0.34375 -0.75,-0.875 0,-0.546875 0.28125,-1.28125 0.578125,-2.109375 0.078125,-0.171875 0.125,-0.3125 0.125,-0.5 0,-0.4375 -0.3125,-0.8125 -0.8125,-0.8125 -0.9375,0 -1.3125,1.453125 -1.3125,1.53125 0,0.109375 0.09375,0.109375 0.109375,0.109375 0.109375,0 0.109375,-0.03125 0.15625,-0.1875 0.296875,-1 0.71875,-1.234375 1.015625,-1.234375 0.078125,0 0.25,0 0.25,0.3125 0,0.25 -0.109375,0.53125 -0.171875,0.703125 -0.4375,1.15625 -0.5625,1.609375 -0.5625,2.046875 0,1.078125 0.875,1.234375 1.328125,1.234375 1.671875,0 2.25,-3.296875 2.25,-3.8125 z m 0,0"
           id="path264" />
      </g>
      <g
         id="g574">
        <path
           d="m 1.765625,-4.1875 c 0,-0.234375 0,-0.328125 0.578125,-0.328125 h 0.171875 v -0.25 c -0.046875,0 -0.796875,0.03125 -1.078125,0.03125 -0.28125,0 -1.046875,-0.03125 -1.078125,-0.03125 v 0.25 H 0.53125 c 0.578125,0 0.578125,0.09375 0.578125,0.328125 v 3.609375 c 0,0.25 0,0.328125 -0.578125,0.328125 H 0.359375 V 0 C 0.40625,0 1.15625,-0.03125 1.4375,-0.03125 1.71875,-0.03125 2.484375,0 2.515625,0 V -0.25 H 2.34375 c -0.578125,0 -0.578125,-0.078125 -0.578125,-0.328125 z m 0,0"
           id="path437" />
      </g>
    </g>
  </defs>
  <g
     inkscape:label="Layer 1"
     inkscape:groupmode="layer"
     id="layer1"
     transform="translate(0.35842832,-1.1756201)">
    <path
       d="m 131.211,-124.711 -50.147,25.074 v -50.148 z"
       style="fill:none;stroke:#000000;stroke-width:0.750929;stroke-linecap:round;stroke-linejoin:bevel;stroke-miterlimit:6;stroke-dasharray:none;stroke-opacity:1"
       transform="matrix(0.35190535,0,0,-0.35277776,-10.322976,-20.050311)"
       clip-path="url(#clipPath1)"
       id="path2" />
    <path
       d="m 83.672,109.707 v 0.684 h 6.547 v -0.684 z m 3.605,27.332 h -0.695 v 3 h -2.953 v 0.68 h 2.953 v 3 h 0.695 v -3 h 2.965 v -0.68 h -2.965 z"
       style="fill:#000000;fill-opacity:1;fill-rule:nonzero;stroke:none;stroke-width:0.75;stroke-dasharray:none"
       transform="matrix(0.35277776,0,0,0.35277776,-10.178393,-20.834536)"
       clip-path="url(#clipPath3)"
       id="path4" />
    <path
       d="M 81.064,-109.668 H 71.031"
       style="fill:none;stroke:#000000;stroke-width:0.750929;stroke-linecap:round;stroke-linejoin:bevel;stroke-miterlimit:6;stroke-dasharray:none;stroke-opacity:1"
       transform="matrix(0.35190535,0,0,-0.35277776,-10.322976,-20.050311)"
       clip-path="url(#clipPath13)"
       id="path14" />
    <path
       d="m 131.211,-124.711 h 15.00594"
       style="fill:none;stroke:#000000;stroke-width:0.750929;stroke-linecap:round;stroke-linejoin:bevel;stroke-miterlimit:6;stroke-dasharray:none;stroke-opacity:1"
       transform="matrix(0.35190535,0,0,-0.35277776,-10.322976,-20.050311)"
       clip-path="url(#clipPath37)"
       id="path38"
       sodipodi:nodetypes="cc" />
    <path
       d="M 71.031,-139.758 H 81.064"
       style="fill:none;stroke:#000000;stroke-width:0.750929;stroke-linecap:round;stroke-linejoin:bevel;stroke-miterlimit:6;stroke-dasharray:none;stroke-opacity:1"
       transform="matrix(0.35190535,0,0,-0.35277776,-10.322976,-20.050311)"
       clip-path="url(#clipPath47)"
       id="path48" />
    <path
       d="M 110.78531,-19.398 H 92.082252"
       style="fill:none;stroke:#000000;stroke-width:0.814931;stroke-linecap:round;stroke-linejoin:bevel;stroke-miterlimit:6;stroke-dasharray:none;stroke-opacity:1"
       transform="matrix(0,-0.32434296,-0.32514704,0,0.29602513,63.056439)"
       clip-path="url(#clipPath73)"
       id="path74"
       sodipodi:nodetypes="cc" />
    <path
       d="m 111.31906,-19.398 h 18.32153"
       style="fill:none;stroke:#000000;stroke-width:0.814931;stroke-linecap:round;stroke-linejoin:bevel;stroke-miterlimit:6;stroke-dasharray:none;stroke-opacity:1"
       transform="matrix(0,-0.32434296,-0.32514704,0,0.29602513,62.009049)"
       clip-path="url(#clipPath75)"
       id="path76"
       sodipodi:nodetypes="cc" />
    <path
       d="M 113.033,-29.426 V -9.367"
       style="fill:none;stroke:#000000;stroke-width:0.814931;stroke-linecap:round;stroke-linejoin:bevel;stroke-miterlimit:6;stroke-dasharray:none;stroke-opacity:1"
       transform="matrix(0,-0.32434296,-0.32514704,0,0.29602513,62.564959)"
       clip-path="url(#clipPath77)"
       id="path78" />
    <path
       d="M 109.27,-29.426 V -9.367"
       style="fill:none;stroke:#000000;stroke-width:0.814931;stroke-linecap:round;stroke-linejoin:bevel;stroke-miterlimit:6;stroke-dasharray:none;stroke-opacity:1"
       transform="matrix(0,-0.32434296,-0.32514704,0,0.29602513,62.564959)"
       clip-path="url(#clipPath79)"
       id="path80" />
    <path
       d="M 121.183,-94.621 H 101.121"
       style="fill:none;stroke:#000000;stroke-width:0.750929;stroke-linecap:round;stroke-linejoin:bevel;stroke-miterlimit:6;stroke-dasharray:none;stroke-opacity:1"
       transform="matrix(0.35190535,0,0,-0.35277776,-32.511756,-0.18998124)"
       clip-path="url(#clipPath31)"
       id="path32" />
    <path
       d="M 116.793,-99.012 H 105.511"
       style="fill:none;stroke:#000000;stroke-width:0.750929;stroke-linecap:round;stroke-linejoin:bevel;stroke-miterlimit:6;stroke-dasharray:none;stroke-opacity:1"
       transform="matrix(0.35190535,0,0,-0.35277776,-32.511756,-0.18998124)"
       clip-path="url(#clipPath33-7)"
       id="path34" />
    <path
       d="m 112.407,-103.398 h -2.51"
       style="fill:none;stroke:#000000;stroke-width:0.750929;stroke-linecap:round;stroke-linejoin:bevel;stroke-miterlimit:6;stroke-dasharray:none;stroke-opacity:1"
       transform="matrix(0.35190535,0,0,-0.35277776,-32.511756,-0.18998124)"
       clip-path="url(#clipPath35-9)"
       id="path36" />
    <path
       d="M 121.183,-94.621 H 101.121"
       style="fill:none;stroke:#000000;stroke-width:0.750929;stroke-linecap:round;stroke-linejoin:bevel;stroke-miterlimit:6;stroke-dasharray:none;stroke-opacity:1"
       transform="matrix(0.35190535,0,0,-0.35277776,-24.441771,18.330854)"
       clip-path="url(#clipPath31-7)"
       id="path32-0" />
    <path
       d="M 116.793,-99.012 H 105.511"
       style="fill:none;stroke:#000000;stroke-width:0.750929;stroke-linecap:round;stroke-linejoin:bevel;stroke-miterlimit:6;stroke-dasharray:none;stroke-opacity:1"
       transform="matrix(0.35190535,0,0,-0.35277776,-24.441771,18.330854)"
       clip-path="url(#clipPath33-7-4)"
       id="path34-6" />
    <path
       d="m 112.407,-103.398 h -2.51"
       style="fill:none;stroke:#000000;stroke-width:0.750929;stroke-linecap:round;stroke-linejoin:bevel;stroke-miterlimit:6;stroke-dasharray:none;stroke-opacity:1"
       transform="matrix(0.35190535,0,0,-0.35277776,-24.441771,18.330854)"
       clip-path="url(#clipPath35-9-0)"
       id="path36-3" />
    <g
       id="g6"
       transform="matrix(0.26458333,0,0,0.26458333,10.639309,-31.956562)"
       style="stroke-width:1;stroke-dasharray:none">
      <path
         d="M 52.817504,-109.668 H 61.002"
         style="fill:none;stroke:#000000;stroke-width:0.750929;stroke-linecap:round;stroke-linejoin:bevel;stroke-miterlimit:6;stroke-dasharray:none;stroke-opacity:1"
         transform="scale(1.330036,-1.3333333)"
         clip-path="url(#clipPath5)"
         id="path6"
         sodipodi:nodetypes="cc" />
    </g>
    <g
       id="g8"
       transform="matrix(0.26458333,0,0,0.26458333,11.527881,-31.956562)"
       style="stroke-width:1;stroke-dasharray:none">
      <path
         d="M 27.725472,-109.668 H 20.884"
         style="fill:none;stroke:#000000;stroke-width:0.750929;stroke-linecap:round;stroke-linejoin:bevel;stroke-miterlimit:6;stroke-dasharray:none;stroke-opacity:1"
         transform="scale(1.330036,-1.3333333)"
         clip-path="url(#clipPath7)"
         id="path8"
         sodipodi:nodetypes="cc" />
    </g>
    <g
       id="g10"
       transform="matrix(0.26458333,0,0,0.26458333,10.736964,-31.956562)"
       style="stroke-width:1;stroke-dasharray:none">
      <path
         d="m 52.54,-109.668 -1.88,4.391 -3.763,-9.09 -3.446,9.09 -3.763,-9.09 -4.073,9.09 -3.45,-8.465 -2.192,4.074"
         style="fill:none;stroke:#000000;stroke-width:0.750929;stroke-linecap:round;stroke-linejoin:bevel;stroke-miterlimit:6;stroke-dasharray:none;stroke-opacity:1"
         transform="scale(1.330036,-1.3333333)"
         clip-path="url(#clipPath9)"
         id="path10" />
    </g>
    <path
       style="fill:none;stroke:#000000;stroke-width:0.264583;stroke-linecap:square;stroke-linejoin:round;stroke-dasharray:none;paint-order:markers fill stroke"
       d="M 6.6032271,19.961037 V 6.7318678 l 12.0387359,1e-6"
       id="path3"
       sodipodi:nodetypes="ccc" />
    <path
       style="fill:none;stroke:#000000;stroke-width:0.264583;stroke-linecap:square;stroke-linejoin:round;stroke-dasharray:none;paint-order:markers fill stroke"
       d="M 14.673213,18.638121 H 6.6032271"
       id="path11"
       sodipodi:nodetypes="cc" />
    <path
       d="m 152.773,124.711 c 0,-1.039 -0.839,-1.879 -1.875,-1.879 -1.035,0 -1.875,0.84 -1.875,1.879 0,1.039 0.84,1.883 1.875,1.883 1.036,0 1.875,-0.844 1.875,-1.883"
       style="fill:#000000;fill-opacity:1;fill-rule:evenodd;stroke:none"
       transform="matrix(0.35277776,0,0,0.35277776,-46.630231,-25.357147)"
       clip-path="url(#clipPath41)"
       id="path15" />
    <path
       d="m 152.773,124.711 c 0,-1.039 -0.839,-1.879 -1.875,-1.879 -1.035,0 -1.875,0.84 -1.875,1.879 0,1.039 0.84,1.883 1.875,1.883 1.036,0 1.875,-0.844 1.875,-1.883"
       style="fill:#000000;fill-opacity:1;fill-rule:evenodd;stroke:none"
       transform="matrix(0.35277776,0,0,0.35277776,-12.101914,-20.06548)"
       clip-path="url(#clipPath41-6)"
       id="path15-4" />
    <path
       d="m 152.773,124.711 c 0,-1.039 -0.839,-1.879 -1.875,-1.879 -1.035,0 -1.875,0.84 -1.875,1.879 0,1.039 0.84,1.883 1.875,1.883 1.036,0 1.875,-0.844 1.875,-1.883"
       style="fill:#000000;fill-opacity:1;fill-rule:evenodd;stroke:none"
       transform="matrix(0.35277776,0,0,0.35277776,-38.560246,-5.5133962)"
       clip-path="url(#clipPath41-1)"
       id="path15-1" />
    <g
       id="g6-9"
       transform="matrix(0.26458333,0,0,0.26458333,11.727115,-0.20656124)"
       style="stroke-width:1;stroke-dasharray:none">
      <path
         d="M 52.817504,-109.668 H 61.002"
         style="fill:none;stroke:#000000;stroke-width:0.750929;stroke-linecap:round;stroke-linejoin:bevel;stroke-miterlimit:6;stroke-dasharray:none;stroke-opacity:1"
         transform="scale(1.330036,-1.3333333)"
         clip-path="url(#clipPath5-7)"
         id="path6-2"
         sodipodi:nodetypes="cc" />
    </g>
    <g
       id="g8-2"
       transform="matrix(0.26458333,0,0,0.26458333,12.615687,-0.20656124)"
       style="stroke-width:1;stroke-dasharray:none">
      <path
         d="M 27.725472,-109.668 H 20.884"
         style="fill:none;stroke:#000000;stroke-width:0.750929;stroke-linecap:round;stroke-linejoin:bevel;stroke-miterlimit:6;stroke-dasharray:none;stroke-opacity:1"
         transform="scale(1.330036,-1.3333333)"
         clip-path="url(#clipPath7-2)"
         id="path8-8"
         sodipodi:nodetypes="cc" />
    </g>
    <g
       id="g10-9"
       transform="matrix(0.26458333,0,0,0.26458333,11.82477,-0.20656124)"
       style="stroke-width:1;stroke-dasharray:none">
      <path
         d="m 52.54,-109.668 -1.88,4.391 -3.763,-9.09 -3.446,9.09 -3.763,-9.09 -4.073,9.09 -3.45,-8.465 -2.192,4.074"
         style="fill:none;stroke:#000000;stroke-width:0.750929;stroke-linecap:round;stroke-linejoin:bevel;stroke-miterlimit:6;stroke-dasharray:none;stroke-opacity:1"
         transform="scale(1.330036,-1.3333333)"
         clip-path="url(#clipPath9-2)"
         id="path10-7" />
    </g>
    <g
       id="g12"
       transform="matrix(0,-0.26458333,0.26458333,0,-24.015219,59.948802)"
       style="stroke-width:1;stroke-dasharray:none">
      <path
         d="M 52.817504,-109.668 H 61.002"
         style="fill:none;stroke:#000000;stroke-width:0.750929;stroke-linecap:round;stroke-linejoin:bevel;stroke-miterlimit:6;stroke-dasharray:none;stroke-opacity:1"
         transform="scale(1.330036,-1.3333333)"
         clip-path="url(#clipPath5-7)"
         id="path12"
         sodipodi:nodetypes="cc" />
    </g>
    <g
       id="g16"
       transform="matrix(0,-0.26458333,0.26458333,0,-24.015219,59.06023)"
       style="stroke-width:1;stroke-dasharray:none">
      <path
         d="M 27.725472,-109.668 H 20.884"
         style="fill:none;stroke:#000000;stroke-width:0.750929;stroke-linecap:round;stroke-linejoin:bevel;stroke-miterlimit:6;stroke-dasharray:none;stroke-opacity:1"
         transform="scale(1.330036,-1.3333333)"
         clip-path="url(#clipPath7-2)"
         id="path16"
         sodipodi:nodetypes="cc" />
    </g>
    <g
       id="g17"
       transform="matrix(0,-0.26458333,0.26458333,0,-24.015219,59.851147)"
       style="stroke-width:1;stroke-dasharray:none">
      <path
         d="m 52.54,-109.668 -1.88,4.391 -3.763,-9.09 -3.446,9.09 -3.763,-9.09 -4.073,9.09 -3.45,-8.465 -2.192,4.074"
         style="fill:none;stroke:#000000;stroke-width:0.750929;stroke-linecap:round;stroke-linejoin:bevel;stroke-miterlimit:6;stroke-dasharray:none;stroke-opacity:1"
         transform="scale(1.330036,-1.3333333)"
         clip-path="url(#clipPath9-2)"
         id="path17" />
    </g>
    <path
       style="fill:none;stroke:#000000;stroke-width:0.264583;stroke-linecap:square;stroke-linejoin:round;stroke-dasharray:none;paint-order:markers fill stroke"
       d="m 14.673213,29.253202 v 9.228669 h 5.291666"
       id="path18" />
    <path
       style="fill:none;stroke:#000000;stroke-width:0.264583;stroke-linecap:square;stroke-linejoin:round;stroke-dasharray:none;marker-end:url(#Triangle);paint-order:markers fill stroke"
       d="m 4.0898801,29.221455 5.291666,-5.291667"
       id="path19" />
    <path
       style="fill:none;stroke:#000000;stroke-width:0.264583;stroke-linecap:square;stroke-linejoin:round;stroke-dasharray:none;paint-order:markers fill stroke"
       d="m 33.194044,38.481871 h 7.9375 V 6.7318698 h -9.260415"
       id="path20"
       sodipodi:nodetypes="cccc" />
    <g
       inkscape:label=""
       transform="translate(-0.12678126,25.262195)"
       id="g20">
      <g
         fill="#000000"
         fill-opacity="1"
         id="g2"
         transform="matrix(0.352778,0,0,0.352778,-0.879475,-0.623976)">
        <g
           id="use1"
           transform="translate(1.993,8.8000002)">
          <path
             d="m 7.578125,-6.921875 c 0,-0.03125 -0.015625,-0.109375 -0.109375,-0.109375 -0.03125,0 -0.046875,0.015625 -0.15625,0.125 L 6.625,-6.140625 C 6.53125,-6.28125 6.078125,-7.03125 4.96875,-7.03125 2.734375,-7.03125 0.5,-4.828125 0.5,-2.515625 0.5,-0.875 1.671875,0.21875 3.203125,0.21875 c 0.859375,0 1.625,-0.390625 2.15625,-0.859375 0.921875,-0.8125 1.09375,-1.71875 1.09375,-1.75 C 6.453125,-2.5 6.34375,-2.5 6.328125,-2.5 c -0.0625,0 -0.109375,0.03125 -0.125,0.109375 -0.09375,0.28125 -0.328125,1 -1.015625,1.578125 -0.6875,0.546875 -1.3125,0.71875 -1.828125,0.71875 -0.890625,0 -1.953125,-0.515625 -1.953125,-2.0625 0,-0.578125 0.203125,-2.1875 1.203125,-3.359375 0.609375,-0.703125 1.546875,-1.203125 2.4375,-1.203125 1.015625,0 1.609375,0.765625 1.609375,1.921875 0,0.40625 -0.03125,0.40625 -0.03125,0.515625 0,0.09375 0.109375,0.09375 0.140625,0.09375 0.125,0 0.125,-0.015625 0.1875,-0.203125 z m 0,0"
             id="path2-1" />
        </g>
      </g>
    </g>
    <g
       inkscape:label=""
       transform="translate(23.966837,1.7804237)"
       id="g21">
      <g
         fill="#000000"
         fill-opacity="1"
         id="g2-1"
         transform="matrix(0.352778,0,0,0.352778,-0.846402,-0.701146)">
        <g
           id="use1-1"
           transform="translate(1.993,8.8000002)">
          <path
             d="m 3.734375,-6.125 c 0.0625,-0.234375 0.09375,-0.328125 0.28125,-0.359375 C 4.109375,-6.5 4.421875,-6.5 4.625,-6.5 c 0.703125,0 1.8125,0 1.8125,0.984375 0,0.34375 -0.15625,1.03125 -0.546875,1.421875 -0.265625,0.25 -0.78125,0.578125 -1.6875,0.578125 H 3.09375 Z m 1.4375,2.734375 c 1.015625,-0.21875 2.1875,-0.921875 2.1875,-1.921875 0,-0.859375 -0.890625,-1.5 -2.203125,-1.5 H 2.328125 c -0.203125,0 -0.296875,0 -0.296875,0.203125 C 2.03125,-6.5 2.125,-6.5 2.3125,-6.5 c 0.015625,0 0.203125,0 0.375,0.015625 0.1875,0.03125 0.265625,0.03125 0.265625,0.171875 0,0.03125 0,0.0625 -0.03125,0.1875 l -1.34375,5.34375 C 1.484375,-0.390625 1.46875,-0.3125 0.671875,-0.3125 0.5,-0.3125 0.40625,-0.3125 0.40625,-0.109375 0.40625,0 0.53125,0 0.546875,0 c 0.28125,0 0.984375,-0.03125 1.25,-0.03125 0.28125,0 1,0.03125 1.28125,0.03125 0.078125,0 0.1875,0 0.1875,-0.203125 0,-0.109375 -0.078125,-0.109375 -0.28125,-0.109375 -0.359375,0 -0.640625,0 -0.640625,-0.171875 0,-0.0625 0.015625,-0.109375 0.03125,-0.171875 l 0.65625,-2.640625 h 1.1875 c 0.90625,0 1.078125,0.5625 1.078125,0.90625 0,0.140625 -0.078125,0.453125 -0.140625,0.6875 C 5.09375,-1.421875 5,-1.0625 5,-0.859375 5,0.21875 6.203125,0.21875 6.328125,0.21875 c 0.84375,0 1.203125,-1 1.203125,-1.140625 0,-0.125 -0.109375,-0.125 -0.125,-0.125 -0.09375,0 -0.109375,0.0625 -0.125,0.140625 C 7.03125,-0.171875 6.59375,0 6.375,0 6.046875,0 5.96875,-0.21875 5.96875,-0.609375 c 0,-0.3125 0.0625,-0.8125 0.109375,-1.140625 0.015625,-0.140625 0.03125,-0.328125 0.03125,-0.46875 0,-0.765625 -0.671875,-1.078125 -0.9375,-1.171875 z m 0,0"
             id="path2-1-1" />
        </g>
      </g>
    </g>
    <g
       inkscape:label=""
       transform="translate(24.30859,33.089453)"
       id="g22">
      <g
         fill="#000000"
         fill-opacity="1"
         id="g3"
         transform="matrix(0.352778,0,0,0.352778,-0.846402,-0.701146)">
        <g
           id="use2"
           transform="translate(1.993,8.8000002)">
          <path
             d="m 3.734375,-6.125 c 0.0625,-0.234375 0.09375,-0.328125 0.28125,-0.359375 C 4.109375,-6.5 4.421875,-6.5 4.625,-6.5 c 0.703125,0 1.8125,0 1.8125,0.984375 0,0.34375 -0.15625,1.03125 -0.546875,1.421875 -0.265625,0.25 -0.78125,0.578125 -1.6875,0.578125 H 3.09375 Z m 1.4375,2.734375 c 1.015625,-0.21875 2.1875,-0.921875 2.1875,-1.921875 0,-0.859375 -0.890625,-1.5 -2.203125,-1.5 H 2.328125 c -0.203125,0 -0.296875,0 -0.296875,0.203125 C 2.03125,-6.5 2.125,-6.5 2.3125,-6.5 c 0.015625,0 0.203125,0 0.375,0.015625 0.1875,0.03125 0.265625,0.03125 0.265625,0.171875 0,0.03125 0,0.0625 -0.03125,0.1875 l -1.34375,5.34375 C 1.484375,-0.390625 1.46875,-0.3125 0.671875,-0.3125 0.5,-0.3125 0.40625,-0.3125 0.40625,-0.109375 0.40625,0 0.53125,0 0.546875,0 c 0.28125,0 0.984375,-0.03125 1.25,-0.03125 0.28125,0 1,0.03125 1.28125,0.03125 0.078125,0 0.1875,0 0.1875,-0.203125 0,-0.109375 -0.078125,-0.109375 -0.28125,-0.109375 -0.359375,0 -0.640625,0 -0.640625,-0.171875 0,-0.0625 0.015625,-0.109375 0.03125,-0.171875 l 0.65625,-2.640625 h 1.1875 c 0.90625,0 1.078125,0.5625 1.078125,0.90625 0,0.140625 -0.078125,0.453125 -0.140625,0.6875 C 5.09375,-1.421875 5,-1.0625 5,-0.859375 5,0.21875 6.203125,0.21875 6.328125,0.21875 c 0.84375,0 1.203125,-1 1.203125,-1.140625 0,-0.125 -0.109375,-0.125 -0.125,-0.125 -0.09375,0 -0.109375,0.0625 -0.125,0.140625 C 7.03125,-0.171875 6.59375,0 6.375,0 6.046875,0 5.96875,-0.21875 5.96875,-0.609375 c 0,-0.3125 0.0625,-0.8125 0.109375,-1.140625 0.015625,-0.140625 0.03125,-0.328125 0.03125,-0.46875 0,-0.765625 -0.671875,-1.078125 -0.9375,-1.171875 z m 0,0"
             id="path4-1" />
        </g>
      </g>
      <g
         fill="#000000"
         fill-opacity="1"
         id="g4"
         transform="matrix(0.352778,0,0,0.352778,-0.846402,-0.701146)">
        <g
           id="use3"
           transform="translate(9.5570002,10.294)">
          <path
             d="M 3.125,-4.8125 C 3.09375,-4.921875 3.0625,-4.96875 2.9375,-4.96875 c -0.140625,0 -0.15625,0.046875 -0.203125,0.15625 L 1.125,-0.734375 C 1.0625,-0.5625 0.9375,-0.25 0.3125,-0.25 V 0 C 0.546875,-0.015625 0.796875,-0.03125 1.03125,-0.03125 1.3125,-0.03125 1.828125,0 1.875,0 v -0.25 c -0.3125,0 -0.515625,-0.140625 -0.515625,-0.328125 0,-0.0625 0.015625,-0.078125 0.046875,-0.140625 L 1.734375,-1.578125 H 3.71875 L 4.125,-0.5625 c 0,0.03125 0.03125,0.078125 0.03125,0.109375 C 4.15625,-0.25 3.78125,-0.25 3.59375,-0.25 V 0 C 3.9375,-0.015625 4.390625,-0.03125 4.625,-0.03125 4.953125,-0.03125 5.484375,0 5.546875,0 v -0.25 h -0.125 c -0.46875,0 -0.515625,-0.078125 -0.59375,-0.265625 z m -0.40625,0.71875 0.890625,2.265625 h -1.78125 z m 0,0"
             id="path5-1" />
        </g>
      </g>
    </g>
    <g
       inkscape:label=""
       transform="translate(17.621682,44.062285)"
       id="g23">
      <g
         fill="#000000"
         fill-opacity="1"
         id="g3-1"
         transform="matrix(0.352778,0,0,0.352778,-0.846402,-0.701146)">
        <g
           id="use2-1"
           transform="translate(1.993,8.8000002)">
          <path
             d="m 3.734375,-6.125 c 0.0625,-0.234375 0.09375,-0.328125 0.28125,-0.359375 C 4.109375,-6.5 4.421875,-6.5 4.625,-6.5 c 0.703125,0 1.8125,0 1.8125,0.984375 0,0.34375 -0.15625,1.03125 -0.546875,1.421875 -0.265625,0.25 -0.78125,0.578125 -1.6875,0.578125 H 3.09375 Z m 1.4375,2.734375 c 1.015625,-0.21875 2.1875,-0.921875 2.1875,-1.921875 0,-0.859375 -0.890625,-1.5 -2.203125,-1.5 H 2.328125 c -0.203125,0 -0.296875,0 -0.296875,0.203125 C 2.03125,-6.5 2.125,-6.5 2.3125,-6.5 c 0.015625,0 0.203125,0 0.375,0.015625 0.1875,0.03125 0.265625,0.03125 0.265625,0.171875 0,0.03125 0,0.0625 -0.03125,0.1875 l -1.34375,5.34375 C 1.484375,-0.390625 1.46875,-0.3125 0.671875,-0.3125 0.5,-0.3125 0.40625,-0.3125 0.40625,-0.109375 0.40625,0 0.53125,0 0.546875,0 c 0.28125,0 0.984375,-0.03125 1.25,-0.03125 0.28125,0 1,0.03125 1.28125,0.03125 0.078125,0 0.1875,0 0.1875,-0.203125 0,-0.109375 -0.078125,-0.109375 -0.28125,-0.109375 -0.359375,0 -0.640625,0 -0.640625,-0.171875 0,-0.0625 0.015625,-0.109375 0.03125,-0.171875 l 0.65625,-2.640625 h 1.1875 c 0.90625,0 1.078125,0.5625 1.078125,0.90625 0,0.140625 -0.078125,0.453125 -0.140625,0.6875 C 5.09375,-1.421875 5,-1.0625 5,-0.859375 5,0.21875 6.203125,0.21875 6.328125,0.21875 c 0.84375,0 1.203125,-1 1.203125,-1.140625 0,-0.125 -0.109375,-0.125 -0.125,-0.125 -0.09375,0 -0.109375,0.0625 -0.125,0.140625 C 7.03125,-0.171875 6.59375,0 6.375,0 6.046875,0 5.96875,-0.21875 5.96875,-0.609375 c 0,-0.3125 0.0625,-0.8125 0.109375,-1.140625 0.015625,-0.140625 0.03125,-0.328125 0.03125,-0.46875 0,-0.765625 -0.671875,-1.078125 -0.9375,-1.171875 z m 0,0"
             id="path4-1-1" />
        </g>
      </g>
      <g
         fill="#000000"
         fill-opacity="1"
         id="g4-1"
         transform="matrix(0.352778,0,0,0.352778,-0.846402,-0.701146)">
        <g
           id="use3-1"
           transform="translate(9.5570002,10.294)">
          <path
             d="m 0.421875,-4.765625 v 0.25 h 0.15625 c 0.546875,0 0.5625,0.078125 0.5625,0.328125 v 3.625 c 0,0.234375 -0.015625,0.3125 -0.5625,0.3125 H 0.421875 V 0 H 3.375 c 0.984375,0 1.703125,-0.609375 1.703125,-1.28125 0,-0.59375 -0.625,-1.109375 -1.46875,-1.203125 0.6875,-0.125 1.25,-0.546875 1.25,-1.09375 0,-0.625 -0.734375,-1.1875 -1.703125,-1.1875 z M 1.75,-2.578125 v -1.65625 c 0,-0.21875 0,-0.28125 0.328125,-0.28125 h 1.03125 c 0.703125,0 1.0625,0.5 1.0625,0.9375 0,0.5 -0.46875,1 -1.265625,1 z M 2.078125,-0.25 C 1.75,-0.25 1.75,-0.3125 1.75,-0.515625 V -2.375 h 1.484375 c 0.734375,0 1.125,0.59375 1.125,1.078125 C 4.359375,-0.78125 3.890625,-0.25 3.125,-0.25 Z m 0,0"
             id="path5-1-1" />
        </g>
      </g>
    </g>
    <path
       d="M 168.18708,-124.711 H 151.27209"
       style="fill:none;stroke:#000000;stroke-width:0.752112;stroke-linecap:round;stroke-linejoin:bevel;stroke-miterlimit:6;stroke-dasharray:none;stroke-opacity:1"
       transform="matrix(0.35190535,0,0,-0.35277776,-12.10191,-20.050311)"
       clip-path="url(#clipPath61)"
       id="path62"
       sodipodi:nodetypes="cc" />
    <path
       d="m 168.197,-124.711 c 0,1.039 -0.842,1.879 -1.879,1.879 -1.038,0 -1.884,-0.84 -1.884,-1.879 0,-1.039 0.846,-1.883 1.884,-1.883 1.037,0 1.879,0.844 1.879,1.883"
       style="fill:none;stroke:#000000;stroke-width:0.814931;stroke-linecap:round;stroke-linejoin:bevel;stroke-miterlimit:6;stroke-dasharray:none;stroke-opacity:1"
       transform="matrix(0.35190535,0,0,-0.35277776,-10.78119,-20.050311)"
       clip-path="url(#clipPath59)"
       id="path60" />
    <g
       inkscape:label=""
       transform="translate(46.582754,20.464759)"
       id="g24">
      <g
         fill="#000000"
         fill-opacity="1"
         id="g3-1-1"
         transform="matrix(0.352778,0,0,0.352778,-0.807817,-0.661723)">
        <g
           id="use2-1-1"
           transform="translate(1.993,6.2820001)">
          <path
             d="m 4.671875,-3.703125 c 0,-0.546875 -0.265625,-0.703125 -0.4375,-0.703125 -0.25,0 -0.5,0.265625 -0.5,0.484375 0,0.125 0.046875,0.1875 0.15625,0.296875 0.21875,0.203125 0.34375,0.453125 0.34375,0.8125 0,0.421875 -0.609375,2.703125 -1.765625,2.703125 -0.515625,0 -0.75,-0.34375 -0.75,-0.875 0,-0.546875 0.28125,-1.28125 0.578125,-2.109375 0.078125,-0.171875 0.125,-0.3125 0.125,-0.5 0,-0.4375 -0.3125,-0.8125 -0.8125,-0.8125 -0.9375,0 -1.3125,1.453125 -1.3125,1.53125 0,0.109375 0.09375,0.109375 0.109375,0.109375 0.109375,0 0.109375,-0.03125 0.15625,-0.1875 0.296875,-1 0.71875,-1.234375 1.015625,-1.234375 0.078125,0 0.25,0 0.25,0.3125 0,0.25 -0.109375,0.53125 -0.171875,0.703125 -0.4375,1.15625 -0.5625,1.609375 -0.5625,2.046875 0,1.078125 0.875,1.234375 1.328125,1.234375 1.671875,0 2.25,-3.296875 2.25,-3.8125 z m 0,0"
             id="path4-1-1-1" />
        </g>
      </g>
      <g
         fill="#000000"
         fill-opacity="1"
         id="g4-1-1"
         transform="matrix(0.352778,0,0,0.352778,-0.807817,-0.661723)">
        <g
           id="use3-1-1"
           transform="translate(6.822,7.776)">
          <path
             d="m 1.765625,-4.1875 c 0,-0.234375 0,-0.328125 0.578125,-0.328125 h 0.171875 v -0.25 c -0.046875,0 -0.796875,0.03125 -1.078125,0.03125 -0.28125,0 -1.046875,-0.03125 -1.078125,-0.03125 v 0.25 H 0.53125 c 0.578125,0 0.578125,0.09375 0.578125,0.328125 v 3.609375 c 0,0.25 0,0.328125 -0.578125,0.328125 H 0.359375 V 0 C 0.40625,0 1.15625,-0.03125 1.4375,-0.03125 1.71875,-0.03125 2.484375,0 2.515625,0 V -0.25 H 2.34375 c -0.578125,0 -0.578125,-0.078125 -0.578125,-0.328125 z m 0,0"
             id="path5-1-1-1" />
        </g>
      </g>
    </g>
  </g>
</svg>
