<?xml version="1.0" encoding="UTF-8" standalone="no"?>
<!-- Created with Inkscape (http://www.inkscape.org/) -->

<svg
   width="49.721775mm"
   height="49.579556mm"
   viewBox="0 0 49.721775 49.579556"
   version="1.1"
   id="svg1"
   inkscape:version="1.4.3 (1:1.4.3+202512261035+0d15f75042)"
   sodipodi:docname="wb_lin.svg"
   xmlns:inkscape="http://www.inkscape.org/namespaces/inkscape"
   xmlns:sodipodi="http://sodipodi.sourceforge.net/DTD/sodipodi-0.dtd"
   xmlns="http://www.w3.org/2000/svg"
   xmlns:svg="http://www.w3.org/2000/svg">
  <sodipodi:namedview
     id="namedview1"
     pagecolor="#ffffff"
     bordercolor="#000000"
     borderopacity="0.25"
     inkscape:showpageshadow="2"
     inkscape:pageopacity="0.0"
     inkscape:pagecheckerboard="0"
     inkscape:deskcolor="#d1d1d1"
     inkscape:document-units="mm"
     showgrid="true"
     inkscape:zoom="3.2177609"
     inkscape:cx="119.49303"
     inkscape:cy="53.919481"
     inkscape:window-width="1854"
     inkscape:window-height="1131"
     inkscape:window-x="0"
     inkscape:window-y="0"
     inkscape:window-maximized="1"
     inkscape:current-layer="layer1">
    <inkscape:grid
       id="grid1"
       units="mm"
       originx="-2.8207279"
       originy="-2.565549"
       spacingx="0.26458333"
       spacingy="0.26458334"
       empcolor="#0099e5"
       empopacity="0.30196078"
       color="#0099e5"
       opacity="0.14901961"
       empspacing="5"
       enabled="true"
       visible="true" />
  </sodipodi:namedview>
  <defs
     id="defs1">
    <clipPath
       clipPathUnits="userSpaceOnUse"
       id="clipPath5">
      <path
         d="M 0,0 H 178 V 169 H 0 Z"
         transform="scale(1.0024791,-1)"
         id="path5" />
    </clipPath>
    <clipPath
       clipPathUnits="userSpaceOnUse"
       id="clipPath7">
      <path
         d="M 0,0 H 178 V 169 H 0 Z"
         transform="scale(1.0024791,-1)"
         id="path7" />
    </clipPath>
    <clipPath
       clipPathUnits="userSpaceOnUse"
       id="clipPath9">
      <path
         d="M 0,0 H 178 V 169 H 0 Z"
         transform="scale(1.0024791,-1)"
         id="path9" />
    </clipPath>
    <clipPath
       clipPathUnits="userSpaceOnUse"
       id="clipPath1">
      <path
         d="M 0,0 H 178 V 169 H 0 Z"
         transform="scale(1.0024791,-1)"
         id="path1-7" />
    </clipPath>
    <clipPath
       clipPathUnits="userSpaceOnUse"
       id="clipPath3">
      <path
         d="M 0,0 H 178 V 169 H 0 Z"
         id="path3-5" />
    </clipPath>
    <clipPath
       clipPathUnits="userSpaceOnUse"
       id="clipPath13">
      <path
         d="M 0,0 H 178 V 169 H 0 Z"
         transform="scale(1.0024791,-1)"
         id="path13-4" />
    </clipPath>
    <clipPath
       clipPathUnits="userSpaceOnUse"
       id="clipPath37">
      <path
         d="M 0,0 H 178 V 169 H 0 Z"
         transform="scale(1.0024791,-1)"
         id="path37" />
    </clipPath>
    <clipPath
       clipPathUnits="userSpaceOnUse"
       id="clipPath47">
      <path
         d="M 0,0 H 178 V 169 H 0 Z"
         transform="scale(1.0024791,-1)"
         id="path47" />
    </clipPath>
    <clipPath
       clipPathUnits="userSpaceOnUse"
       id="clipPath41">
      <path
         d="M 0,0 H 178 V 169 H 0 Z"
         id="path41" />
    </clipPath>
    <clipPath
       clipPathUnits="userSpaceOnUse"
       id="clipPath41-4">
      <path
         d="M 0,0 H 178 V 169 H 0 Z"
         id="path41-9" />
    </clipPath>
    <clipPath
       clipPathUnits="userSpaceOnUse"
       id="clipPath31">
      <path
         d="M 0,0 H 178 V 169 H 0 Z"
         transform="scale(1.0024791,-1)"
         id="path31" />
    </clipPath>
    <clipPath
       clipPathUnits="userSpaceOnUse"
       id="clipPath33-7">
      <path
         d="M 0,0 H 178 V 169 H 0 Z"
         transform="scale(1.0024791,-1)"
         id="path33-0" />
    </clipPath>
    <clipPath
       clipPathUnits="userSpaceOnUse"
       id="clipPath35-9">
      <path
         d="M 0,0 H 178 V 169 H 0 Z"
         transform="scale(1.0024791,-1)"
         id="path35-3" />
    </clipPath>
    <marker
       style="overflow:visible"
       id="Triangle"
       refX="0"
       refY="0"
       orient="auto-start-reverse"
       inkscape:stockid="Triangle arrow"
       markerWidth="1.618"
       markerHeight="1"
       viewBox="0 0 1 1"
       inkscape:isstock="true"
       inkscape:collect="always"
       preserveAspectRatio="none">
      <path
         transform="scale(0.5)"
         style="fill:context-stroke;fill-rule:evenodd;stroke:context-stroke;stroke-width:1pt"
         d="M 5.77,0 -2.88,5 V -5 Z"
         id="path135" />
    </marker>
    <marker
       style="overflow:visible"
       id="Triangle-7"
       refX="0"
       refY="0"
       orient="auto-start-reverse"
       inkscape:stockid="Triangle arrow"
       markerWidth="1.618"
       markerHeight="1"
       viewBox="0 0 1 1"
       inkscape:isstock="true"
       inkscape:collect="always"
       preserveAspectRatio="none">
      <path
         transform="scale(0.5)"
         style="fill:context-stroke;fill-rule:evenodd;stroke:context-stroke;stroke-width:1pt"
         d="M 5.77,0 -2.88,5 V -5 Z"
         id="path135-1" />
    </marker>
    <g
       id="g1336">
      <g
         id="g5799">
        <path
           d="m 3.734375,-6.125 c 0.0625,-0.234375 0.09375,-0.328125 0.28125,-0.359375 C 4.109375,-6.5 4.421875,-6.5 4.625,-6.5 c 0.703125,0 1.8125,0 1.8125,0.984375 0,0.34375 -0.15625,1.03125 -0.546875,1.421875 -0.265625,0.25 -0.78125,0.578125 -1.6875,0.578125 H 3.09375 Z m 1.4375,2.734375 c 1.015625,-0.21875 2.1875,-0.921875 2.1875,-1.921875 0,-0.859375 -0.890625,-1.5 -2.203125,-1.5 H 2.328125 c -0.203125,0 -0.296875,0 -0.296875,0.203125 C 2.03125,-6.5 2.125,-6.5 2.3125,-6.5 c 0.015625,0 0.203125,0 0.375,0.015625 0.1875,0.03125 0.265625,0.03125 0.265625,0.171875 0,0.03125 0,0.0625 -0.03125,0.1875 l -1.34375,5.34375 C 1.484375,-0.390625 1.46875,-0.3125 0.671875,-0.3125 0.5,-0.3125 0.40625,-0.3125 0.40625,-0.109375 0.40625,0 0.53125,0 0.546875,0 c 0.28125,0 0.984375,-0.03125 1.25,-0.03125 0.28125,0 1,0.03125 1.28125,0.03125 0.078125,0 0.1875,0 0.1875,-0.203125 0,-0.109375 -0.078125,-0.109375 -0.28125,-0.109375 -0.359375,0 -0.640625,0 -0.640625,-0.171875 0,-0.0625 0.015625,-0.109375 0.03125,-0.171875 l 0.65625,-2.640625 h 1.1875 c 0.90625,0 1.078125,0.5625 1.078125,0.90625 0,0.140625 -0.078125,0.453125 -0.140625,0.6875 C 5.09375,-1.421875 5,-1.0625 5,-0.859375 5,0.21875 6.203125,0.21875 6.328125,0.21875 c 0.84375,0 1.203125,-1 1.203125,-1.140625 0,-0.125 -0.109375,-0.125 -0.125,-0.125 -0.09375,0 -0.109375,0.0625 -0.125,0.140625 C 7.03125,-0.171875 6.59375,0 6.375,0 6.046875,0 5.96875,-0.21875 5.96875,-0.609375 c 0,-0.3125 0.0625,-0.8125 0.109375,-1.140625 0.015625,-0.140625 0.03125,-0.328125 0.03125,-0.46875 0,-0.765625 -0.671875,-1.078125 -0.9375,-1.171875 z m 0,0"
           id="path4894" />
      </g>
      <g
         id="g4470">
        <path
           d="m 2.328125,-4.4375 c 0,-0.1875 0,-0.1875 -0.203125,-0.1875 -0.453125,0.4375 -1.078125,0.4375 -1.359375,0.4375 v 0.25 c 0.15625,0 0.625,0 1,-0.1875 v 3.546875 c 0,0.234375 0,0.328125 -0.6875,0.328125 H 0.8125 V 0 c 0.125,0 0.984375,-0.03125 1.234375,-0.03125 0.21875,0 1.09375,0.03125 1.25,0.03125 V -0.25 H 3.03125 c -0.703125,0 -0.703125,-0.09375 -0.703125,-0.328125 z m 0,0"
           id="path5439" />
      </g>
    </g>
    <g
       id="g6659">
      <g
         id="g9423">
        <path
           d="m 3.734375,-6.125 c 0.0625,-0.234375 0.09375,-0.328125 0.28125,-0.359375 C 4.109375,-6.5 4.421875,-6.5 4.625,-6.5 c 0.703125,0 1.8125,0 1.8125,0.984375 0,0.34375 -0.15625,1.03125 -0.546875,1.421875 -0.265625,0.25 -0.78125,0.578125 -1.6875,0.578125 H 3.09375 Z m 1.4375,2.734375 c 1.015625,-0.21875 2.1875,-0.921875 2.1875,-1.921875 0,-0.859375 -0.890625,-1.5 -2.203125,-1.5 H 2.328125 c -0.203125,0 -0.296875,0 -0.296875,0.203125 C 2.03125,-6.5 2.125,-6.5 2.3125,-6.5 c 0.015625,0 0.203125,0 0.375,0.015625 0.1875,0.03125 0.265625,0.03125 0.265625,0.171875 0,0.03125 0,0.0625 -0.03125,0.1875 l -1.34375,5.34375 C 1.484375,-0.390625 1.46875,-0.3125 0.671875,-0.3125 0.5,-0.3125 0.40625,-0.3125 0.40625,-0.109375 0.40625,0 0.53125,0 0.546875,0 c 0.28125,0 0.984375,-0.03125 1.25,-0.03125 0.28125,0 1,0.03125 1.28125,0.03125 0.078125,0 0.1875,0 0.1875,-0.203125 0,-0.109375 -0.078125,-0.109375 -0.28125,-0.109375 -0.359375,0 -0.640625,0 -0.640625,-0.171875 0,-0.0625 0.015625,-0.109375 0.03125,-0.171875 l 0.65625,-2.640625 h 1.1875 c 0.90625,0 1.078125,0.5625 1.078125,0.90625 0,0.140625 -0.078125,0.453125 -0.140625,0.6875 C 5.09375,-1.421875 5,-1.0625 5,-0.859375 5,0.21875 6.203125,0.21875 6.328125,0.21875 c 0.84375,0 1.203125,-1 1.203125,-1.140625 0,-0.125 -0.109375,-0.125 -0.125,-0.125 -0.09375,0 -0.109375,0.0625 -0.125,0.140625 C 7.03125,-0.171875 6.59375,0 6.375,0 6.046875,0 5.96875,-0.21875 5.96875,-0.609375 c 0,-0.3125 0.0625,-0.8125 0.109375,-1.140625 0.015625,-0.140625 0.03125,-0.328125 0.03125,-0.46875 0,-0.765625 -0.671875,-1.078125 -0.9375,-1.171875 z m 0,0"
           id="path1759" />
      </g>
      <g
         id="g6861">
        <path
           d="M 3.515625,-1.265625 H 3.28125 c -0.015625,0.15625 -0.09375,0.5625 -0.1875,0.625 C 3.046875,-0.59375 2.515625,-0.59375 2.40625,-0.59375 H 1.125 c 0.734375,-0.640625 0.984375,-0.84375 1.390625,-1.171875 0.515625,-0.40625 1,-0.84375 1,-1.5 0,-0.84375 -0.734375,-1.359375 -1.625,-1.359375 -0.859375,0 -1.453125,0.609375 -1.453125,1.25 0,0.34375 0.296875,0.390625 0.375,0.390625 0.15625,0 0.359375,-0.125 0.359375,-0.375 0,-0.125 -0.046875,-0.375 -0.40625,-0.375 C 0.984375,-4.21875 1.453125,-4.375 1.78125,-4.375 c 0.703125,0 1.0625,0.546875 1.0625,1.109375 0,0.609375 -0.4375,1.078125 -0.65625,1.328125 L 0.515625,-0.265625 C 0.4375,-0.203125 0.4375,-0.1875 0.4375,0 h 2.875 z m 0,0"
           id="path633" />
      </g>
    </g>
    <g
       id="g2045">
      <g
         id="g6899">
        <path
           d="m 3.734375,-6.125 c 0.0625,-0.234375 0.09375,-0.328125 0.28125,-0.359375 C 4.109375,-6.5 4.421875,-6.5 4.625,-6.5 c 0.703125,0 1.8125,0 1.8125,0.984375 0,0.34375 -0.15625,1.03125 -0.546875,1.421875 -0.265625,0.25 -0.78125,0.578125 -1.6875,0.578125 H 3.09375 Z m 1.4375,2.734375 c 1.015625,-0.21875 2.1875,-0.921875 2.1875,-1.921875 0,-0.859375 -0.890625,-1.5 -2.203125,-1.5 H 2.328125 c -0.203125,0 -0.296875,0 -0.296875,0.203125 C 2.03125,-6.5 2.125,-6.5 2.3125,-6.5 c 0.015625,0 0.203125,0 0.375,0.015625 0.1875,0.03125 0.265625,0.03125 0.265625,0.171875 0,0.03125 0,0.0625 -0.03125,0.1875 l -1.34375,5.34375 C 1.484375,-0.390625 1.46875,-0.3125 0.671875,-0.3125 0.5,-0.3125 0.40625,-0.3125 0.40625,-0.109375 0.40625,0 0.53125,0 0.546875,0 c 0.28125,0 0.984375,-0.03125 1.25,-0.03125 0.28125,0 1,0.03125 1.28125,0.03125 0.078125,0 0.1875,0 0.1875,-0.203125 0,-0.109375 -0.078125,-0.109375 -0.28125,-0.109375 -0.359375,0 -0.640625,0 -0.640625,-0.171875 0,-0.0625 0.015625,-0.109375 0.03125,-0.171875 l 0.65625,-2.640625 h 1.1875 c 0.90625,0 1.078125,0.5625 1.078125,0.90625 0,0.140625 -0.078125,0.453125 -0.140625,0.6875 C 5.09375,-1.421875 5,-1.0625 5,-0.859375 5,0.21875 6.203125,0.21875 6.328125,0.21875 c 0.84375,0 1.203125,-1 1.203125,-1.140625 0,-0.125 -0.109375,-0.125 -0.125,-0.125 -0.09375,0 -0.109375,0.0625 -0.125,0.140625 C 7.03125,-0.171875 6.59375,0 6.375,0 6.046875,0 5.96875,-0.21875 5.96875,-0.609375 c 0,-0.3125 0.0625,-0.8125 0.109375,-1.140625 0.015625,-0.140625 0.03125,-0.328125 0.03125,-0.46875 0,-0.765625 -0.671875,-1.078125 -0.9375,-1.171875 z m 0,0"
           id="path1723" />
      </g>
      <g
         id="g1322">
        <path
           d="m 1.90625,-2.328125 c 0.546875,0 0.9375,0.375 0.9375,1.125 0,0.859375 -0.515625,1.125 -0.90625,1.125 -0.28125,0 -0.90625,-0.078125 -1.1875,-0.5 0.328125,0 0.40625,-0.234375 0.40625,-0.390625 0,-0.21875 -0.171875,-0.375 -0.390625,-0.375 -0.1875,0 -0.390625,0.125 -0.390625,0.40625 0,0.65625 0.71875,1.078125 1.5625,1.078125 0.96875,0 1.640625,-0.65625 1.640625,-1.34375 0,-0.546875 -0.4375,-1.09375 -1.203125,-1.25 0.71875,-0.265625 0.984375,-0.78125 0.984375,-1.21875 0,-0.546875 -0.625,-0.953125 -1.40625,-0.953125 -0.765625,0 -1.359375,0.375 -1.359375,0.9375 0,0.234375 0.15625,0.359375 0.359375,0.359375 0.21875,0 0.359375,-0.15625 0.359375,-0.34375 0,-0.203125 -0.140625,-0.359375 -0.359375,-0.375 0.25,-0.296875 0.71875,-0.375 0.984375,-0.375 0.3125,0 0.75,0.15625 0.75,0.75 0,0.296875 -0.09375,0.625 -0.28125,0.828125 -0.21875,0.265625 -0.421875,0.28125 -0.765625,0.3125 -0.171875,0.015625 -0.1875,0.015625 -0.21875,0.015625 -0.015625,0 -0.078125,0.015625 -0.078125,0.09375 0,0.09375 0.0625,0.09375 0.1875,0.09375 z m 0,0"
           id="path6914" />
      </g>
    </g>
    <g
       id="g735">
      <g
         id="g6660">
        <path
           d="m 3.734375,-6.125 c 0.0625,-0.234375 0.09375,-0.328125 0.28125,-0.359375 C 4.109375,-6.5 4.421875,-6.5 4.625,-6.5 c 0.703125,0 1.8125,0 1.8125,0.984375 0,0.34375 -0.15625,1.03125 -0.546875,1.421875 -0.265625,0.25 -0.78125,0.578125 -1.6875,0.578125 H 3.09375 Z m 1.4375,2.734375 c 1.015625,-0.21875 2.1875,-0.921875 2.1875,-1.921875 0,-0.859375 -0.890625,-1.5 -2.203125,-1.5 H 2.328125 c -0.203125,0 -0.296875,0 -0.296875,0.203125 C 2.03125,-6.5 2.125,-6.5 2.3125,-6.5 c 0.015625,0 0.203125,0 0.375,0.015625 0.1875,0.03125 0.265625,0.03125 0.265625,0.171875 0,0.03125 0,0.0625 -0.03125,0.1875 l -1.34375,5.34375 C 1.484375,-0.390625 1.46875,-0.3125 0.671875,-0.3125 0.5,-0.3125 0.40625,-0.3125 0.40625,-0.109375 0.40625,0 0.53125,0 0.546875,0 c 0.28125,0 0.984375,-0.03125 1.25,-0.03125 0.28125,0 1,0.03125 1.28125,0.03125 0.078125,0 0.1875,0 0.1875,-0.203125 0,-0.109375 -0.078125,-0.109375 -0.28125,-0.109375 -0.359375,0 -0.640625,0 -0.640625,-0.171875 0,-0.0625 0.015625,-0.109375 0.03125,-0.171875 l 0.65625,-2.640625 h 1.1875 c 0.90625,0 1.078125,0.5625 1.078125,0.90625 0,0.140625 -0.078125,0.453125 -0.140625,0.6875 C 5.09375,-1.421875 5,-1.0625 5,-0.859375 5,0.21875 6.203125,0.21875 6.328125,0.21875 c 0.84375,0 1.203125,-1 1.203125,-1.140625 0,-0.125 -0.109375,-0.125 -0.125,-0.125 -0.09375,0 -0.109375,0.0625 -0.125,0.140625 C 7.03125,-0.171875 6.59375,0 6.375,0 6.046875,0 5.96875,-0.21875 5.96875,-0.609375 c 0,-0.3125 0.0625,-0.8125 0.109375,-1.140625 0.015625,-0.140625 0.03125,-0.328125 0.03125,-0.46875 0,-0.765625 -0.671875,-1.078125 -0.9375,-1.171875 z m 0,0"
           id="path4713" />
      </g>
      <g
         id="g778">
        <path
           d="m 3,-2.625 c -0.171875,0.046875 -0.296875,0.1875 -0.296875,0.328125 0,0.171875 0.140625,0.234375 0.234375,0.234375 0.078125,0 0.34375,-0.046875 0.34375,-0.40625 0,-0.453125 -0.5,-0.609375 -0.9375,-0.609375 -1.078125,0 -1.28125,0.8125 -1.28125,1.015625 0,0.265625 0.15625,0.4375 0.25,0.515625 0.171875,0.140625 0.296875,0.171875 0.78125,0.25 0.15625,0.03125 0.59375,0.109375 0.59375,0.453125 0,0.125 -0.078125,0.390625 -0.359375,0.5625 C 2.046875,-0.125 1.703125,-0.125 1.625,-0.125 1.34375,-0.125 0.953125,-0.1875 0.78125,-0.421875 1.015625,-0.453125 1.171875,-0.625 1.171875,-0.8125 c 0,-0.171875 -0.125,-0.265625 -0.265625,-0.265625 -0.203125,0 -0.40625,0.171875 -0.40625,0.46875 0,0.421875 0.4375,0.671875 1.109375,0.671875 1.296875,0 1.53125,-0.875 1.53125,-1.140625 0,-0.640625 -0.703125,-0.765625 -0.96875,-0.8125 -0.0625,-0.015625 -0.234375,-0.046875 -0.28125,-0.0625 -0.25,-0.046875 -0.375,-0.1875 -0.375,-0.34375 0,-0.15625 0.125,-0.34375 0.28125,-0.453125 0.1875,-0.109375 0.421875,-0.125 0.546875,-0.125 0.140625,0 0.5,0.015625 0.65625,0.25 z m 0,0"
           id="path5016" />
      </g>
    </g>
    <g
       id="g7297">
      <g
         id="g5440">
        <path
           d="m 3.734375,-6.125 c 0.0625,-0.234375 0.09375,-0.328125 0.28125,-0.359375 C 4.109375,-6.5 4.421875,-6.5 4.625,-6.5 c 0.703125,0 1.8125,0 1.8125,0.984375 0,0.34375 -0.15625,1.03125 -0.546875,1.421875 -0.265625,0.25 -0.78125,0.578125 -1.6875,0.578125 H 3.09375 Z m 1.4375,2.734375 c 1.015625,-0.21875 2.1875,-0.921875 2.1875,-1.921875 0,-0.859375 -0.890625,-1.5 -2.203125,-1.5 H 2.328125 c -0.203125,0 -0.296875,0 -0.296875,0.203125 C 2.03125,-6.5 2.125,-6.5 2.3125,-6.5 c 0.015625,0 0.203125,0 0.375,0.015625 0.1875,0.03125 0.265625,0.03125 0.265625,0.171875 0,0.03125 0,0.0625 -0.03125,0.1875 l -1.34375,5.34375 C 1.484375,-0.390625 1.46875,-0.3125 0.671875,-0.3125 0.5,-0.3125 0.40625,-0.3125 0.40625,-0.109375 0.40625,0 0.53125,0 0.546875,0 c 0.28125,0 0.984375,-0.03125 1.25,-0.03125 0.28125,0 1,0.03125 1.28125,0.03125 0.078125,0 0.1875,0 0.1875,-0.203125 0,-0.109375 -0.078125,-0.109375 -0.28125,-0.109375 -0.359375,0 -0.640625,0 -0.640625,-0.171875 0,-0.0625 0.015625,-0.109375 0.03125,-0.171875 l 0.65625,-2.640625 h 1.1875 c 0.90625,0 1.078125,0.5625 1.078125,0.90625 0,0.140625 -0.078125,0.453125 -0.140625,0.6875 C 5.09375,-1.421875 5,-1.0625 5,-0.859375 5,0.21875 6.203125,0.21875 6.328125,0.21875 c 0.84375,0 1.203125,-1 1.203125,-1.140625 0,-0.125 -0.109375,-0.125 -0.125,-0.125 -0.09375,0 -0.109375,0.0625 -0.125,0.140625 C 7.03125,-0.171875 6.59375,0 6.375,0 6.046875,0 5.96875,-0.21875 5.96875,-0.609375 c 0,-0.3125 0.0625,-0.8125 0.109375,-1.140625 0.015625,-0.140625 0.03125,-0.328125 0.03125,-0.46875 0,-0.765625 -0.671875,-1.078125 -0.9375,-1.171875 z m 0,0"
           id="path1855" />
      </g>
      <g
         id="g2650">
        <path
           d="m 1.21875,-3.125 c -0.25,0.03125 -0.515625,0.078125 -0.71875,0.25 -0.171875,0.15625 -0.265625,0.390625 -0.265625,0.609375 0,1.1875 1.9375,0.515625 1.9375,1.5625 0,0.421875 -0.390625,0.625 -0.765625,0.625 -0.53125,0 -0.890625,-0.375 -0.984375,-0.984375 -0.015625,-0.0625 -0.03125,-0.125 -0.109375,-0.125 -0.046875,0 -0.078125,0.046875 -0.078125,0.09375 V 0 c 0,0.046875 0.03125,0.0625 0.0625,0.0625 H 0.3125 c 0.109375,0 0.21875,-0.25 0.296875,-0.265625 H 0.625 c 0.046875,0 0.234375,0.171875 0.390625,0.21875 C 1.125,0.0625 1.25,0.0625 1.375,0.0625 c 0.578125,0 1.140625,-0.296875 1.140625,-0.9375 0,-0.46875 -0.34375,-0.84375 -0.796875,-0.953125 -0.4375,-0.125 -1.140625,-0.125 -1.140625,-0.625 0,-0.4375 0.453125,-0.53125 0.765625,-0.53125 0.34375,0 0.8125,0.1875 0.8125,0.78125 0,0.0625 0.015625,0.125 0.09375,0.125 0.0625,0 0.09375,-0.0625 0.09375,-0.125 C 2.34375,-2.25 2.328125,-2.28125 2.328125,-2.3125 v -0.71875 c 0,-0.03125 -0.015625,-0.09375 -0.0625,-0.09375 -0.125,0 -0.1875,0.171875 -0.265625,0.171875 -0.0625,0 -0.171875,-0.078125 -0.265625,-0.109375 -0.125,-0.046875 -0.25,-0.0625 -0.390625,-0.0625 -0.046875,0 -0.078125,0 -0.125,0 z m 0,0"
           id="path5151" />
      </g>
    </g>
    <clipPath
       clipPathUnits="userSpaceOnUse"
       id="clipPath41-4-6">
      <path
         d="M 0,0 H 178 V 169 H 0 Z"
         id="path41-9-1" />
    </clipPath>
    <g
       id="g700">
      <g
         id="g584">
        <path
           d="M 6.265625,-5.671875 C 6.75,-6.453125 7.171875,-6.484375 7.53125,-6.5 c 0.125,-0.015625 0.140625,-0.171875 0.140625,-0.1875 0,-0.078125 -0.0625,-0.125 -0.140625,-0.125 -0.25,0 -0.546875,0.03125 -0.8125,0.03125 -0.328125,0 -0.671875,-0.03125 -0.984375,-0.03125 -0.0625,0 -0.1875,0 -0.1875,0.1875 0,0.109375 0.078125,0.125 0.15625,0.125 0.265625,0.015625 0.453125,0.125 0.453125,0.328125 0,0.15625 -0.140625,0.375 -0.140625,0.375 l -3.0625,4.875 -0.6875,-5.28125 C 2.265625,-6.375 2.5,-6.5 2.953125,-6.5 c 0.140625,0 0.25,0 0.25,-0.203125 0,-0.078125 -0.078125,-0.109375 -0.125,-0.109375 -0.40625,0 -0.828125,0.03125 -1.25,0.03125 -0.171875,0 -0.359375,0 -0.546875,0 -0.171875,0 -0.359375,-0.03125 -0.53125,-0.03125 -0.078125,0 -0.1875,0 -0.1875,0.1875 0,0.125 0.078125,0.125 0.25,0.125 0.546875,0 0.5625,0.09375 0.59375,0.34375 L 2.1875,-0.015625 C 2.21875,0.1875 2.265625,0.21875 2.390625,0.21875 c 0.15625,0 0.203125,-0.046875 0.28125,-0.171875 z m 0,0"
           id="path264" />
      </g>
      <g
         id="g5565">
        <path
           d="m 5.1875,-4.71875 c 0,-0.125 0,-0.1875 -0.09375,-0.1875 -0.03125,0 -0.0625,0 -0.125,0.09375 l -0.375,0.53125 c -0.28125,-0.296875 -0.765625,-0.625 -1.4375,-0.625 -1.46875,0 -2.671875,1.140625 -2.671875,2.515625 0,1.421875 1.234375,2.53125 2.671875,2.53125 1.234375,0 2.03125,-0.921875 2.03125,-1.765625 0,-0.078125 -0.015625,-0.140625 -0.125,-0.140625 -0.03125,0 -0.109375,0 -0.109375,0.09375 -0.0625,1.125 -1.015625,1.5625 -1.703125,1.5625 -0.734375,0 -2.015625,-0.453125 -2.015625,-2.265625 0,-1.890625 1.34375,-2.265625 2,-2.265625 0.703125,0 1.515625,0.453125 1.703125,1.65625 0.015625,0.078125 0.078125,0.078125 0.125,0.078125 0.125,0 0.125,-0.046875 0.125,-0.1875 z m 0,0"
           id="path3177" />
      </g>
    </g>
    <clipPath
       clipPathUnits="userSpaceOnUse"
       id="clipPath59">
      <path
         d="M 0,0 H 178 V 169 H 0 Z"
         transform="scale(1.0024791,-1)"
         id="path59" />
    </clipPath>
    <clipPath
       clipPathUnits="userSpaceOnUse"
       id="clipPath61">
      <path
         d="M 0,0 H 178 V 169 H 0 Z"
         transform="scale(1.0024791,-1)"
         id="path61" />
    </clipPath>
    <clipPath
       clipPathUnits="userSpaceOnUse"
       id="clipPath41-4-7">
      <path
         d="M 0,0 H 178 V 169 H 0 Z"
         id="path41-9-6" />
    </clipPath>
  </defs>
  <g
     inkscape:label="Layer 1"
     inkscape:groupmode="layer"
     id="layer1"
     transform="translate(-2.8207279,-2.565549)">
    <g
       id="g6"
       transform="matrix(0,-0.26458333,0.26458333,0,-28.61371,33.116509)"
       style="stroke-width:1;stroke-dasharray:none">
      <path
         d="M 52.817504,-109.668 H 61.002"
         style="fill:none;stroke:#000000;stroke-width:0.750929;stroke-linecap:round;stroke-linejoin:bevel;stroke-miterlimit:6;stroke-dasharray:none;stroke-opacity:1"
         transform="scale(1.330036,-1.3333333)"
         clip-path="url(#clipPath5)"
         id="path6"
         sodipodi:nodetypes="cc" />
    </g>
    <g
       id="g8"
       transform="matrix(0,-0.26458333,0.26458333,0,-28.61371,32.227937)"
       style="stroke-width:1;stroke-dasharray:none">
      <path
         d="M 27.725472,-109.668 H 20.884"
         style="fill:none;stroke:#000000;stroke-width:0.750929;stroke-linecap:round;stroke-linejoin:bevel;stroke-miterlimit:6;stroke-dasharray:none;stroke-opacity:1"
         transform="scale(1.330036,-1.3333333)"
         clip-path="url(#clipPath7)"
         id="path8"
         sodipodi:nodetypes="cc" />
    </g>
    <g
       id="g10"
       transform="matrix(0,-0.26458333,0.26458333,0,-28.61371,33.018854)"
       style="stroke-width:1;stroke-dasharray:none">
      <path
         d="m 52.54,-109.668 -1.88,4.391 -3.763,-9.09 -3.446,9.09 -3.763,-9.09 -4.073,9.09 -3.45,-8.465 -2.192,4.074"
         style="fill:none;stroke:#000000;stroke-width:0.750929;stroke-linecap:round;stroke-linejoin:bevel;stroke-miterlimit:6;stroke-dasharray:none;stroke-opacity:1"
         transform="scale(1.330036,-1.3333333)"
         clip-path="url(#clipPath9)"
         id="path10" />
    </g>
    <g
       id="g1"
       transform="matrix(0,-0.26458333,0.26458333,0,-28.61371,46.228508)"
       style="stroke-width:1;stroke-dasharray:none">
      <path
         d="M 52.817504,-109.668 H 61.002"
         style="fill:none;stroke:#000000;stroke-width:0.750929;stroke-linecap:round;stroke-linejoin:bevel;stroke-miterlimit:6;stroke-dasharray:none;stroke-opacity:1"
         transform="scale(1.330036,-1.3333333)"
         clip-path="url(#clipPath5)"
         id="path1"
         sodipodi:nodetypes="cc" />
    </g>
    <g
       id="g2"
       transform="matrix(0,-0.26458333,0.26458333,0,-28.61371,45.339936)"
       style="stroke-width:1;stroke-dasharray:none">
      <path
         d="M 27.725472,-109.668 H 20.884"
         style="fill:none;stroke:#000000;stroke-width:0.750929;stroke-linecap:round;stroke-linejoin:bevel;stroke-miterlimit:6;stroke-dasharray:none;stroke-opacity:1"
         transform="scale(1.330036,-1.3333333)"
         clip-path="url(#clipPath7)"
         id="path2"
         sodipodi:nodetypes="cc" />
    </g>
    <g
       id="g3"
       transform="matrix(0,-0.26458333,0.26458333,0,-28.61371,46.130853)"
       style="stroke-width:1;stroke-dasharray:none">
      <path
         d="m 52.54,-109.668 -1.88,4.391 -3.763,-9.09 -3.446,9.09 -3.763,-9.09 -4.073,9.09 -3.45,-8.465 -2.192,4.074"
         style="fill:none;stroke:#000000;stroke-width:0.750929;stroke-linecap:round;stroke-linejoin:bevel;stroke-miterlimit:6;stroke-dasharray:none;stroke-opacity:1"
         transform="scale(1.330036,-1.3333333)"
         clip-path="url(#clipPath9)"
         id="path3" />
    </g>
    <g
       id="g11"
       transform="matrix(0,-0.26458333,0.26458333,0,5.9145773,46.228508)"
       style="stroke-width:1;stroke-dasharray:none">
      <path
         d="M 52.817504,-109.668 H 61.002"
         style="fill:none;stroke:#000000;stroke-width:0.750929;stroke-linecap:round;stroke-linejoin:bevel;stroke-miterlimit:6;stroke-dasharray:none;stroke-opacity:1"
         transform="scale(1.330036,-1.3333333)"
         clip-path="url(#clipPath5)"
         id="path11"
         sodipodi:nodetypes="cc" />
    </g>
    <g
       id="g12"
       transform="matrix(0,-0.26458333,0.26458333,0,5.9145773,45.339936)"
       style="stroke-width:1;stroke-dasharray:none">
      <path
         d="M 27.725472,-109.668 H 20.884"
         style="fill:none;stroke:#000000;stroke-width:0.750929;stroke-linecap:round;stroke-linejoin:bevel;stroke-miterlimit:6;stroke-dasharray:none;stroke-opacity:1"
         transform="scale(1.330036,-1.3333333)"
         clip-path="url(#clipPath7)"
         id="path12"
         sodipodi:nodetypes="cc" />
    </g>
    <g
       id="g13"
       transform="matrix(0,-0.26458333,0.26458333,0,5.9145773,46.130853)"
       style="stroke-width:1;stroke-dasharray:none">
      <path
         d="m 52.54,-109.668 -1.88,4.391 -3.763,-9.09 -3.446,9.09 -3.763,-9.09 -4.073,9.09 -3.45,-8.465 -2.192,4.074"
         style="fill:none;stroke:#000000;stroke-width:0.750929;stroke-linecap:round;stroke-linejoin:bevel;stroke-miterlimit:6;stroke-dasharray:none;stroke-opacity:1"
         transform="scale(1.330036,-1.3333333)"
         clip-path="url(#clipPath9)"
         id="path13" />
    </g>
    <g
       id="g17"
       transform="matrix(0,-0.26458333,0.26458333,0,5.9145773,33.248637)"
       style="stroke-width:1;stroke-dasharray:none">
      <path
         d="M 52.817504,-109.668 H 61.002"
         style="fill:none;stroke:#000000;stroke-width:0.750929;stroke-linecap:round;stroke-linejoin:bevel;stroke-miterlimit:6;stroke-dasharray:none;stroke-opacity:1"
         transform="scale(1.330036,-1.3333333)"
         clip-path="url(#clipPath5)"
         id="path16"
         sodipodi:nodetypes="cc" />
    </g>
    <g
       id="g18"
       transform="matrix(0,-0.26458333,0.26458333,0,5.9145773,32.360065)"
       style="stroke-width:1;stroke-dasharray:none">
      <path
         d="M 27.725472,-109.668 H 20.884"
         style="fill:none;stroke:#000000;stroke-width:0.750929;stroke-linecap:round;stroke-linejoin:bevel;stroke-miterlimit:6;stroke-dasharray:none;stroke-opacity:1"
         transform="scale(1.330036,-1.3333333)"
         clip-path="url(#clipPath7)"
         id="path17"
         sodipodi:nodetypes="cc" />
    </g>
    <g
       id="g19"
       transform="matrix(0,-0.26458333,0.26458333,0,5.9145773,33.150982)"
       style="stroke-width:1;stroke-dasharray:none">
      <path
         d="m 52.54,-109.668 -1.88,4.391 -3.763,-9.09 -3.446,9.09 -3.763,-9.09 -4.073,9.09 -3.45,-8.465 -2.192,4.074"
         style="fill:none;stroke:#000000;stroke-width:0.750929;stroke-linecap:round;stroke-linejoin:bevel;stroke-miterlimit:6;stroke-dasharray:none;stroke-opacity:1"
         transform="scale(1.330036,-1.3333333)"
         clip-path="url(#clipPath9)"
         id="path18" />
    </g>
    <path
       d="m 131.211,-124.711 -50.147,25.074 v -50.148 z"
       style="fill:none;stroke:#000000;stroke-width:0.750929;stroke-linecap:round;stroke-linejoin:bevel;stroke-miterlimit:6;stroke-dasharray:none;stroke-opacity:1"
       transform="matrix(0,0.35190535,0.35277776,0,71.267906,-0.11744391)"
       clip-path="url(#clipPath1)"
       id="path2-0" />
    <path
       d="M 81.064,-109.668 H 71.031"
       style="fill:none;stroke:#000000;stroke-width:0.750929;stroke-linecap:round;stroke-linejoin:bevel;stroke-miterlimit:6;stroke-dasharray:none;stroke-opacity:1"
       transform="matrix(0,0.35190535,0.35277776,0,71.267906,-0.11744391)"
       clip-path="url(#clipPath13)"
       id="path14-8" />
    <path
       d="m 131.211,-124.711 h 15.00594"
       style="fill:none;stroke:#000000;stroke-width:0.750929;stroke-linecap:round;stroke-linejoin:bevel;stroke-miterlimit:6;stroke-dasharray:none;stroke-opacity:1"
       transform="matrix(0,0.35190535,0.35277776,0,71.267906,-0.11744391)"
       clip-path="url(#clipPath37)"
       id="path38"
       sodipodi:nodetypes="cc" />
    <path
       d="M 71.031,-139.758 H 81.064"
       style="fill:none;stroke:#000000;stroke-width:0.750929;stroke-linecap:round;stroke-linejoin:bevel;stroke-miterlimit:6;stroke-dasharray:none;stroke-opacity:1"
       transform="matrix(0,0.35190535,0.35277776,0,71.267906,-0.11744391)"
       clip-path="url(#clipPath47)"
       id="path48" />
    <path
       style="fill:none;stroke:#000000;stroke-width:0.264583;stroke-linecap:square;stroke-linejoin:round;paint-order:markers fill stroke"
       d="M 32.564303,24.878744 H 44.603008"
       id="path23" />
    <path
       style="fill:none;stroke:#000000;stroke-width:0.264583;stroke-linecap:square;stroke-linejoin:round;paint-order:markers fill stroke"
       d="M 21.980969,24.878744 H 10.074719"
       id="path24" />
    <path
       d="m 152.773,124.711 c 0,-1.039 -0.839,-1.879 -1.875,-1.879 -1.035,0 -1.875,0.84 -1.875,1.879 0,1.039 0.84,1.883 1.875,1.883 1.036,0 1.875,-0.844 1.875,-1.883"
       style="fill:#000000;fill-opacity:1;fill-rule:evenodd;stroke:none"
       transform="matrix(0.35277776,0,0,0.35277776,-43.158737,-19.116522)"
       clip-path="url(#clipPath41)"
       id="path15" />
    <path
       d="m 152.773,124.711 c 0,-1.039 -0.839,-1.879 -1.875,-1.879 -1.035,0 -1.875,0.84 -1.875,1.879 0,1.039 0.84,1.883 1.875,1.883 1.036,0 1.875,-0.844 1.875,-1.883"
       style="fill:#000000;fill-opacity:1;fill-rule:evenodd;stroke:none"
       transform="matrix(0.35277776,0,0,0.35277776,-8.6306127,-19.116522)"
       clip-path="url(#clipPath41-4)"
       id="path15-6" />
    <path
       d="m 152.773,124.711 c 0,-1.039 -0.839,-1.879 -1.875,-1.879 -1.035,0 -1.875,0.84 -1.875,1.879 0,1.039 0.84,1.883 1.875,1.883 1.036,0 1.875,-0.844 1.875,-1.883"
       style="fill:#000000;fill-opacity:1;fill-rule:evenodd;stroke:none"
       transform="matrix(0.35277776,0,0,0.35277776,-8.6306128,7.3418119)"
       clip-path="url(#clipPath41-4-7)"
       id="path15-6-6" />
    <path
       d="m 152.773,124.711 c 0,-1.039 -0.839,-1.879 -1.875,-1.879 -1.035,0 -1.875,0.84 -1.875,1.879 0,1.039 0.84,1.883 1.875,1.883 1.036,0 1.875,-0.844 1.875,-1.883"
       style="fill:#000000;fill-opacity:1;fill-rule:evenodd;stroke:none"
       transform="matrix(0.35277776,0,0,0.35277776,-24.637904,-32.345689)"
       clip-path="url(#clipPath41-4-6)"
       id="path15-6-1" />
    <path
       style="fill:none;stroke:#000000;stroke-width:0.264583;stroke-linecap:square;stroke-linejoin:round;paint-order:markers fill stroke"
       d="m 27.272636,51.33708 h 17.332371 l 2e-6,-13.229168"
       id="path25"
       sodipodi:nodetypes="ccc" />
    <path
       d="M 121.183,-94.621 H 101.121"
       style="fill:none;stroke:#000000;stroke-width:0.750929;stroke-linecap:round;stroke-linejoin:bevel;stroke-miterlimit:6;stroke-dasharray:none;stroke-opacity:1"
       transform="matrix(0.35190535,0,0,-0.35277776,-29.040262,4.7277277)"
       clip-path="url(#clipPath31)"
       id="path32" />
    <path
       d="M 116.793,-99.012 H 105.511"
       style="fill:none;stroke:#000000;stroke-width:0.750929;stroke-linecap:round;stroke-linejoin:bevel;stroke-miterlimit:6;stroke-dasharray:none;stroke-opacity:1"
       transform="matrix(0.35190535,0,0,-0.35277776,-29.040262,4.7277277)"
       clip-path="url(#clipPath33-7)"
       id="path34" />
    <path
       d="m 112.407,-103.398 h -2.51"
       style="fill:none;stroke:#000000;stroke-width:0.750929;stroke-linecap:round;stroke-linejoin:bevel;stroke-miterlimit:6;stroke-dasharray:none;stroke-opacity:1"
       transform="matrix(0.35190535,0,0,-0.35277776,-29.040262,4.7277277)"
       clip-path="url(#clipPath35-9)"
       id="path36" />
    <path
       style="fill:none;stroke:#000000;stroke-width:0.264583;stroke-linecap:square;stroke-linejoin:round;stroke-dasharray:none;marker-end:url(#Triangle);paint-order:markers fill stroke"
       d="m 42.072695,34.253195 5.291666,-5.291667"
       id="path19-0" />
    <path
       style="fill:none;stroke:#000000;stroke-width:0.264583;stroke-linecap:square;stroke-linejoin:round;paint-order:markers fill stroke"
       d="M 10.074719,11.649578 H 44.470552"
       id="path26" />
    <path
       style="fill:none;stroke:#000000;stroke-width:0.264583;stroke-linecap:square;stroke-linejoin:round;stroke-dasharray:none;marker-end:url(#Triangle-7);paint-order:markers fill stroke"
       d="M 28.595554,11.649578 V 4.1660318"
       id="path19-7" />
    <g
       inkscape:label=""
       transform="translate(3.1624803,17.486947)"
       id="g26">
      <g
         fill="#000000"
         fill-opacity="1"
         id="g3-1"
         transform="matrix(0.352778,0,0,0.352778,-0.846402,-0.701146)">
        <g
           id="use2"
           transform="translate(1.993,8.8000002)">
          <path
             d="m 3.734375,-6.125 c 0.0625,-0.234375 0.09375,-0.328125 0.28125,-0.359375 C 4.109375,-6.5 4.421875,-6.5 4.625,-6.5 c 0.703125,0 1.8125,0 1.8125,0.984375 0,0.34375 -0.15625,1.03125 -0.546875,1.421875 -0.265625,0.25 -0.78125,0.578125 -1.6875,0.578125 H 3.09375 Z m 1.4375,2.734375 c 1.015625,-0.21875 2.1875,-0.921875 2.1875,-1.921875 0,-0.859375 -0.890625,-1.5 -2.203125,-1.5 H 2.328125 c -0.203125,0 -0.296875,0 -0.296875,0.203125 C 2.03125,-6.5 2.125,-6.5 2.3125,-6.5 c 0.015625,0 0.203125,0 0.375,0.015625 0.1875,0.03125 0.265625,0.03125 0.265625,0.171875 0,0.03125 0,0.0625 -0.03125,0.1875 l -1.34375,5.34375 C 1.484375,-0.390625 1.46875,-0.3125 0.671875,-0.3125 0.5,-0.3125 0.40625,-0.3125 0.40625,-0.109375 0.40625,0 0.53125,0 0.546875,0 c 0.28125,0 0.984375,-0.03125 1.25,-0.03125 0.28125,0 1,0.03125 1.28125,0.03125 0.078125,0 0.1875,0 0.1875,-0.203125 0,-0.109375 -0.078125,-0.109375 -0.28125,-0.109375 -0.359375,0 -0.640625,0 -0.640625,-0.171875 0,-0.0625 0.015625,-0.109375 0.03125,-0.171875 l 0.65625,-2.640625 h 1.1875 c 0.90625,0 1.078125,0.5625 1.078125,0.90625 0,0.140625 -0.078125,0.453125 -0.140625,0.6875 C 5.09375,-1.421875 5,-1.0625 5,-0.859375 5,0.21875 6.203125,0.21875 6.328125,0.21875 c 0.84375,0 1.203125,-1 1.203125,-1.140625 0,-0.125 -0.109375,-0.125 -0.125,-0.125 -0.09375,0 -0.109375,0.0625 -0.125,0.140625 C 7.03125,-0.171875 6.59375,0 6.375,0 6.046875,0 5.96875,-0.21875 5.96875,-0.609375 c 0,-0.3125 0.0625,-0.8125 0.109375,-1.140625 0.015625,-0.140625 0.03125,-0.328125 0.03125,-0.46875 0,-0.765625 -0.671875,-1.078125 -0.9375,-1.171875 z m 0,0"
             id="path4" />
        </g>
      </g>
      <g
         fill="#000000"
         fill-opacity="1"
         id="g4"
         transform="matrix(0.352778,0,0,0.352778,-0.846402,-0.701146)">
        <g
           id="use3"
           transform="translate(9.5570002,10.294)">
          <path
             d="m 2.328125,-4.4375 c 0,-0.1875 0,-0.1875 -0.203125,-0.1875 -0.453125,0.4375 -1.078125,0.4375 -1.359375,0.4375 v 0.25 c 0.15625,0 0.625,0 1,-0.1875 v 3.546875 c 0,0.234375 0,0.328125 -0.6875,0.328125 H 0.8125 V 0 c 0.125,0 0.984375,-0.03125 1.234375,-0.03125 0.21875,0 1.09375,0.03125 1.25,0.03125 V -0.25 H 3.03125 c -0.703125,0 -0.703125,-0.09375 -0.703125,-0.328125 z m 0,0"
             id="path5-1" />
        </g>
      </g>
    </g>
    <g
       inkscape:label=""
       transform="translate(2.8207273,30.803669)"
       id="g27">
      <g
         fill="#000000"
         fill-opacity="1"
         id="g3-1-1"
         transform="matrix(0.352778,0,0,0.352778,-0.846402,-0.701146)">
        <g
           id="use2-1"
           transform="translate(1.993,8.8000002)">
          <path
             d="m 3.734375,-6.125 c 0.0625,-0.234375 0.09375,-0.328125 0.28125,-0.359375 C 4.109375,-6.5 4.421875,-6.5 4.625,-6.5 c 0.703125,0 1.8125,0 1.8125,0.984375 0,0.34375 -0.15625,1.03125 -0.546875,1.421875 -0.265625,0.25 -0.78125,0.578125 -1.6875,0.578125 H 3.09375 Z m 1.4375,2.734375 c 1.015625,-0.21875 2.1875,-0.921875 2.1875,-1.921875 0,-0.859375 -0.890625,-1.5 -2.203125,-1.5 H 2.328125 c -0.203125,0 -0.296875,0 -0.296875,0.203125 C 2.03125,-6.5 2.125,-6.5 2.3125,-6.5 c 0.015625,0 0.203125,0 0.375,0.015625 0.1875,0.03125 0.265625,0.03125 0.265625,0.171875 0,0.03125 0,0.0625 -0.03125,0.1875 l -1.34375,5.34375 C 1.484375,-0.390625 1.46875,-0.3125 0.671875,-0.3125 0.5,-0.3125 0.40625,-0.3125 0.40625,-0.109375 0.40625,0 0.53125,0 0.546875,0 c 0.28125,0 0.984375,-0.03125 1.25,-0.03125 0.28125,0 1,0.03125 1.28125,0.03125 0.078125,0 0.1875,0 0.1875,-0.203125 0,-0.109375 -0.078125,-0.109375 -0.28125,-0.109375 -0.359375,0 -0.640625,0 -0.640625,-0.171875 0,-0.0625 0.015625,-0.109375 0.03125,-0.171875 l 0.65625,-2.640625 h 1.1875 c 0.90625,0 1.078125,0.5625 1.078125,0.90625 0,0.140625 -0.078125,0.453125 -0.140625,0.6875 C 5.09375,-1.421875 5,-1.0625 5,-0.859375 5,0.21875 6.203125,0.21875 6.328125,0.21875 c 0.84375,0 1.203125,-1 1.203125,-1.140625 0,-0.125 -0.109375,-0.125 -0.125,-0.125 -0.09375,0 -0.109375,0.0625 -0.125,0.140625 C 7.03125,-0.171875 6.59375,0 6.375,0 6.046875,0 5.96875,-0.21875 5.96875,-0.609375 c 0,-0.3125 0.0625,-0.8125 0.109375,-1.140625 0.015625,-0.140625 0.03125,-0.328125 0.03125,-0.46875 0,-0.765625 -0.671875,-1.078125 -0.9375,-1.171875 z m 0,0"
             id="path4-1" />
        </g>
      </g>
      <g
         fill="#000000"
         fill-opacity="1"
         id="g4-1"
         transform="matrix(0.352778,0,0,0.352778,-0.846402,-0.701146)">
        <g
           id="use3-1"
           transform="translate(9.5570002,10.294)">
          <path
             d="M 3.515625,-1.265625 H 3.28125 c -0.015625,0.15625 -0.09375,0.5625 -0.1875,0.625 C 3.046875,-0.59375 2.515625,-0.59375 2.40625,-0.59375 H 1.125 c 0.734375,-0.640625 0.984375,-0.84375 1.390625,-1.171875 0.515625,-0.40625 1,-0.84375 1,-1.5 0,-0.84375 -0.734375,-1.359375 -1.625,-1.359375 -0.859375,0 -1.453125,0.609375 -1.453125,1.25 0,0.34375 0.296875,0.390625 0.375,0.390625 0.15625,0 0.359375,-0.125 0.359375,-0.375 0,-0.125 -0.046875,-0.375 -0.40625,-0.375 C 0.984375,-4.21875 1.453125,-4.375 1.78125,-4.375 c 0.703125,0 1.0625,0.546875 1.0625,1.109375 0,0.609375 -0.4375,1.078125 -0.65625,1.328125 L 0.515625,-0.265625 C 0.4375,-0.203125 0.4375,-0.1875 0.4375,0 h 2.875 z m 0,0"
             id="path5-1-1" />
        </g>
      </g>
    </g>
    <g
       inkscape:label=""
       transform="translate(47.211584,17.440451)"
       id="g28">
      <g
         fill="#000000"
         fill-opacity="1"
         id="g3-1-1-1"
         transform="matrix(0.352778,0,0,0.352778,-0.846402,-0.701146)">
        <g
           id="use2-1-1"
           transform="translate(1.993,8.8000002)">
          <path
             d="m 3.734375,-6.125 c 0.0625,-0.234375 0.09375,-0.328125 0.28125,-0.359375 C 4.109375,-6.5 4.421875,-6.5 4.625,-6.5 c 0.703125,0 1.8125,0 1.8125,0.984375 0,0.34375 -0.15625,1.03125 -0.546875,1.421875 -0.265625,0.25 -0.78125,0.578125 -1.6875,0.578125 H 3.09375 Z m 1.4375,2.734375 c 1.015625,-0.21875 2.1875,-0.921875 2.1875,-1.921875 0,-0.859375 -0.890625,-1.5 -2.203125,-1.5 H 2.328125 c -0.203125,0 -0.296875,0 -0.296875,0.203125 C 2.03125,-6.5 2.125,-6.5 2.3125,-6.5 c 0.015625,0 0.203125,0 0.375,0.015625 0.1875,0.03125 0.265625,0.03125 0.265625,0.171875 0,0.03125 0,0.0625 -0.03125,0.1875 l -1.34375,5.34375 C 1.484375,-0.390625 1.46875,-0.3125 0.671875,-0.3125 0.5,-0.3125 0.40625,-0.3125 0.40625,-0.109375 0.40625,0 0.53125,0 0.546875,0 c 0.28125,0 0.984375,-0.03125 1.25,-0.03125 0.28125,0 1,0.03125 1.28125,0.03125 0.078125,0 0.1875,0 0.1875,-0.203125 0,-0.109375 -0.078125,-0.109375 -0.28125,-0.109375 -0.359375,0 -0.640625,0 -0.640625,-0.171875 0,-0.0625 0.015625,-0.109375 0.03125,-0.171875 l 0.65625,-2.640625 h 1.1875 c 0.90625,0 1.078125,0.5625 1.078125,0.90625 0,0.140625 -0.078125,0.453125 -0.140625,0.6875 C 5.09375,-1.421875 5,-1.0625 5,-0.859375 5,0.21875 6.203125,0.21875 6.328125,0.21875 c 0.84375,0 1.203125,-1 1.203125,-1.140625 0,-0.125 -0.109375,-0.125 -0.125,-0.125 -0.09375,0 -0.109375,0.0625 -0.125,0.140625 C 7.03125,-0.171875 6.59375,0 6.375,0 6.046875,0 5.96875,-0.21875 5.96875,-0.609375 c 0,-0.3125 0.0625,-0.8125 0.109375,-1.140625 0.015625,-0.140625 0.03125,-0.328125 0.03125,-0.46875 0,-0.765625 -0.671875,-1.078125 -0.9375,-1.171875 z m 0,0"
             id="path4-1-1" />
        </g>
      </g>
      <g
         fill="#000000"
         fill-opacity="1"
         id="g4-1-1"
         transform="matrix(0.352778,0,0,0.352778,-0.846402,-0.701146)">
        <g
           id="use3-1-1"
           transform="translate(9.5570002,10.294)">
          <path
             d="m 1.90625,-2.328125 c 0.546875,0 0.9375,0.375 0.9375,1.125 0,0.859375 -0.515625,1.125 -0.90625,1.125 -0.28125,0 -0.90625,-0.078125 -1.1875,-0.5 0.328125,0 0.40625,-0.234375 0.40625,-0.390625 0,-0.21875 -0.171875,-0.375 -0.390625,-0.375 -0.1875,0 -0.390625,0.125 -0.390625,0.40625 0,0.65625 0.71875,1.078125 1.5625,1.078125 0.96875,0 1.640625,-0.65625 1.640625,-1.34375 0,-0.546875 -0.4375,-1.09375 -1.203125,-1.25 0.71875,-0.265625 0.984375,-0.78125 0.984375,-1.21875 0,-0.546875 -0.625,-0.953125 -1.40625,-0.953125 -0.765625,0 -1.359375,0.375 -1.359375,0.9375 0,0.234375 0.15625,0.359375 0.359375,0.359375 0.21875,0 0.359375,-0.15625 0.359375,-0.34375 0,-0.203125 -0.140625,-0.359375 -0.359375,-0.375 0.25,-0.296875 0.71875,-0.375 0.984375,-0.375 0.3125,0 0.75,0.15625 0.75,0.75 0,0.296875 -0.09375,0.625 -0.28125,0.828125 -0.21875,0.265625 -0.421875,0.28125 -0.765625,0.3125 -0.171875,0.015625 -0.1875,0.015625 -0.21875,0.015625 -0.015625,0 -0.078125,0.015625 -0.078125,0.09375 0,0.09375 0.0625,0.09375 0.1875,0.09375 z m 0,0"
             id="path5-1-1-1" />
        </g>
      </g>
    </g>
    <g
       inkscape:label=""
       transform="translate(47.755795,30.85943)"
       id="g29">
      <g
         fill="#000000"
         fill-opacity="1"
         id="g3-1-1-1-1"
         transform="matrix(0.352778,0,0,0.352778,-0.846402,-0.701146)">
        <g
           id="use2-1-1-1"
           transform="translate(1.993,8.8000002)">
          <path
             d="m 3.734375,-6.125 c 0.0625,-0.234375 0.09375,-0.328125 0.28125,-0.359375 C 4.109375,-6.5 4.421875,-6.5 4.625,-6.5 c 0.703125,0 1.8125,0 1.8125,0.984375 0,0.34375 -0.15625,1.03125 -0.546875,1.421875 -0.265625,0.25 -0.78125,0.578125 -1.6875,0.578125 H 3.09375 Z m 1.4375,2.734375 c 1.015625,-0.21875 2.1875,-0.921875 2.1875,-1.921875 0,-0.859375 -0.890625,-1.5 -2.203125,-1.5 H 2.328125 c -0.203125,0 -0.296875,0 -0.296875,0.203125 C 2.03125,-6.5 2.125,-6.5 2.3125,-6.5 c 0.015625,0 0.203125,0 0.375,0.015625 0.1875,0.03125 0.265625,0.03125 0.265625,0.171875 0,0.03125 0,0.0625 -0.03125,0.1875 l -1.34375,5.34375 C 1.484375,-0.390625 1.46875,-0.3125 0.671875,-0.3125 0.5,-0.3125 0.40625,-0.3125 0.40625,-0.109375 0.40625,0 0.53125,0 0.546875,0 c 0.28125,0 0.984375,-0.03125 1.25,-0.03125 0.28125,0 1,0.03125 1.28125,0.03125 0.078125,0 0.1875,0 0.1875,-0.203125 0,-0.109375 -0.078125,-0.109375 -0.28125,-0.109375 -0.359375,0 -0.640625,0 -0.640625,-0.171875 0,-0.0625 0.015625,-0.109375 0.03125,-0.171875 l 0.65625,-2.640625 h 1.1875 c 0.90625,0 1.078125,0.5625 1.078125,0.90625 0,0.140625 -0.078125,0.453125 -0.140625,0.6875 C 5.09375,-1.421875 5,-1.0625 5,-0.859375 5,0.21875 6.203125,0.21875 6.328125,0.21875 c 0.84375,0 1.203125,-1 1.203125,-1.140625 0,-0.125 -0.109375,-0.125 -0.125,-0.125 -0.09375,0 -0.109375,0.0625 -0.125,0.140625 C 7.03125,-0.171875 6.59375,0 6.375,0 6.046875,0 5.96875,-0.21875 5.96875,-0.609375 c 0,-0.3125 0.0625,-0.8125 0.109375,-1.140625 0.015625,-0.140625 0.03125,-0.328125 0.03125,-0.46875 0,-0.765625 -0.671875,-1.078125 -0.9375,-1.171875 z m 0,0"
             id="path4-1-1-1" />
        </g>
      </g>
      <g
         fill="#000000"
         fill-opacity="1"
         id="g4-1-1-1"
         transform="matrix(0.352778,0,0,0.352778,-0.846402,-0.701146)">
        <g
           id="use3-1-1-1"
           transform="translate(9.5570002,10.294)">
          <path
             d="m 1.21875,-3.125 c -0.25,0.03125 -0.515625,0.078125 -0.71875,0.25 -0.171875,0.15625 -0.265625,0.390625 -0.265625,0.609375 0,1.1875 1.9375,0.515625 1.9375,1.5625 0,0.421875 -0.390625,0.625 -0.765625,0.625 -0.53125,0 -0.890625,-0.375 -0.984375,-0.984375 -0.015625,-0.0625 -0.03125,-0.125 -0.109375,-0.125 -0.046875,0 -0.078125,0.046875 -0.078125,0.09375 V 0 c 0,0.046875 0.03125,0.0625 0.0625,0.0625 H 0.3125 c 0.109375,0 0.21875,-0.25 0.296875,-0.265625 H 0.625 c 0.046875,0 0.234375,0.171875 0.390625,0.21875 C 1.125,0.0625 1.25,0.0625 1.375,0.0625 c 0.578125,0 1.140625,-0.296875 1.140625,-0.9375 0,-0.46875 -0.34375,-0.84375 -0.796875,-0.953125 -0.4375,-0.125 -1.140625,-0.125 -1.140625,-0.625 0,-0.4375 0.453125,-0.53125 0.765625,-0.53125 0.34375,0 0.8125,0.1875 0.8125,0.78125 0,0.0625 0.015625,0.125 0.09375,0.125 0.0625,0 0.09375,-0.0625 0.09375,-0.125 C 2.34375,-2.25 2.328125,-2.28125 2.328125,-2.3125 v -0.71875 c 0,-0.03125 -0.015625,-0.09375 -0.0625,-0.09375 -0.125,0 -0.1875,0.171875 -0.265625,0.171875 -0.0625,0 -0.171875,-0.078125 -0.265625,-0.109375 -0.125,-0.046875 -0.25,-0.0625 -0.390625,-0.0625 -0.046875,0 -0.078125,0 -0.125,0 z m 0,0"
             id="path5-1-1-1-1" />
        </g>
      </g>
    </g>
    <g
       inkscape:label=""
       transform="translate(30.277288,2.5655487)"
       id="g30">
      <g
         fill="#000000"
         fill-opacity="1"
         id="g3-1-1-1-1-1"
         transform="matrix(0.352778,0,0,0.352778,-0.901524,-0.701146)">
        <g
           id="use2-1-1-1-1"
           transform="translate(1.993,8.8000002)">
          <path
             d="M 6.265625,-5.671875 C 6.75,-6.453125 7.171875,-6.484375 7.53125,-6.5 c 0.125,-0.015625 0.140625,-0.171875 0.140625,-0.1875 0,-0.078125 -0.0625,-0.125 -0.140625,-0.125 -0.25,0 -0.546875,0.03125 -0.8125,0.03125 -0.328125,0 -0.671875,-0.03125 -0.984375,-0.03125 -0.0625,0 -0.1875,0 -0.1875,0.1875 0,0.109375 0.078125,0.125 0.15625,0.125 0.265625,0.015625 0.453125,0.125 0.453125,0.328125 0,0.15625 -0.140625,0.375 -0.140625,0.375 l -3.0625,4.875 -0.6875,-5.28125 C 2.265625,-6.375 2.5,-6.5 2.953125,-6.5 c 0.140625,0 0.25,0 0.25,-0.203125 0,-0.078125 -0.078125,-0.109375 -0.125,-0.109375 -0.40625,0 -0.828125,0.03125 -1.25,0.03125 -0.171875,0 -0.359375,0 -0.546875,0 -0.171875,0 -0.359375,-0.03125 -0.53125,-0.03125 -0.078125,0 -0.1875,0 -0.1875,0.1875 0,0.125 0.078125,0.125 0.25,0.125 0.546875,0 0.5625,0.09375 0.59375,0.34375 L 2.1875,-0.015625 C 2.21875,0.1875 2.265625,0.21875 2.390625,0.21875 c 0.15625,0 0.203125,-0.046875 0.28125,-0.171875 z m 0,0"
             id="path4-1-1-1-1" />
        </g>
      </g>
      <g
         fill="#000000"
         fill-opacity="1"
         id="g4-1-1-1-1"
         transform="matrix(0.352778,0,0,0.352778,-0.901524,-0.701146)">
        <g
           id="use3-1-1-1-1"
           transform="translate(7.8039999,10.294)">
          <path
             d="m 5.1875,-4.71875 c 0,-0.125 0,-0.1875 -0.09375,-0.1875 -0.03125,0 -0.0625,0 -0.125,0.09375 l -0.375,0.53125 c -0.28125,-0.296875 -0.765625,-0.625 -1.4375,-0.625 -1.46875,0 -2.671875,1.140625 -2.671875,2.515625 0,1.421875 1.234375,2.53125 2.671875,2.53125 1.234375,0 2.03125,-0.921875 2.03125,-1.765625 0,-0.078125 -0.015625,-0.140625 -0.125,-0.140625 -0.03125,0 -0.109375,0 -0.109375,0.09375 -0.0625,1.125 -1.015625,1.5625 -1.703125,1.5625 -0.734375,0 -2.015625,-0.453125 -2.015625,-2.265625 0,-1.890625 1.34375,-2.265625 2,-2.265625 0.703125,0 1.515625,0.453125 1.703125,1.65625 0.015625,0.078125 0.078125,0.078125 0.125,0.078125 0.125,0 0.125,-0.046875 0.125,-0.1875 z m 0,0"
             id="path5-1-1-1-1-1" />
        </g>
        <g
           id="use4"
           transform="translate(13.491134,10.294)">
          <path
             d="m 5.1875,-4.71875 c 0,-0.125 0,-0.1875 -0.09375,-0.1875 -0.03125,0 -0.0625,0 -0.125,0.09375 l -0.375,0.53125 c -0.28125,-0.296875 -0.765625,-0.625 -1.4375,-0.625 -1.46875,0 -2.671875,1.140625 -2.671875,2.515625 0,1.421875 1.234375,2.53125 2.671875,2.53125 1.234375,0 2.03125,-0.921875 2.03125,-1.765625 0,-0.078125 -0.015625,-0.140625 -0.125,-0.140625 -0.03125,0 -0.109375,0 -0.109375,0.09375 -0.0625,1.125 -1.015625,1.5625 -1.703125,1.5625 -0.734375,0 -2.015625,-0.453125 -2.015625,-2.265625 0,-1.890625 1.34375,-2.265625 2,-2.265625 0.703125,0 1.515625,0.453125 1.703125,1.65625 0.015625,0.078125 0.078125,0.078125 0.125,0.078125 0.125,0 0.125,-0.046875 0.125,-0.1875 z m 0,0"
             id="path6-1" />
        </g>
      </g>
    </g>
    <path
       d="M 168.18708,-124.711 H 151.27209"
       style="fill:none;stroke:#000000;stroke-width:0.752112;stroke-linecap:round;stroke-linejoin:bevel;stroke-miterlimit:6;stroke-dasharray:none;stroke-opacity:1"
       transform="matrix(0.35190535,0,0,-0.35277776,-8.6284507,7.3418127)"
       clip-path="url(#clipPath61)"
       id="path62"
       sodipodi:nodetypes="cc" />
    <path
       d="m 168.197,-124.711 c 0,1.039 -0.842,1.879 -1.879,1.879 -1.038,0 -1.884,-0.84 -1.884,-1.879 0,-1.039 0.846,-1.883 1.884,-1.883 1.037,0 1.879,0.844 1.879,1.883"
       style="fill:none;stroke:#000000;stroke-width:0.814931;stroke-linecap:round;stroke-linejoin:bevel;stroke-miterlimit:6;stroke-dasharray:none;stroke-opacity:1"
       transform="matrix(0.35190535,0,0,-0.35277776,-7.3077307,7.3418127)"
       clip-path="url(#clipPath59)"
       id="path60" />
    <g
       inkscape:label=""
       transform="translate(50.056213,47.856883)"
       id="g24">
      <g
         fill="#000000"
         fill-opacity="1"
         id="g3-1-1-0"
         transform="matrix(0.352778,0,0,0.352778,-0.807817,-0.661723)">
        <g
           id="use2-1-1-9"
           transform="translate(1.993,6.2820001)">
          <path
             d="m 4.671875,-3.703125 c 0,-0.546875 -0.265625,-0.703125 -0.4375,-0.703125 -0.25,0 -0.5,0.265625 -0.5,0.484375 0,0.125 0.046875,0.1875 0.15625,0.296875 0.21875,0.203125 0.34375,0.453125 0.34375,0.8125 0,0.421875 -0.609375,2.703125 -1.765625,2.703125 -0.515625,0 -0.75,-0.34375 -0.75,-0.875 0,-0.546875 0.28125,-1.28125 0.578125,-2.109375 0.078125,-0.171875 0.125,-0.3125 0.125,-0.5 0,-0.4375 -0.3125,-0.8125 -0.8125,-0.8125 -0.9375,0 -1.3125,1.453125 -1.3125,1.53125 0,0.109375 0.09375,0.109375 0.109375,0.109375 0.109375,0 0.109375,-0.03125 0.15625,-0.1875 0.296875,-1 0.71875,-1.234375 1.015625,-1.234375 0.078125,0 0.25,0 0.25,0.3125 0,0.25 -0.109375,0.53125 -0.171875,0.703125 -0.4375,1.15625 -0.5625,1.609375 -0.5625,2.046875 0,1.078125 0.875,1.234375 1.328125,1.234375 1.671875,0 2.25,-3.296875 2.25,-3.8125 z m 0,0"
             id="path4-1-1-1-17" />
        </g>
      </g>
      <g
         fill="#000000"
         fill-opacity="1"
         id="g4-1-1-7"
         transform="matrix(0.352778,0,0,0.352778,-0.807817,-0.661723)">
        <g
           id="use3-1-1-11"
           transform="translate(6.822,7.776)">
          <path
             d="m 1.765625,-4.1875 c 0,-0.234375 0,-0.328125 0.578125,-0.328125 h 0.171875 v -0.25 c -0.046875,0 -0.796875,0.03125 -1.078125,0.03125 -0.28125,0 -1.046875,-0.03125 -1.078125,-0.03125 v 0.25 H 0.53125 c 0.578125,0 0.578125,0.09375 0.578125,0.328125 v 3.609375 c 0,0.25 0,0.328125 -0.578125,0.328125 H 0.359375 V 0 C 0.40625,0 1.15625,-0.03125 1.4375,-0.03125 1.71875,-0.03125 2.484375,0 2.515625,0 V -0.25 H 2.34375 c -0.578125,0 -0.578125,-0.078125 -0.578125,-0.328125 z m 0,0"
             id="path5-1-1-1-5" />
        </g>
      </g>
    </g>
  </g>
</svg>
